<svg width="175" height="175" viewBox="0 0 175 175" fill="none" xmlns="http://www.w3.org/2000/svg">
<circle cx="87.5" cy="87.5" r="87.5" fill="#F9F9F9"/>
<path d="M116.125 61.875H63.875C62.6152 61.875 61.407 62.3754 60.5162 63.2662C59.6254 64.157 59.125 65.3652 59.125 66.625V109.375C59.125 110.635 59.6254 111.843 60.5162 112.734C61.407 113.625 62.6152 114.125 63.875 114.125H116.125C117.385 114.125 118.593 113.625 119.484 112.734C120.375 111.843 120.875 110.635 120.875 109.375V66.625C120.875 65.3652 120.375 64.157 119.484 63.2662C118.593 62.3754 117.385 61.875 116.125 61.875ZM111.375 107H68.625C67.9951 107 67.391 106.75 66.9456 106.304C66.5002 105.859 66.25 105.255 66.25 104.625V71.375C66.25 70.7451 66.5002 70.141 66.9456 69.6956C67.391 69.2502 67.9951 69 68.625 69C69.2549 69 69.859 69.2502 70.3044 69.6956C70.7498 70.141 71 70.7451 71 71.375V94.1423L81.1947 83.9447C81.4153 83.7239 81.6772 83.5487 81.9655 83.4292C82.2538 83.3097 82.5629 83.2481 82.875 83.2481C83.1871 83.2481 83.4962 83.3097 83.7845 83.4292C84.0728 83.5487 84.3347 83.7239 84.5553 83.9447L90 89.3923L103.267 76.125H97.125C96.4951 76.125 95.891 75.8748 95.4456 75.4294C95.0002 74.984 94.75 74.3799 94.75 73.75C94.75 73.1201 95.0002 72.516 95.4456 72.0706C95.891 71.6252 96.4951 71.375 97.125 71.375H109C109.63 71.375 110.234 71.6252 110.679 72.0706C111.125 72.516 111.375 73.1201 111.375 73.75V85.625C111.375 86.2549 111.125 86.859 110.679 87.3044C110.234 87.7498 109.63 88 109 88C108.37 88 107.766 87.7498 107.321 87.3044C106.875 86.859 106.625 86.2549 106.625 85.625V79.4827L91.6803 94.4303C91.4597 94.6511 91.1978 94.8263 90.9095 94.9458C90.6212 95.0654 90.3121 95.1269 90 95.1269C89.6879 95.1269 89.3788 95.0654 89.0905 94.9458C88.8022 94.8263 88.5403 94.6511 88.3197 94.4303L82.875 88.9827L71 100.858V102.25H111.375C112.005 102.25 112.609 102.5 113.054 102.946C113.5 103.391 113.75 103.995 113.75 104.625C113.75 105.255 113.5 105.859 113.054 106.304C112.609 106.75 112.005 107 111.375 107Z" fill="#343330"/>
</svg>
