<svg width="115" height="115" viewBox="0 0 115 115" fill="none" xmlns="http://www.w3.org/2000/svg">
<circle cx="57.5" cy="57.5" r="57" fill="#6A5CAB" stroke="#A69DCD"/>
<path d="M78.1176 56.2676V57.8283C78.1176 60.4988 77.5905 63.1431 76.5663 65.6094C75.5422 68.0757 74.0412 70.3156 72.1495 72.2006C70.2579 74.0856 68.0127 75.5786 65.5427 76.594C63.0728 77.6093 60.4267 78.1271 57.7562 78.1176C47.2213 78.0806 38.6374 69.9122 37.6386 59.6271C37.6277 59.4931 37.6517 59.3586 37.7081 59.2366C37.7646 59.1146 37.8515 59.0092 37.9607 58.9307C38.0698 58.8522 38.1973 58.8032 38.3309 58.7885C38.4645 58.7738 38.5997 58.7938 38.7233 58.8467C40.127 59.436 41.6845 59.5524 43.1602 59.1782C44.636 58.8041 45.9499 57.9598 46.9033 56.7729C47.5281 57.5498 48.3114 58.1845 49.201 58.6346C50.0906 59.0846 51.066 59.3397 52.062 59.3827C53.058 59.4257 54.0518 59.2557 54.9768 58.8841C55.9019 58.5124 56.7371 57.9476 57.4265 57.2275C58.0583 58.2539 58.9173 59.1215 59.9373 59.7636C58.796 60.6368 57.8713 61.7612 57.2349 63.0496C56.5984 64.3379 56.2675 65.7556 56.2676 67.1926C56.2669 67.4091 56.3111 67.6233 56.3976 67.8217C56.4841 68.0201 56.6109 68.1984 56.77 68.3451C56.929 68.4919 57.1169 68.604 57.3216 68.6743C57.5263 68.7445 57.7434 68.7715 57.9591 68.7533C58.3551 68.7107 58.7211 68.5219 58.9855 68.224C59.2499 67.926 59.3938 67.5402 59.3891 67.1419C59.4024 65.495 60.0661 63.9201 61.2354 62.7603C62.4047 61.6005 63.985 60.9497 65.6319 60.9498C65.8459 60.9502 66.0576 60.9067 66.2541 60.8219C66.4505 60.7371 66.6274 60.6128 66.7737 60.4567C66.9201 60.3007 67.0328 60.1162 67.1049 59.9147C67.1769 59.7133 67.2068 59.4991 67.1926 59.2857C67.1577 58.8845 66.9724 58.5114 66.6739 58.2411C66.3754 57.9708 65.9858 57.8234 65.5831 57.8283H64.0712C62.8294 57.8283 61.6385 57.335 60.7604 56.457C59.8824 55.5789 59.3891 54.388 59.3891 53.1462V50.0248H71.8748C73.5305 50.0248 75.1184 50.6825 76.2891 51.8533C77.4599 53.024 78.1176 54.6119 78.1176 56.2676ZM41.5833 56.2676C43.698 56.1896 45.3426 54.3889 45.3426 52.2722V47.7851C45.3426 45.6606 43.698 43.8599 41.5833 43.7819C41.059 43.7628 40.5363 43.8495 40.0463 44.037C39.5564 44.2245 39.1093 44.5089 38.7318 44.8731C38.3542 45.2374 38.054 45.674 37.8491 46.1569C37.6442 46.6398 37.5387 47.1591 37.5391 47.6837V52.3658C37.5387 52.8904 37.6442 53.4097 37.8491 53.8926C38.054 54.3755 38.3542 54.8122 38.7318 55.1764C39.1093 55.5407 39.5564 55.825 40.0463 56.0125C40.5363 56.2 41.059 56.2868 41.5833 56.2676ZM52.5083 56.2676C54.623 56.1915 56.2676 54.3909 56.2676 52.2741V43.105C56.2676 40.9882 54.623 39.1876 52.5083 39.1115C51.985 39.0924 51.4632 39.1788 50.9741 39.3655C50.4849 39.5523 50.0383 39.8356 49.661 40.1986C49.2836 40.5616 48.9831 40.9968 48.7775 41.4784C48.5719 41.9599 48.4653 42.4779 48.4641 43.0016V52.3658C48.4637 52.8904 48.5692 53.4097 48.7741 53.8926C48.979 54.3755 49.2792 54.8122 49.6568 55.1764C50.0343 55.5407 50.4814 55.825 50.9713 56.0125C51.4613 56.2 51.984 56.2868 52.5083 56.2676ZM67.1926 43.0016C67.193 42.477 67.0875 41.9577 66.8826 41.4748C66.6777 40.9918 66.3775 40.5552 65.9999 40.191C65.6224 39.8267 65.1753 39.5424 64.6854 39.3549C64.1954 39.1674 63.6727 39.0806 63.1484 39.0998C61.0337 39.1778 59.3891 40.9785 59.3891 43.0952V46.9033H66.4123C66.6192 46.9033 66.8177 46.8211 66.9641 46.6748C67.1104 46.5284 67.1926 46.3299 67.1926 46.123V43.0016Z" fill="white"/>
</svg>
