<svg width="115" height="115" viewBox="0 0 115 115" fill="none" xmlns="http://www.w3.org/2000/svg">
<circle cx="57.5" cy="57.5" r="57" fill="#6A5CAB" stroke="#A69DCD"/>
<path d="M49.0787 55.9688C49.0787 54.3031 49.5727 52.6748 50.4981 51.2898C51.4235 49.9049 52.7388 48.8254 54.2777 48.188C55.8166 47.5505 57.5099 47.3838 59.1436 47.7087C60.7773 48.0337 62.2779 48.8358 63.4558 50.0136C64.6336 51.1914 65.4357 52.6921 65.7606 54.3257C66.0856 55.9594 65.9188 57.6528 65.2814 59.1917C64.644 60.7306 63.5645 62.0459 62.1795 62.9713C60.7946 63.8967 59.1663 64.3906 57.5006 64.3906C55.267 64.3906 53.1248 63.5033 51.5454 61.9239C49.966 60.3445 49.0787 58.2024 49.0787 55.9688ZM73.2265 66.9134C72.8854 66.7153 72.4823 66.6529 72.0972 66.7383C71.7121 66.8238 71.3732 67.0509 71.1479 67.3747C70.8179 67.8292 70.4653 68.2668 70.0913 68.6858C68.9773 67.0688 67.5618 65.682 65.9225 64.6012C65.7827 64.5085 65.6163 64.4643 65.4489 64.4754C65.2816 64.4864 65.1225 64.5522 64.9961 64.6624C62.9159 66.4624 60.2571 67.4531 57.5063 67.4531C54.7555 67.4531 52.0967 66.4624 50.0166 64.6624C49.8893 64.5494 49.728 64.4821 49.5582 64.471C49.3883 64.4599 49.2196 64.5057 49.0787 64.6012C47.4391 65.6799 46.0229 67.0648 44.908 68.6801C42.5167 65.9948 41.0512 62.6124 40.7277 59.0313H43.6753C43.9232 59.0352 44.1684 58.9803 44.391 58.8712C44.6136 58.7621 44.8071 58.6018 44.9558 58.4035C45.1716 58.1085 45.2747 57.7461 45.2467 57.3817C45.2186 57.0174 45.0611 56.6751 44.8027 56.4167L40.209 51.8229C40.0667 51.6805 39.8979 51.5676 39.712 51.4905C39.5261 51.4135 39.3268 51.3738 39.1256 51.3738C38.9244 51.3738 38.7251 51.4135 38.5392 51.4905C38.3533 51.5676 38.1844 51.6805 38.0422 51.8229L33.4485 56.4167C33.1901 56.6751 33.0326 57.0174 33.0045 57.3817C32.9764 57.7461 33.0796 58.1085 33.2954 58.4035C33.4441 58.6018 33.6376 58.7621 33.8602 58.8712C34.0828 58.9803 34.328 59.0352 34.5759 59.0313H37.6518C37.9649 63.1023 39.5224 66.9785 42.113 70.1345C44.7036 73.2905 48.202 75.5735 52.134 76.674C56.0659 77.7745 60.2412 77.6393 64.0937 76.2867C67.9462 74.9341 71.2896 72.4296 73.6706 69.1126C73.7934 68.9416 73.8797 68.7471 73.924 68.5412C73.9682 68.3354 73.9696 68.1226 73.9279 67.9162C73.8862 67.7098 73.8024 67.5142 73.6818 67.3417C73.5611 67.1691 73.4061 67.0233 73.2265 66.9134ZM81.8838 56.9143C81.768 56.6345 81.5718 56.3953 81.32 56.227C81.0682 56.0587 80.7722 55.9688 80.4693 55.9688H77.3494C77.0362 51.8977 75.4788 48.0215 72.8882 44.8655C70.2976 41.7096 66.7991 39.4266 62.8672 38.3261C58.9353 37.2255 54.76 37.3607 50.9075 38.7133C47.055 40.0659 43.7116 42.5705 41.3306 45.8874C41.0935 46.2174 40.9972 46.628 41.0629 47.0289C41.1286 47.4299 41.3509 47.7883 41.6809 48.0254C42.0108 48.2625 42.4215 48.3588 42.8224 48.2931C43.2234 48.2274 43.5818 48.0051 43.8189 47.6751C45.8221 44.886 48.6299 42.7759 51.8661 41.6273C55.1023 40.4788 58.6122 40.3469 61.9255 41.2492C65.2387 42.1515 68.1971 44.0449 70.404 46.6757C72.611 49.3066 73.9611 52.5491 74.2735 55.9688H71.2818C70.9788 55.9685 70.6825 56.0582 70.4305 56.2264C70.1785 56.3947 69.982 56.6339 69.866 56.9139C69.75 57.1938 69.7197 57.5019 69.7789 57.7991C69.8381 58.0963 69.9841 58.3692 70.1985 58.5834L74.7922 63.1771C74.9344 63.3195 75.1033 63.4324 75.2892 63.5095C75.4751 63.5866 75.6744 63.6262 75.8756 63.6262C76.0768 63.6262 76.2761 63.5866 76.462 63.5095C76.6479 63.4324 76.8167 63.3195 76.959 63.1771L81.5527 58.5834C81.7668 58.3691 81.9125 58.0962 81.9715 57.7991C82.0304 57.502 81.9999 57.1941 81.8838 56.9143Z" fill="white"/>
</svg>
