<svg width="175" height="175" viewBox="0 0 175 175" fill="none" xmlns="http://www.w3.org/2000/svg">
<circle cx="87.5" cy="87.5" r="87.5" fill="#F9F9F9"/>
<path d="M118.875 85.6251V88.0001C118.875 92.0639 118.073 96.0877 116.514 99.8408C114.956 103.594 112.672 107.002 109.793 109.871C106.914 112.739 103.498 115.011 99.7392 116.556C95.9806 118.102 91.954 118.89 87.8902 118.875C71.8589 118.819 58.7964 106.388 57.2764 90.7372C57.2599 90.5334 57.2964 90.3287 57.3823 90.143C57.4681 89.9574 57.6005 89.7971 57.7666 89.6776C57.9326 89.5581 58.1267 89.4836 58.33 89.4612C58.5333 89.4388 58.739 89.4693 58.927 89.5497C61.0632 90.4465 63.4332 90.6236 65.6789 90.0542C67.9247 89.4849 69.9241 88.2001 71.375 86.394C72.3257 87.5762 73.5177 88.5421 74.8714 89.2269C76.2251 89.9118 77.7094 90.2999 79.2251 90.3654C80.7408 90.4309 82.253 90.1722 83.6608 89.6066C85.0685 89.041 86.3393 88.1816 87.3884 87.0857C88.3499 88.6476 89.657 89.968 91.2092 90.945C89.4725 92.2738 88.0653 93.9848 87.0969 95.9454C86.1284 97.906 85.6248 100.063 85.625 102.25C85.6238 102.579 85.6912 102.905 85.8228 103.207C85.9544 103.509 86.1474 103.781 86.3894 104.004C86.6315 104.227 86.9173 104.398 87.2288 104.505C87.5404 104.612 87.8707 104.653 88.1989 104.625C88.8016 104.56 89.3585 104.273 89.7609 103.82C90.1632 103.366 90.3822 102.779 90.375 102.173C90.3954 99.6667 91.4052 97.2701 93.1846 95.5052C94.964 93.7403 97.3688 92.75 99.875 92.75C100.201 92.7508 100.523 92.6845 100.822 92.5555C101.121 92.4264 101.39 92.2372 101.613 91.9998C101.835 91.7623 102.007 91.4815 102.116 91.175C102.226 90.8684 102.272 90.5426 102.25 90.2177C102.197 89.6072 101.915 89.0394 101.461 88.6282C101.006 88.2169 100.414 87.9925 99.8008 88.0001H97.5C95.6103 88.0001 93.7981 87.2494 92.4619 85.9132C91.1257 84.577 90.375 82.7647 90.375 80.8751V76.1251H109.375C111.895 76.1251 114.311 77.1259 116.093 78.9075C117.874 80.6891 118.875 83.1055 118.875 85.6251ZM63.2792 85.6251C66.4973 85.5063 69 82.7661 69 79.545V72.7169C69 69.484 66.4973 66.7438 63.2792 66.6251C62.4815 66.5959 61.686 66.7279 60.9404 67.0133C60.1949 67.2986 59.5145 67.7313 58.94 68.2856C58.3655 68.8399 57.9086 69.5043 57.5968 70.2392C57.2849 70.974 57.1245 71.7643 57.125 72.5626V79.6876C57.1245 80.4859 57.2849 81.2761 57.5968 82.0109C57.9086 82.7458 58.3655 83.4102 58.94 83.9645C59.5145 84.5188 60.1949 84.9515 60.9404 85.2368C61.686 85.5222 62.4815 85.6542 63.2792 85.6251ZM79.9042 85.6251C83.1223 85.5093 85.625 82.7691 85.625 79.548V65.5949C85.625 62.3738 83.1223 59.6336 79.9042 59.5179C79.108 59.4888 78.314 59.6203 77.5696 59.9045C76.8252 60.1887 76.1456 60.6198 75.5714 61.1722C74.9971 61.7246 74.5399 62.3869 74.227 63.1197C73.9141 63.8525 73.7519 64.6408 73.75 65.4376V79.6876C73.7495 80.4859 73.9099 81.2761 74.2218 82.0109C74.5336 82.7458 74.9905 83.4102 75.565 83.9645C76.1395 84.5188 76.8199 84.9515 77.5654 85.2368C78.311 85.5222 79.1065 85.6542 79.9042 85.6251ZM102.25 65.4376C102.251 64.6393 102.09 63.849 101.778 63.1142C101.466 62.3793 101.01 61.7149 100.435 61.1606C99.8605 60.6063 99.1801 60.1736 98.4346 59.8883C97.689 59.6029 96.8936 59.4709 96.0958 59.5001C92.8777 59.6188 90.375 62.359 90.375 65.5801V71.3751H101.062C101.377 71.3751 101.679 71.2499 101.902 71.0272C102.125 70.8045 102.25 70.5025 102.25 70.1876V65.4376Z" fill="#343330"/>
</svg>
