<svg width="175" height="175" viewBox="0 0 175 175" fill="none" xmlns="http://www.w3.org/2000/svg">
<circle cx="87.5" cy="87.5" r="87.5" fill="#F9F9F9"/>
<path d="M74.9384 85.625C74.9384 83.0415 75.7045 80.516 77.1399 78.3679C78.5752 76.2198 80.6153 74.5455 83.0021 73.5568C85.389 72.5682 88.0154 72.3095 90.5493 72.8135C93.0832 73.3175 95.4107 74.5616 97.2375 76.3884C99.0643 78.2152 100.308 80.5428 100.812 83.0766C101.316 85.6105 101.058 88.237 100.069 90.6238C99.0804 93.0107 97.4062 95.0508 95.2581 96.4861C93.1099 97.9214 90.5844 98.6875 88.0009 98.6875C84.5365 98.6875 81.214 97.3113 78.7643 94.8616C76.3146 92.4119 74.9384 89.0894 74.9384 85.625ZM112.392 102.6C111.863 102.293 111.238 102.196 110.641 102.329C110.043 102.461 109.518 102.814 109.168 103.316C108.656 104.021 108.109 104.699 107.529 105.349C105.802 102.841 103.606 100.69 101.063 99.0141C100.847 98.8703 100.589 98.8018 100.329 98.8189C100.069 98.8361 99.8226 98.938 99.6265 99.1091C96.4002 101.901 92.2764 103.437 88.0098 103.437C83.7433 103.437 79.6194 101.901 76.3931 99.1091C76.1957 98.9338 75.9455 98.8293 75.6821 98.8121C75.4186 98.7949 75.157 98.866 74.9384 99.0141C72.3953 100.687 70.1988 102.835 68.4695 105.34C64.7605 101.176 62.4876 95.9294 61.9858 90.375H66.5576C66.9421 90.3811 67.3225 90.296 67.6677 90.1267C68.0129 89.9575 68.3131 89.7089 68.5437 89.4013C68.8784 88.9438 69.0384 88.3817 68.9948 87.8166C68.9513 87.2514 68.707 86.7205 68.3062 86.3197L61.1812 79.1947C60.9607 78.9739 60.6987 78.7987 60.4104 78.6792C60.1221 78.5597 59.813 78.4981 59.5009 78.4981C59.1888 78.4981 58.8798 78.5597 58.5914 78.6792C58.3031 78.7987 58.0412 78.9739 57.8206 79.1947L50.6956 86.3197C50.2948 86.7205 50.0506 87.2514 50.007 87.8166C49.9635 88.3817 50.1235 88.9438 50.4581 89.4013C50.6887 89.7089 50.989 89.9575 51.3342 90.1267C51.6794 90.296 52.0598 90.3811 52.4442 90.375H57.215C57.7007 96.6892 60.1164 102.701 64.1345 107.596C68.1526 112.491 73.5787 116.032 79.6772 117.739C85.7757 119.446 92.2516 119.236 98.2269 117.139C104.202 115.041 109.388 111.156 113.081 106.011C113.271 105.746 113.405 105.444 113.474 105.125C113.543 104.806 113.545 104.476 113.48 104.156C113.415 103.836 113.285 103.532 113.098 103.265C112.911 102.997 112.671 102.771 112.392 102.6ZM125.82 87.0916C125.64 86.6576 125.336 86.2866 124.945 86.0255C124.555 85.7645 124.096 85.6251 123.626 85.625H118.787C118.301 79.3108 115.885 73.2986 111.867 68.4037C107.849 63.5087 102.423 59.9677 96.3246 58.2608C90.2261 56.5539 83.7502 56.7636 77.7749 58.8615C71.7996 60.9594 66.6139 64.844 62.9209 69.9886C62.5532 70.5004 62.4039 71.1373 62.5058 71.7592C62.6077 72.3811 62.9524 72.937 63.4642 73.3047C63.976 73.6724 64.6129 73.8217 65.2348 73.7198C65.8567 73.618 66.4126 73.2732 66.7803 72.7614C69.8873 68.4355 74.2423 65.1625 79.2617 63.3812C84.2811 61.5998 89.725 61.3952 94.864 62.7946C100.003 64.1941 104.591 67.1309 108.014 71.2113C111.437 75.2918 113.532 80.321 114.016 85.625H109.376C108.906 85.6246 108.446 85.7637 108.055 86.0247C107.665 86.2856 107.36 86.6567 107.18 87.0909C107 87.5251 106.953 88.0029 107.045 88.4639C107.137 88.9248 107.363 89.3482 107.696 89.6803L114.821 96.8053C115.041 97.0261 115.303 97.2013 115.591 97.3208C115.88 97.4404 116.189 97.5019 116.501 97.5019C116.813 97.5019 117.122 97.4404 117.41 97.3208C117.699 97.2013 117.961 97.0261 118.181 96.8053L125.306 89.6803C125.638 89.348 125.864 88.9247 125.956 88.4639C126.047 88.0031 126 87.5255 125.82 87.0916Z" fill="#343330"/>
</svg>
