<svg width="115" height="115" viewBox="0 0 115 115" fill="none" xmlns="http://www.w3.org/2000/svg">
<circle cx="57.5" cy="57.5" r="57" fill="#6A5CAB" stroke="#A69DCD"/>
<path d="M74.1875 40.8125H39.8125C38.9837 40.8125 38.1888 41.1417 37.6028 41.7278C37.0167 42.3138 36.6875 43.1087 36.6875 43.9375V72.0625C36.6875 72.8913 37.0167 73.6862 37.6028 74.2722C38.1888 74.8583 38.9837 75.1875 39.8125 75.1875H74.1875C75.0163 75.1875 75.8112 74.8583 76.3972 74.2722C76.9833 73.6862 77.3125 72.8913 77.3125 72.0625V43.9375C77.3125 43.1087 76.9833 42.3138 76.3972 41.7278C75.8112 41.1417 75.0163 40.8125 74.1875 40.8125ZM71.0625 70.5H42.9375C42.5231 70.5 42.1257 70.3354 41.8326 70.0424C41.5396 69.7493 41.375 69.3519 41.375 68.9375V47.0625C41.375 46.6481 41.5396 46.2507 41.8326 45.9576C42.1257 45.6646 42.5231 45.5 42.9375 45.5C43.3519 45.5 43.7493 45.6646 44.0424 45.9576C44.3354 46.2507 44.5 46.6481 44.5 47.0625V62.041L51.207 55.332C51.3521 55.1868 51.5245 55.0715 51.7142 54.9929C51.9038 54.9142 52.1072 54.8738 52.3125 54.8738C52.5178 54.8738 52.7212 54.9142 52.9108 54.9929C53.1005 55.0715 53.2729 55.1868 53.418 55.332L57 58.916L65.7285 50.1875H61.6875C61.2731 50.1875 60.8757 50.0229 60.5826 49.7299C60.2896 49.4368 60.125 49.0394 60.125 48.625C60.125 48.2106 60.2896 47.8132 60.5826 47.5201C60.8757 47.2271 61.2731 47.0625 61.6875 47.0625H69.5C69.9144 47.0625 70.3118 47.2271 70.6049 47.5201C70.8979 47.8132 71.0625 48.2106 71.0625 48.625V56.4375C71.0625 56.8519 70.8979 57.2493 70.6049 57.5424C70.3118 57.8354 69.9144 58 69.5 58C69.0856 58 68.6882 57.8354 68.3951 57.5424C68.1021 57.2493 67.9375 56.8519 67.9375 56.4375V52.3965L58.1055 62.2305C57.9604 62.3757 57.788 62.491 57.5983 62.5696C57.4087 62.6483 57.2053 62.6887 57 62.6887C56.7947 62.6887 56.5913 62.6483 56.4017 62.5696C56.212 62.491 56.0396 62.3757 55.8945 62.2305L52.3125 58.6465L44.5 66.459V67.375H71.0625C71.4769 67.375 71.8743 67.5396 72.1674 67.8326C72.4604 68.1257 72.625 68.5231 72.625 68.9375C72.625 69.3519 72.4604 69.7493 72.1674 70.0424C71.8743 70.3354 71.4769 70.5 71.0625 70.5Z" fill="white"/>
</svg>
