<svg width="231" height="147" viewBox="0 0 231 147" fill="none" xmlns="http://www.w3.org/2000/svg">
<circle cx="163.637" cy="73.0401" r="64.9723" stroke="black" stroke-width="3.76651"/>
<circle cx="72.992" cy="73.3419" r="68.8592" transform="rotate(-90 72.992 73.3419)" fill="white"/>
<path d="M192.711 72.7104L180.591 60.5901C178.189 58.1887 178.328 54.2547 180.892 52.028L181.047 51.8929C183.281 49.9531 186.634 50.071 188.726 52.163V52.163C190.927 54.3636 190.927 57.9314 188.726 60.132L169.15 79.7088C165.284 83.574 165.284 89.8406 169.15 93.7057L171.716 96.2718C174.164 98.7197 178.132 98.7197 180.58 96.2718V96.2718C183.028 93.8239 183.028 89.855 180.58 87.4071L153.17 59.9966C151.044 57.8708 151.044 54.4242 153.17 52.2984V52.2984C155.296 50.1725 158.742 50.1725 160.868 52.2984V52.2984C162.994 54.4242 162.994 57.8708 160.868 59.9966L141.156 79.7088C137.291 83.574 137.291 89.8406 141.156 93.7057L143.722 96.2718C146.17 98.7197 150.139 98.7197 152.587 96.2718V96.2718C155.035 93.8239 155.035 89.855 152.587 87.4071L140.17 74.9907C136.32 71.1408 134.157 65.9192 134.157 60.4747V56.1475" stroke="black" stroke-width="3.42145" stroke-linecap="round"/>
<path d="M83.1651 7.90043L83.0662 8.96554L77.4101 8.44057L76.9652 13.2336L81.7399 13.6767L81.641 14.7418L76.8664 14.2987L76.3176 20.2119L75.0321 20.0926L76.2235 7.25614L83.1651 7.90043Z" fill="black"/>
<path d="M89.2985 14.0294C89.7375 13.4998 90.2812 13.1457 90.9297 12.967C91.59 12.7916 92.3292 12.8164 93.1472 13.0414L92.7901 14.3395L92.4523 14.2466C91.5513 13.9988 90.7613 14.0429 90.0823 14.3789C89.4032 14.715 88.9072 15.452 88.5941 16.5901L87.1023 22.0138L85.8575 21.6714L88.5282 11.9621L89.773 12.3045L89.2985 14.0294Z" fill="black"/>
<path d="M104.346 23.3566C104.144 23.7503 103.979 24.0454 103.85 24.242L96.4184 20.4247C96.1029 21.1196 95.9692 21.7835 96.0173 22.4164C96.0654 23.0493 96.2655 23.6152 96.6175 24.1139C96.9751 24.6017 97.4383 24.9916 98.007 25.2838C98.7507 25.6658 99.4668 25.8055 100.155 25.703C100.855 25.6062 101.444 25.2936 101.922 24.7654L103.136 25.389C102.468 26.1516 101.63 26.6264 100.622 26.8134C99.6298 26.9951 98.5926 26.8078 97.5098 26.2517C96.6677 25.8191 96.0086 25.2456 95.5324 24.531C95.0619 23.8055 94.8122 23 94.7833 22.1143C94.771 21.2234 95.0036 20.3131 95.4811 19.3835C95.9586 18.4538 96.5631 17.7345 97.2945 17.2256C98.0259 16.7166 98.8207 16.4476 99.6788 16.4184C100.537 16.3892 101.393 16.5938 102.246 17.0319C103.099 17.4701 103.747 18.0381 104.19 18.7358C104.645 19.4391 104.878 20.195 104.891 21.0034C104.921 21.8066 104.739 22.591 104.346 23.3566ZM103.198 22.7255C103.552 22.0639 103.707 21.425 103.665 20.8086C103.633 20.1979 103.438 19.6487 103.08 19.1609C102.723 18.6731 102.26 18.2831 101.691 17.991C100.838 17.5528 99.97 17.4526 99.0876 17.6905C98.2052 17.9283 97.4755 18.5281 96.8987 19.4896L103.198 22.7255Z" fill="black"/>
<path d="M107.635 33.1303C106.75 32.3874 106.194 31.5763 105.969 30.6971C105.761 29.8164 105.92 28.9952 106.447 28.2335L107.464 29.087C107.148 29.5598 107.054 30.0829 107.183 30.6564C107.329 31.2284 107.708 31.7712 108.32 32.2849C108.857 32.7354 109.383 32.96 109.898 32.9586C110.422 32.9651 110.842 32.78 111.158 32.4032C111.379 32.1395 111.476 31.8518 111.449 31.54C111.422 31.2282 111.316 30.9145 111.131 30.599C110.964 30.282 110.706 29.8813 110.358 29.3968C109.91 28.764 109.571 28.2221 109.339 27.7711C109.108 27.32 108.987 26.8418 108.978 26.3365C108.986 25.8296 109.2 25.3266 109.618 24.8274C109.935 24.4506 110.34 24.197 110.835 24.0664C111.33 23.9359 111.863 23.9503 112.436 24.1097C113.008 24.2691 113.558 24.5701 114.086 25.0126C114.914 25.7081 115.405 26.4812 115.558 27.3318C115.719 28.173 115.51 28.9768 114.931 29.743L113.942 28.9132C114.293 28.4374 114.419 27.9246 114.318 27.3748C114.235 26.8236 113.911 26.3108 113.346 25.8366C112.847 25.4177 112.343 25.1956 111.835 25.1703C111.326 25.1449 110.926 25.3065 110.633 25.655C110.38 25.9564 110.261 26.281 110.273 26.629C110.304 26.9754 110.408 27.3198 110.586 27.662C110.773 27.9948 111.041 28.4207 111.392 28.9399C111.821 29.5569 112.141 30.0743 112.352 30.4922C112.564 30.9101 112.672 31.3544 112.679 31.8252C112.685 32.2959 112.503 32.7612 112.133 33.2212C111.785 33.6357 111.36 33.9128 110.857 34.0528C110.363 34.1834 109.834 34.1729 109.271 34.0214C108.708 33.8699 108.162 33.5729 107.635 33.1303Z" fill="black"/>
<path d="M123.682 35.1655C124.139 35.7753 124.421 36.4171 124.526 37.0909C124.639 37.7745 124.534 38.4532 124.209 39.127C123.902 39.8032 123.369 40.4254 122.612 40.9934L117.89 44.5344L117.127 43.5164L121.73 40.0639C122.606 39.4073 123.109 38.6844 123.239 37.895C123.377 37.1155 123.162 36.347 122.593 35.5896C122.011 34.8126 121.3 34.3773 120.461 34.2839C119.623 34.1904 118.727 34.5015 117.773 35.2171L113.376 38.5146L112.601 37.4818L123.519 29.2932L124.294 30.326L120.059 33.5019C120.733 33.3961 121.387 33.4896 122.022 33.7822C122.664 34.0847 123.217 34.5458 123.682 35.1655Z" fill="black"/>
<path d="M113.157 112.482L117.04 108.087L115.49 105.217L116.394 104.194L122.817 116.144L121.852 117.236L109.214 112.321L110.117 111.298L113.157 112.482ZM114.215 112.9L121.124 115.609L117.585 109.086L114.215 112.9Z" fill="black"/>
<path d="M108.61 125.455C107.826 125.986 107.02 126.265 106.192 126.293C105.363 126.32 104.632 126.14 103.998 125.752L105.23 127.569L104.162 128.293L98.3643 119.746C97.8467 118.983 97.5556 118.192 97.4911 117.374C97.4165 116.563 97.5672 115.8 97.9435 115.084C98.3128 114.358 98.874 113.74 99.6269 113.229C100.695 112.505 101.758 112.155 102.816 112.181C103.863 112.213 104.77 112.608 105.536 113.366L104.483 114.081C103.906 113.625 103.246 113.396 102.503 113.396C101.749 113.402 101.001 113.657 100.258 114.16C99.7191 114.526 99.3152 114.971 99.0465 115.495C98.771 116.009 98.663 116.572 98.7224 117.186C98.7819 117.799 99.0186 118.411 99.4327 119.021L100.83 121.082C100.708 120.333 100.81 119.573 101.134 118.803C101.456 118.05 102.008 117.408 102.792 116.877C103.555 116.359 104.363 116.071 105.215 116.013C106.057 115.962 106.871 116.145 107.659 116.562C108.436 116.985 109.115 117.624 109.695 118.479C110.275 119.334 110.614 120.196 110.713 121.064C110.809 121.95 110.674 122.77 110.308 123.523C109.939 124.293 109.373 124.937 108.61 125.455ZM102.404 123.402C102.859 124.074 103.397 124.571 104.017 124.893C104.637 125.215 105.279 125.352 105.944 125.302C106.598 125.259 107.21 125.045 107.78 124.658C108.37 124.258 108.809 123.767 109.098 123.185C109.387 122.603 109.496 121.964 109.426 121.269C109.352 120.591 109.08 119.906 108.611 119.214C108.149 118.532 107.609 118.022 106.993 117.682C106.373 117.36 105.736 117.22 105.081 117.263C104.434 117.316 103.815 117.542 103.225 117.942C102.655 118.329 102.229 118.818 101.947 119.411C101.656 120.01 101.545 120.657 101.615 121.352C101.685 122.047 101.948 122.73 102.404 123.402Z" fill="black"/>
<path d="M98.9307 132.776C99.1677 132.674 99.4075 132.671 99.6499 132.767C99.8923 132.863 100.067 133.035 100.174 133.284C100.282 133.532 100.285 133.772 100.184 134.003C100.087 134.245 99.9208 134.418 99.6837 134.52C99.4467 134.623 99.2069 134.626 98.9645 134.529C98.727 134.444 98.5546 134.278 98.4473 134.03C98.3401 133.781 98.3346 133.536 98.4308 133.293C98.527 133.051 98.6936 132.879 98.9307 132.776ZM97.585 131.288L93.5932 122.043L94.7784 121.532L98.7703 130.776L97.585 131.288Z" fill="black"/>
<path d="M91.5606 137.207L87.6924 124.119L88.9304 123.753L92.7986 136.841L91.5606 137.207Z" fill="black"/>
<path d="M74.3989 131.907C74.3512 131.467 74.327 131.129 74.3263 130.894L82.6323 129.994C82.5135 129.24 82.26 128.612 81.8717 128.11C81.4833 127.608 81.005 127.246 80.4367 127.023C79.8697 126.812 79.2684 126.741 78.6328 126.81C77.8016 126.9 77.1267 127.178 76.6081 127.642C76.0773 128.108 75.7573 128.693 75.6481 129.397L74.2913 129.544C74.4298 128.54 74.8687 127.682 75.6079 126.971C76.3362 126.274 77.3054 125.86 78.5156 125.729C79.4568 125.627 80.3227 125.743 81.1134 126.078C81.9054 126.425 82.5571 126.96 83.0684 127.684C83.5687 128.421 83.8752 129.309 83.9878 130.348C84.1004 131.387 83.9913 132.321 83.6604 133.148C83.3296 133.975 82.8139 134.637 82.1133 135.134C81.4127 135.63 80.5856 135.93 79.6322 136.033C78.6787 136.136 77.825 136.019 77.071 135.68C76.3048 135.342 75.6938 134.84 75.238 134.172C74.7713 133.517 74.4916 132.762 74.3989 131.907ZM75.7047 131.802C75.7733 132.549 75.995 133.168 76.3697 133.66C76.7323 134.152 77.1971 134.504 77.7641 134.714C78.331 134.925 78.9323 134.996 79.568 134.927C80.5214 134.824 81.3012 134.43 81.9073 133.746C82.5133 133.062 82.7928 132.16 82.7456 131.039L75.7047 131.802Z" fill="black"/>
<path d="M59.5774 124.279C60.3971 124.498 61.0837 124.834 61.6372 125.287C62.1788 125.737 62.5596 126.265 62.7797 126.871C62.9997 127.477 63.0376 128.098 62.8933 128.734L61.5746 128.382C61.677 127.76 61.5524 127.154 61.2009 126.564C60.8462 125.986 60.2115 125.575 59.2968 125.331C58.4533 125.105 57.731 125.142 57.1298 125.439C56.5136 125.746 56.1166 126.232 55.9391 126.897C55.7964 127.431 55.8188 127.896 56.0065 128.289C56.1909 128.695 56.4645 129.029 56.8271 129.291C57.1866 129.565 57.6974 129.892 58.3594 130.273C59.1307 130.72 59.7314 131.116 60.1614 131.46C60.5913 131.804 60.9183 132.247 61.1423 132.791C61.3663 133.334 61.3753 133.992 61.1692 134.764C60.998 135.405 60.6794 135.931 60.2136 136.341C59.7447 136.763 59.1692 137.036 58.4873 137.159C57.8053 137.283 57.0723 137.24 56.2883 137.031C55.136 136.723 54.2855 136.191 53.7368 135.433C53.1731 134.685 52.9567 133.851 53.0876 132.931L54.4418 133.293C54.3886 133.826 54.5473 134.352 54.9178 134.87C55.2852 135.401 55.8728 135.774 56.6806 135.99C57.429 136.19 58.1065 136.154 58.7133 135.884C59.3169 135.625 59.7106 135.151 59.8945 134.462C60.034 133.939 60.01 133.481 59.8224 133.087C59.6348 132.694 59.3612 132.36 59.0017 132.086C58.6303 131.808 58.1196 131.481 57.4694 131.104C56.7219 130.663 56.1287 130.262 55.6901 129.904C55.2482 129.557 54.9153 129.111 54.6913 128.568C54.4673 128.025 54.4567 127.373 54.6597 126.613C54.815 126.03 55.1169 125.519 55.5653 125.079C56.0137 124.639 56.5836 124.339 57.2751 124.18C57.9665 124.021 58.734 124.054 59.5774 124.279Z" fill="black"/>
<path d="M36.3747 124.835C35.3696 124.216 34.7497 123.394 34.5148 122.368C34.263 121.347 34.5078 120.234 35.2492 119.03L38.3439 114.005L39.4275 114.672L36.4102 119.572C35.8364 120.504 35.6231 121.354 35.7702 122.123C35.9174 122.893 36.3783 123.516 37.1531 123.993C37.9592 124.489 38.7675 124.619 39.5779 124.382C40.3883 124.144 41.1062 123.518 41.7315 122.502L44.5941 117.854L45.6777 118.521L42.6604 123.421C42.0866 124.353 41.8733 125.203 42.0204 125.972C42.1676 126.742 42.6338 127.368 43.419 127.852C44.2251 128.348 45.0334 128.478 45.8438 128.24C46.6542 128.003 47.372 127.376 47.9974 126.361L50.86 121.713L51.9593 122.39L46.679 130.964L45.5797 130.287L46.4888 128.811C45.8878 129.177 45.2522 129.342 44.582 129.304C43.9054 129.278 43.2583 129.074 42.6406 128.694C41.8973 128.236 41.3578 127.658 41.0221 126.96C40.676 126.256 40.59 125.481 40.7643 124.636C40.1149 125.174 39.4031 125.451 38.6291 125.465C37.8381 125.483 37.0866 125.273 36.3747 124.835Z" fill="black"/>
<path d="M32.3605 114.832C31.5766 115.504 30.7586 115.939 29.9066 116.135C29.0371 116.33 28.2076 116.289 27.418 116.01C26.611 115.73 25.9073 115.241 25.3069 114.541C24.6824 113.813 24.314 113.044 24.2017 112.233C24.0813 111.413 24.1823 110.662 24.5047 109.98L22.825 111.421L21.9844 110.441L29.6271 103.885L30.4677 104.865L28.774 106.318C29.5047 106.112 30.2709 106.127 31.0725 106.363C31.8567 106.597 32.5611 107.078 33.1856 107.806C33.778 108.496 34.1511 109.262 34.3048 110.102C34.4505 110.933 34.3609 111.763 34.0358 112.593C33.7028 113.413 33.1444 114.159 32.3605 114.832ZM26.6464 108.143C26.0305 108.671 25.5973 109.262 25.3469 109.914C25.0964 110.566 25.0334 111.22 25.1577 111.874C25.274 112.52 25.5563 113.104 26.0046 113.626C26.469 114.168 27.0066 114.549 27.6175 114.77C28.2284 114.991 28.8752 115.027 29.5579 114.879C30.2233 114.729 30.8733 114.382 31.5079 113.838C32.1331 113.302 32.5796 112.708 32.8474 112.057C33.0978 111.405 33.1649 110.756 33.0485 110.11C32.9229 109.473 32.6279 108.884 32.1636 108.343C31.7153 107.82 31.181 107.452 30.5608 107.239C29.9325 107.017 29.277 106.98 28.5943 107.128C27.9116 107.276 27.2622 107.615 26.6464 108.143Z" fill="black"/>
<path d="M19.4177 102.74C18.7319 102.793 18.0993 102.648 17.52 102.307C16.9348 101.954 16.4387 101.406 16.0316 100.661L17.2129 100.015L17.381 100.323C17.8293 101.143 18.4103 101.68 19.124 101.934C19.8376 102.188 20.7123 102.032 21.7479 101.466L26.6833 98.7673L27.3027 99.9001L18.4675 104.731L17.8481 103.599L19.4177 102.74Z" fill="black"/>
<path d="M14.6752 93.9021L20.5612 91.7939C21.1399 91.5866 21.4999 91.3336 21.641 91.0349C21.7822 90.7362 21.7533 90.309 21.5543 89.7534L21.1562 88.6422L22.198 88.2691L22.6644 89.5713C22.9712 90.4278 23.0025 91.1349 22.7582 91.6926C22.5023 92.2544 21.9172 92.6991 21.0027 93.0266L15.1167 95.1349L15.5894 96.4544L14.565 96.8214L14.0923 95.5018L11.7136 96.3538L11.2721 95.121L13.6508 94.269L12.718 91.6646L13.7424 91.2977L14.6752 93.9021Z" fill="black"/>
<path d="M20.0446 71.3147L14.7219 74.6086L14.7678 76.9873L20.1521 76.8834L20.177 78.1741L7.28785 78.4229L7.21311 74.5506C7.18535 73.1124 7.50855 72.0178 8.18272 71.2669C8.85666 70.5038 9.75295 70.1114 10.8716 70.0898C11.8059 70.0718 12.6101 70.3268 13.2844 70.8549C13.9461 71.3709 14.3854 72.1494 14.6023 73.1905L20.0147 69.7657L20.0446 71.3147ZM13.7168 77.0076L13.6666 74.4076C13.6471 73.3996 13.3867 72.6483 12.8852 72.1538C12.3835 71.647 11.7209 71.4015 10.8972 71.4174C10.049 71.4338 9.40224 71.6922 8.95689 72.1927C8.49925 72.6935 8.28063 73.4724 8.30104 74.5296L8.35087 77.1112L13.7168 77.0076Z" fill="black"/>
<path d="M17.0672 55.3954C17.4989 55.4933 17.8259 55.58 18.0483 55.6556L16.2021 63.8037C16.9537 63.9361 17.63 63.9003 18.231 63.6961C18.832 63.4918 19.3302 63.1572 19.7255 62.692C20.1089 62.2242 20.3712 61.6785 20.5125 61.055C20.6972 60.2395 20.6542 59.5112 20.3835 58.8699C20.1155 58.2167 19.6661 57.7241 19.0354 57.392L19.3369 56.061C20.2419 56.5182 20.9105 57.2118 21.3427 58.1418C21.7657 59.0571 21.8427 60.1083 21.5737 61.2954C21.3645 62.2187 20.9732 63 20.3997 63.639C19.8143 64.2754 19.0963 64.7179 18.2458 64.9664C17.3859 65.2002 16.4464 65.2016 15.4271 64.9707C14.4079 64.7398 13.5607 64.3335 12.8856 63.7519C12.2106 63.1703 11.7521 62.4676 11.5101 61.6437C11.2681 60.8199 11.2531 59.9403 11.465 59.005C11.677 58.0696 12.0656 57.3004 12.6309 56.6973C13.1989 56.0822 13.8727 55.6676 14.6524 55.4534C15.4229 55.2246 16.2278 55.2052 17.0672 55.3954ZM16.7419 56.6644C16.0131 56.4866 15.3556 56.4952 14.7693 56.6902C14.1858 56.8731 13.7023 57.1985 13.319 57.6664C12.9356 58.1342 12.6733 58.6799 12.532 59.3035C12.3201 60.2388 12.4392 61.1041 12.8893 61.8995C13.3395 62.6949 14.102 63.2522 15.1769 63.5714L16.7419 56.6644Z" fill="black"/>
<path d="M12.0217 46.4147L24.5513 51.8249L24.0395 53.0101L11.5099 47.5999L12.0217 46.4147Z" fill="black"/>
<path d="M16.7692 40.7378C16.6395 40.9611 16.4486 41.1061 16.1965 41.173C15.9444 41.2398 15.7013 41.2053 15.4674 41.0695C15.2335 40.9336 15.0885 40.7427 15.0323 40.4968C14.9654 40.2446 14.9969 40.007 15.1265 39.7837C15.2562 39.5604 15.4471 39.4154 15.6992 39.3485C15.9407 39.2755 16.1784 39.3069 16.4123 39.4428C16.6462 39.5786 16.7966 39.7726 16.8634 40.0247C16.9303 40.2768 16.8988 40.5145 16.7692 40.7378ZM18.736 41.1338L27.4435 46.1915L26.7951 47.3079L18.0876 42.2501L18.736 41.1338Z" fill="black"/>
<path d="M25.8344 39.0432C25.053 38.3678 24.5019 37.6234 24.1811 36.8099C23.8591 35.9791 23.7771 35.1526 23.9352 34.3304C24.092 33.4909 24.4719 32.7223 25.0748 32.0246C25.7019 31.299 26.408 30.8204 27.1932 30.5889C27.9863 30.3481 28.7438 30.3365 29.4658 30.5542L27.7913 29.107L28.6355 28.1302L36.2543 34.7147L35.4101 35.6915L33.7217 34.2323C34.0336 34.9244 34.1325 35.6843 34.0185 36.512C33.9031 37.3224 33.5319 38.0904 32.9048 38.816C32.3099 39.5043 31.6084 39.9869 30.8005 40.2637C30.0005 40.5311 29.1662 40.5658 28.2975 40.3675C27.4368 40.1599 26.6158 39.7185 25.8344 39.0432ZM31.6007 32.3993C30.9867 31.8686 30.3387 31.5279 29.6565 31.3771C28.9743 31.2263 28.3187 31.261 27.6896 31.4811C27.0686 31.692 26.533 32.0578 26.0828 32.5788C25.6165 33.1183 25.3194 33.7066 25.1914 34.3435C25.0634 34.9805 25.1235 35.6255 25.3716 36.2787C25.6183 36.9145 26.058 37.5058 26.6906 38.0524C27.3139 38.5911 27.9672 38.9445 28.6507 39.1127C29.3329 39.2635 29.9845 39.2335 30.6055 39.0226C31.2172 38.8037 31.7562 38.4245 32.2225 37.885C32.6727 37.364 32.9571 36.7811 33.0758 36.1361C33.2025 35.4818 33.1418 34.8281 32.8938 34.1749C32.6457 33.5218 32.2147 32.9299 31.6007 32.3993Z" fill="black"/>
<path d="M36.1657 24.6823C36.0442 23.9164 36.1428 23.1564 36.4614 22.4024C36.7902 21.6415 37.3453 20.9939 38.1269 20.4596C38.8882 19.9392 39.6897 19.6519 40.5314 19.5978C41.3662 19.5335 42.1731 19.7117 42.9521 20.1323C43.7344 20.5359 44.4169 21.1639 44.9998 22.0166C45.5826 22.8692 45.9236 23.7382 46.0225 24.6238C46.1317 25.5024 46.0031 26.3275 45.637 27.0991C45.281 27.8637 44.7274 28.5028 43.9763 29.0162C43.1846 29.5575 42.378 29.8482 41.5566 29.8885C40.7384 29.9116 39.9996 29.7241 39.3402 29.326L40.5892 31.153L39.5386 31.8712L31.8365 20.6045L32.8871 19.8863L36.1657 24.6823ZM43.9188 22.7555C43.4469 22.0653 42.904 21.5652 42.2899 21.2552C41.6791 20.9281 41.05 20.7922 40.4027 20.8475C39.7554 20.9028 39.1374 21.1316 38.5486 21.5341C37.9802 21.9226 37.5512 22.417 37.2615 23.0172C36.9819 23.6104 36.8786 24.2545 36.9514 24.9494C37.0243 25.6442 37.2898 26.3266 37.7477 26.9965C38.2057 27.6664 38.7452 28.1615 39.3662 28.4816C39.9872 28.8018 40.6248 28.9393 41.279 28.8942C41.9434 28.8421 42.5599 28.6218 43.1283 28.2332C43.717 27.8308 44.1546 27.338 44.4411 26.7549C44.7206 26.1616 44.8189 25.5211 44.7359 24.8331C44.656 24.1281 44.3837 23.4356 43.9188 22.7555Z" fill="black"/>
<path d="M46.8496 11.8649L52.3065 24.3742L51.1232 24.8904L45.6663 12.3811L46.8496 11.8649Z" fill="black"/>
<path d="M64.8267 14.949C64.9262 15.3803 64.9902 15.7125 65.0187 15.9457L56.8777 17.8229C57.0849 18.5574 57.4111 19.151 57.8561 19.6035C58.3012 20.0561 58.819 20.3594 59.4097 20.5134C59.9977 20.6554 60.6031 20.6546 61.2261 20.5109C62.0408 20.3231 62.6782 19.9679 63.1381 19.4455C63.61 18.9203 63.8585 18.3015 63.8835 17.5891L65.2134 17.2824C65.1948 18.2962 64.8606 19.1997 64.2107 19.9931C63.5701 20.7717 62.6567 21.2977 61.4706 21.5712C60.5481 21.784 59.6745 21.7709 58.8497 21.5321C58.0222 21.2813 57.3117 20.8268 56.7183 20.1687C56.1342 19.4959 55.7247 18.6503 55.4899 17.6319C55.255 16.6135 55.2529 15.674 55.4834 14.8133C55.714 13.9526 56.1477 13.2343 56.7846 12.6584C57.4215 12.0825 58.2072 11.6869 59.1417 11.4714C60.0762 11.2559 60.9379 11.2717 61.7267 11.5188C62.5275 11.7632 63.1937 12.19 63.7254 12.7992C64.2662 13.3937 64.6333 14.1103 64.8267 14.949ZM63.5425 15.2072C63.3859 14.4736 63.0925 13.8852 62.6622 13.4418C62.2439 12.9957 61.7408 12.7016 61.1528 12.5596C60.5649 12.4176 59.9594 12.4184 59.3364 12.5621C58.4019 12.7776 57.6743 13.2608 57.1534 14.0118C56.6326 14.7628 56.462 15.6917 56.6415 16.7985L63.5425 15.2072Z" fill="black"/>
<path d="M66.2459 54.9931V72.5234H63.064V58.7033L58.8495 60.0961V57.5266L65.8857 54.9931H66.2459ZM83.2124 62.2814V65.2231C83.2124 66.5679 83.0763 67.7166 82.8042 68.6692C82.532 69.6217 82.1398 70.4022 81.6275 71.0105C81.1152 71.6109 80.5028 72.0552 79.7904 72.3433C79.078 72.6235 78.2855 72.7636 77.413 72.7636C76.7166 72.7636 76.0682 72.6755 75.4678 72.4994C74.8675 72.3153 74.3271 72.0351 73.8469 71.6589C73.3746 71.2747 72.9663 70.7864 72.6221 70.1941C72.2859 69.6017 72.0258 68.8933 71.8417 68.0688C71.6656 67.2443 71.5775 66.2958 71.5775 65.2231V62.2814C71.5775 60.9366 71.7136 59.7919 71.9858 58.8474C72.2659 57.9028 72.6622 57.1303 73.1745 56.53C73.6868 55.9296 74.2991 55.4934 75.0115 55.2212C75.724 54.941 76.5164 54.801 77.389 54.801C78.0934 54.801 78.7418 54.889 79.3341 55.0651C79.9345 55.2412 80.4708 55.5174 80.9431 55.8936C81.4233 56.2618 81.8316 56.7421 82.1678 57.3345C82.504 57.9188 82.7601 58.6232 82.9362 59.4477C83.1203 60.2642 83.2124 61.2087 83.2124 62.2814ZM80.0425 65.6554V61.8371C80.0425 61.1647 80.0025 60.5804 79.9225 60.0841C79.8504 59.5798 79.7423 59.1515 79.5983 58.7993C79.4542 58.4471 79.2741 58.1629 79.0579 57.9468C78.8418 57.7227 78.5937 57.5586 78.3135 57.4545C78.0333 57.3505 77.7252 57.2984 77.389 57.2984C76.9727 57.2984 76.6005 57.3825 76.2723 57.5506C75.9441 57.7107 75.6679 57.9668 75.4438 58.319C75.2197 58.6712 75.0476 59.1395 74.9275 59.7239C74.8154 60.3002 74.7594 61.0046 74.7594 61.8371V65.6554C74.7594 66.3278 74.7954 66.9161 74.8675 67.4204C74.9475 67.9247 75.0596 68.357 75.2037 68.7172C75.3558 69.0774 75.5359 69.3736 75.744 69.6057C75.9601 69.8298 76.2083 69.9979 76.4884 70.11C76.7686 70.2141 77.0768 70.2661 77.413 70.2661C77.8372 70.2661 78.2094 70.1821 78.5296 70.014C78.8578 69.8459 79.134 69.5817 79.3581 69.2215C79.5823 68.8533 79.7504 68.377 79.8624 67.7926C79.9825 67.2003 80.0425 66.4879 80.0425 65.6554Z" fill="black"/>
<path d="M62.0554 89.525L65.5375 77.9741H68.9355L63.7244 92.935C63.6043 93.2552 63.4482 93.6034 63.2561 93.9796C63.072 94.3558 62.8239 94.712 62.5117 95.0482C62.1995 95.3924 61.8073 95.6726 61.335 95.8887C60.8707 96.1049 60.3064 96.2129 59.642 96.2129C59.3538 96.2129 59.0977 96.1929 58.8735 96.1529C58.6494 96.1129 58.4133 96.0608 58.1651 95.9968V93.6194C58.2452 93.6274 58.3372 93.6314 58.4413 93.6314C58.5533 93.6394 58.6494 93.6434 58.7294 93.6434C59.1937 93.6434 59.5779 93.5874 59.8821 93.4753C60.1863 93.3712 60.4304 93.1991 60.6146 92.959C60.8067 92.7269 60.9668 92.4227 61.0948 92.0465L62.0554 89.525ZM60.3384 77.9741L63.2801 87.5438L63.7964 90.8938L61.6111 91.29L56.9164 77.9741H60.3384ZM73.1504 80.6277V90.9658H69.9806V77.9741H72.9824L73.1504 80.6277ZM77.1008 77.8901L77.0528 80.8438C76.8767 80.8118 76.6765 80.7878 76.4524 80.7718C76.2363 80.7558 76.0322 80.7478 75.84 80.7478C75.3518 80.7478 74.9235 80.8158 74.5553 80.9519C74.1871 81.08 73.8789 81.2681 73.6307 81.5162C73.3906 81.7644 73.2065 82.0686 73.0784 82.4288C72.9503 82.781 72.8783 83.1812 72.8623 83.6295L72.1779 83.5454C72.1779 82.7209 72.2619 81.9565 72.43 81.2521C72.5981 80.5477 72.8423 79.9313 73.1625 79.403C73.4826 78.8747 73.8829 78.4664 74.3632 78.1783C74.8515 77.8821 75.4118 77.734 76.0442 77.734C76.2203 77.734 76.4084 77.75 76.6085 77.782C76.8166 77.806 76.9807 77.8421 77.1008 77.8901ZM85.4942 87.4117C85.4942 87.1396 85.4222 86.8954 85.2781 86.6793C85.134 86.4632 84.8619 86.267 84.4616 86.0909C84.0694 85.9068 83.493 85.7347 82.7326 85.5746C82.0602 85.4305 81.4398 85.2504 80.8715 85.0343C80.3032 84.8182 79.8149 84.558 79.4066 84.2539C78.9984 83.9417 78.6782 83.5775 78.4461 83.1612C78.2219 82.737 78.1099 82.2487 78.1099 81.6963C78.1099 81.16 78.2259 80.6557 78.4581 80.1834C78.6902 79.7032 79.0264 79.2829 79.4667 78.9227C79.9069 78.5545 80.4432 78.2663 81.0756 78.0582C81.708 77.8421 82.4204 77.734 83.2129 77.734C84.3175 77.734 85.2661 77.9141 86.0586 78.2743C86.859 78.6345 87.4714 79.1308 87.8956 79.7632C88.3199 80.3876 88.532 81.092 88.532 81.8764H85.3622C85.3622 81.5322 85.2821 81.2201 85.122 80.9399C84.9699 80.6597 84.7338 80.4356 84.4136 80.2675C84.0934 80.0914 83.6892 80.0033 83.2009 80.0033C82.7606 80.0033 82.3884 80.0754 82.0842 80.2195C81.788 80.3636 81.5639 80.5517 81.4118 80.7838C81.2597 81.0159 81.1837 81.2721 81.1837 81.5523C81.1837 81.7604 81.2237 81.9485 81.3038 82.1166C81.3918 82.2767 81.5319 82.4248 81.724 82.5608C81.9161 82.6969 82.1763 82.821 82.5045 82.9331C82.8407 83.0451 83.2529 83.1532 83.7412 83.2573C84.7098 83.4494 85.5543 83.7055 86.2747 84.0257C87.0031 84.3379 87.5715 84.7541 87.9797 85.2745C88.3879 85.7948 88.5921 86.4592 88.5921 87.2676C88.5921 87.844 88.468 88.3723 88.2198 88.8526C87.9717 89.3248 87.6115 89.7371 87.1392 90.0893C86.6669 90.4415 86.1026 90.7177 85.4462 90.9178C84.7898 91.1099 84.0494 91.206 83.2249 91.206C82.0322 91.206 81.0236 90.9938 80.1991 90.5696C79.3746 90.1373 78.7502 89.593 78.326 88.9366C77.9017 88.2722 77.6896 87.5838 77.6896 86.8714H80.7274C80.7514 87.3757 80.8875 87.7799 81.1357 88.0841C81.3838 88.3883 81.696 88.6084 82.0722 88.7445C82.4564 88.8726 82.8607 88.9366 83.2849 88.9366C83.7652 88.9366 84.1694 88.8726 84.4976 88.7445C84.8258 88.6084 85.074 88.4283 85.2421 88.2042C85.4102 87.972 85.4942 87.7079 85.4942 87.4117Z" fill="black"/>
</svg>
