<svg width="610" height="610" viewBox="0 0 610 610" fill="none" xmlns="http://www.w3.org/2000/svg">
<circle cx="305" cy="305" r="305" fill="#2D1F4C"/>
<path d="M451.922 295.62L390.987 234.711C378.909 222.638 379.605 202.855 392.501 191.66L393.283 190.981C404.511 181.235 421.363 181.827 431.879 192.338V192.338C442.947 203.402 442.947 221.344 431.879 232.408L333.464 330.78C314.024 350.212 314.024 381.727 333.464 401.16L346.362 414.052C358.667 426.351 378.612 426.351 390.917 414.052V414.052C403.229 401.744 403.229 381.785 390.917 369.478L253.108 231.727C242.415 221.04 242.415 203.706 253.108 193.019V193.019C263.794 182.337 281.114 182.337 291.8 193.019V193.019C302.492 203.706 302.492 221.04 291.8 231.727L192.705 330.78C173.265 350.212 173.265 381.727 192.705 401.16L205.603 414.052C217.908 426.351 237.853 426.351 250.158 414.052V414.052C262.47 401.744 262.47 381.785 250.158 369.478L191.167 310.512C169.611 288.966 157.5 259.737 157.5 229.259V212.373" stroke="white" stroke-width="28.0264" stroke-linecap="round"/>
</svg>
