<svg width="84" height="70" viewBox="0 0 84 70" fill="none" xmlns="http://www.w3.org/2000/svg">
<path d="M80 32.4768L64.2707 16.7541C61.1529 13.6376 61.3325 8.53077 64.6615 5.64099L64.8633 5.4658C67.7616 2.94994 72.1118 3.10292 74.8262 5.81617V5.81617C77.6832 8.67203 77.6832 13.3036 74.8262 16.1595L49.4221 41.5527C44.4038 46.5689 44.4038 54.7039 49.4221 59.7201L52.7514 63.048C55.9277 66.2229 61.0761 66.223 64.2525 63.048V63.048C67.4307 59.8711 67.4307 54.7189 64.2525 51.542L28.6793 15.9838C25.9192 13.225 25.9192 8.75067 28.6793 5.99178V5.99178C31.4377 3.23456 35.9087 3.23456 38.6671 5.99179V5.99179C41.4271 8.75067 41.4271 13.225 38.6671 15.9838L13.0873 41.5527C8.06903 46.5689 8.06903 54.7039 13.0873 59.7201L16.4166 63.048C19.5929 66.2229 24.7414 66.223 27.9177 63.048V63.048C31.096 59.8711 31.096 54.7189 27.9177 51.542L12.6901 36.3209C7.12593 30.759 3.99977 23.2141 3.99977 15.3467V10.9878" stroke="#897AE6" stroke-width="7.23457" stroke-linecap="round"/>
</svg>
