<svg width="80" height="66" viewBox="0 0 80 66" fill="none" xmlns="http://www.w3.org/2000/svg">
<path d="M75.7422 30.7143L60.8936 15.872C57.9503 12.93 58.1199 8.10911 61.2625 5.38113L61.453 5.21575C64.189 2.84076 68.2956 2.98517 70.858 5.5465V5.5465C73.5551 8.24246 73.5551 12.6147 70.858 15.3106L46.8764 39.2821C42.1391 44.0174 42.1391 51.6969 46.8764 56.4322L50.0193 59.5737C53.0178 62.571 57.8779 62.571 60.8764 59.5737V59.5737C63.8767 56.5747 63.8767 51.711 60.8764 48.712L27.295 15.1449C24.6895 12.5405 24.6895 8.31669 27.295 5.71228V5.71228C29.899 3.10944 34.1197 3.10944 36.7236 5.71228V5.71228C39.3291 8.31669 39.3291 12.5405 36.7236 15.1449L12.5761 39.2821C7.83883 44.0174 7.83883 51.6969 12.5761 56.4322L15.719 59.5737C18.7175 62.571 23.5776 62.571 26.5761 59.5737V59.5737C29.5764 56.5747 29.5764 51.711 26.5761 48.712L12.2012 34.3431C6.94851 29.0927 3.99741 21.9703 3.99741 14.5434V10.4286" stroke="#897AE6" stroke-width="6.82948" stroke-linecap="round"/>
</svg>
