<svg width="1727" height="539" viewBox="0 0 1727 539" fill="none" xmlns="http://www.w3.org/2000/svg">
<g clip-path="url(#clip0_118_3480)">
<path d="M1393 270.036L1182.1 59.229C1140.3 17.4434 1142.71 -51.0285 1187.34 -89.7743L1190.05 -92.1232C1228.91 -125.856 1287.24 -123.804 1323.63 -87.4255V-87.4255C1361.94 -49.1345 1361.94 12.9648 1323.63 51.2559L983.016 391.725C915.732 458.981 915.731 568.055 983.016 635.311L1027.65 679.93C1070.24 722.5 1139.27 722.5 1181.86 679.93V679.93C1224.47 637.335 1224.47 568.255 1181.86 525.659L704.899 48.9012C667.893 11.9105 667.893 -48.0801 704.899 -85.0709V-85.0709C741.883 -122.039 801.83 -122.039 838.814 -85.0709V-85.0709C875.821 -48.0801 875.821 11.9104 838.814 48.9012L495.845 391.725C428.56 458.981 428.56 568.055 495.845 635.311L540.483 679.93C583.071 722.5 652.1 722.5 694.688 679.93V679.93C737.302 637.335 737.302 568.255 694.688 525.659L490.519 321.577C415.915 247.004 374 145.843 374 40.3591V-18.0848" stroke="#897AE6" stroke-width="97" stroke-linecap="round"/>
</g>
<defs>
<clipPath id="clip0_118_3480">
<rect width="1728" height="539" fill="white"/>
</clipPath>
</defs>
</svg>
