<svg width="331" height="78" viewBox="0 0 331 78" fill="none" xmlns="http://www.w3.org/2000/svg">
<path d="M110.832 56.3698H117.82V21.316H110.832V17.2039H123.83C127.089 17.2039 130.032 17.4052 132.658 17.8078C135.284 18.2104 137.815 18.9005 140.25 19.8782C142.857 20.9135 145.033 22.2267 146.777 23.8178C148.522 25.409 149.921 27.4315 150.976 29.8854C152.049 32.4351 152.586 35.3299 152.586 38.5697C152.586 41.5987 152.145 44.3401 151.263 46.794C150.401 49.2479 149.164 51.3279 147.554 53.0341C145.963 54.7019 144.007 56.1014 141.688 57.2325C139.387 58.3636 136.837 59.1879 134.038 59.7055C131.259 60.2231 128.21 60.4819 124.894 60.4819H110.832V56.3698ZM124.606 56.3698C127.099 56.3698 129.313 56.1973 131.249 55.8522C133.204 55.4879 135.054 54.9032 136.799 54.0981C138.62 53.2546 140.125 52.1618 141.314 50.8199C142.521 49.4779 143.47 47.7909 144.161 45.7588C144.87 43.7075 145.225 41.3112 145.225 38.5697C145.225 36.576 145.033 34.7452 144.649 33.0773C144.266 31.4095 143.729 29.9717 143.039 28.7639C142.368 27.6136 141.525 26.5976 140.509 25.7157C139.492 24.8147 138.4 24.0862 137.23 23.5303C136.118 23.0127 134.853 22.5909 133.435 22.265C132.016 21.9199 130.578 21.6803 129.121 21.5461C127.741 21.4311 126.236 21.3736 124.606 21.3736V56.3698ZM172.995 61.2583C170.694 61.2583 168.576 60.827 166.64 59.9643C164.704 59.0825 163.103 57.8747 161.838 56.341C160.591 54.8457 159.633 53.1587 158.962 51.28C158.31 49.4012 157.984 47.4554 157.984 45.4425C157.984 43.6979 158.186 42.0109 158.588 40.3814C159.01 38.7519 159.623 37.247 160.428 35.8667C162.192 32.8569 164.55 30.796 167.503 29.6841C169.055 29.0898 170.771 28.7926 172.65 28.7926C174.605 28.7926 176.427 29.1377 178.114 29.8279C179.801 30.518 181.277 31.5149 182.542 32.8185C183.826 34.1605 184.833 35.8475 185.561 37.8796C186.309 39.9117 186.702 42.1643 186.74 44.6373H164.569V44.8673C164.569 48.2031 165.279 51.0116 166.697 53.2929C167.407 54.4431 168.356 55.3442 169.544 55.996C170.733 56.6286 172.084 56.9449 173.599 56.9449C174.941 56.9449 176.235 56.667 177.481 56.111C178.746 55.5359 179.839 54.7115 180.759 53.638C181.698 52.5452 182.369 51.2704 182.772 49.8134L186.136 50.8774C185.638 52.9862 184.785 54.8266 183.577 56.3986C182.369 57.9514 180.865 59.1496 179.062 59.9931C177.26 60.8366 175.238 61.2583 172.995 61.2583ZM180.414 41.5316C180.376 39.7104 180.011 38.1001 179.321 36.7006C178.65 35.282 177.74 34.1796 176.589 33.3936C175.458 32.6076 174.203 32.2146 172.822 32.2146C171.423 32.2146 170.138 32.6076 168.969 33.3936C167.8 34.1796 166.841 35.282 166.093 36.7006C165.365 38.1001 164.924 39.7104 164.771 41.5316H180.414ZM206.948 61.2583C204.647 61.2583 202.529 60.827 200.593 59.9643C198.657 59.0825 197.056 57.8747 195.791 56.341C194.544 54.8457 193.586 53.1587 192.915 51.28C192.263 49.4012 191.937 47.4554 191.937 45.4425C191.937 43.6979 192.138 42.0109 192.541 40.3814C192.963 38.7519 193.576 37.247 194.381 35.8667C196.145 32.8569 198.503 30.796 201.455 29.6841C203.008 29.0898 204.724 28.7926 206.603 28.7926C208.558 28.7926 210.379 29.1377 212.066 29.8279C213.754 30.518 215.23 31.5149 216.495 32.8185C217.779 34.1605 218.786 35.8475 219.514 37.8796C220.262 39.9117 220.655 42.1643 220.693 44.6373H198.522V44.8673C198.522 48.2031 199.232 51.0116 200.65 53.2929C201.36 54.4431 202.309 55.3442 203.497 55.996C204.686 56.6286 206.037 56.9449 207.552 56.9449C208.894 56.9449 210.188 56.667 211.434 56.111C212.699 55.5359 213.792 54.7115 214.712 53.638C215.651 52.5452 216.322 51.2704 216.725 49.8134L220.089 50.8774C219.591 52.9862 218.738 54.8266 217.53 56.3986C216.322 57.9514 214.818 59.1496 213.015 59.9931C211.213 60.8366 209.191 61.2583 206.948 61.2583ZM214.367 41.5316C214.329 39.7104 213.964 38.1001 213.274 36.7006C212.603 35.282 211.693 34.1796 210.542 33.3936C209.411 32.6076 208.156 32.2146 206.775 32.2146C205.376 32.2146 204.091 32.6076 202.922 33.3936C201.753 34.1796 200.794 35.282 200.046 36.7006C199.318 38.1001 198.877 39.7104 198.724 41.5316H214.367ZM222.238 68.5624H228.996V32.8473H223.417V29.6266L235.006 28.7926V34.5726C236.041 32.6939 237.354 31.2657 238.945 30.288C240.556 29.2911 242.367 28.7926 244.38 28.7926C246.758 28.7926 248.895 29.5116 250.793 30.9494C252.691 32.368 254.167 34.3234 255.221 36.8156C256.237 39.2886 256.746 42.0109 256.746 44.9824C256.746 48.1647 256.209 50.9924 255.135 53.4654C254.062 55.9193 252.538 57.8364 250.563 59.2167C248.588 60.5778 246.288 61.2583 243.661 61.2583C241.955 61.2583 240.355 60.8558 238.859 60.0506C237.383 59.2262 236.156 58.0952 235.178 56.6574V68.5049H241.534V72.0132H222.238V68.5624ZM242.54 58.0089C243.844 58.0089 245.003 57.6255 246.019 56.8587C247.036 56.0727 247.841 55.0087 248.435 53.6667C249.585 51.0212 250.16 48.0113 250.16 44.6373C250.16 42.4518 249.873 40.4676 249.298 38.6848C248.723 36.8827 247.85 35.397 246.681 34.2276C245.492 33.039 244.112 32.4447 242.54 32.4447C241.025 32.4447 239.674 32.991 238.485 34.0838C237.316 35.1573 236.405 36.6623 235.754 38.5985C235.102 40.5347 234.776 42.7298 234.776 45.1837C234.776 48.366 235.37 51.232 236.559 53.7817C237.153 55.0854 237.968 56.1206 239.003 56.8874C240.057 57.6351 241.236 58.0089 242.54 58.0089ZM259.958 60.4819V56.3698H265.134L280.289 17.2039H287.104L302.489 56.3698H307.32V60.4819H288.714V56.3698H295.127L291.13 45.9888H274.509L270.742 56.3698H277.988V60.4819H259.958ZM275.86 42.3368H289.692L282.589 22.8401L275.86 42.3368ZM309.267 60.4819V56.3698H316.283V21.316H309.267V17.2039H329.655V21.316H323.041V56.3698H329.655V60.4819H309.267Z" fill="#ADACAC"/>
<path d="M9.95628 55.3196V45.8306H0.515625V55.3196H9.95628Z" fill="#ADACAC"/>
<path d="M79.4995 37.4281C79.5716 40.253 79.2833 43.078 78.7788 45.903C77.842 50.6837 76.0403 55.2472 73.518 59.3036C70.3471 64.374 65.9511 68.5753 60.8344 71.6176C55.1412 74.9496 48.5832 76.688 42.0251 76.5432C35.8275 76.4707 29.7019 74.8047 24.2969 71.69C19.3243 68.865 15.1445 64.8086 11.9736 60.1003C11.8295 59.883 11.7574 59.7382 11.6133 59.5209C12.406 60.6074 13.6311 61.549 14.6401 62.4183C15.7931 63.3599 17.0903 64.2292 18.3875 64.9535C21.126 66.4747 24.0807 67.4163 27.1795 67.7785C27.9002 67.8509 28.6209 67.9234 29.2695 67.9234C34.9627 68.1407 40.6559 66.4022 45.2681 62.9253C46.4932 62.0561 47.5742 61.042 48.5832 59.883C51.7541 56.4061 53.9881 51.9876 54.7808 47.3517C55.1412 45.2511 55.2853 43.078 55.0691 40.9774C55.0691 40.6876 54.5646 37.4281 54.5646 37.4281C54.5646 37.4281 56.2942 36.5588 59.1048 36.5588C64.5818 36.5588 71.9326 42.571 72.2929 49.6696C72.1488 45.4684 71.0678 41.5569 69.122 38.1524C68.4734 36.921 67.6807 35.762 66.8159 34.7479C62.2036 28.9531 55.1412 25.1865 47.1418 25.1865C45.0519 25.1865 43.0341 25.4038 41.0883 25.9108C40.9442 25.9833 40.728 25.9833 40.5838 26.0557C37.485 26.8525 34.8185 28.1563 31.0711 30.8364C29.1974 32.1403 25.3779 35.5447 22.4232 38.2248C20.8377 39.6736 18.3875 38.1524 18.892 36.1242C19.3243 34.2409 20.045 32.0678 21.126 29.7499C15.1445 21.9993 15.0004 12.9449 26.6751 4.90455C33.5214 0.19625 44.7637 -1.10759 55.1412 2.73149C61.6271 -0.60054 70.5633 -0.890281 78.8509 8.01928C79.6436 8.8885 79.0671 10.4096 77.842 10.4096C75.4638 10.4821 72.2208 11.0616 69.6985 12.9449C70.0588 13.3795 70.3471 13.7417 70.7074 14.1763C75.8962 20.9852 79.2833 28.9531 79.4995 37.4281Z" fill="#ADACAC"/>
</svg>
