<svg width="77" height="77" viewBox="0 0 77 77" fill="none" xmlns="http://www.w3.org/2000/svg">
<path d="M32.6562 39.2319H70.0704V76.646" stroke="#ADACAC" stroke-width="13.3622"/>
<path d="M51.3633 0.481934L51.3633 27.2063" stroke="#ADACAC" stroke-width="13.3622"/>
<path d="M70.0703 0.481934L70.0703 27.2063" stroke="#ADACAC" stroke-width="13.3622"/>
<path d="M75.4141 37.896C75.4141 45.2958 73.2198 52.5295 69.1087 58.6822C64.9976 64.8349 59.1543 69.6304 52.3178 72.4622C45.4813 75.2939 37.9585 76.0349 30.7009 74.5912C23.4433 73.1476 16.7767 69.5843 11.5443 64.3518C6.31182 59.1193 2.74847 52.4528 1.30484 45.1952C-0.138792 37.9375 0.602132 30.4148 3.43392 23.5783C6.2657 16.7417 11.0612 10.8985 17.2139 6.78735C23.3666 2.67623 30.6002 0.481934 38 0.481934V16.0575C33.6808 16.0575 29.4585 17.3383 25.8672 19.7379C22.2759 22.1376 19.4767 25.5483 17.8238 29.5388C16.1709 33.5293 15.7385 37.9203 16.5811 42.1565C17.4237 46.3928 19.5037 50.2841 22.5578 53.3382C25.612 56.3924 29.5033 58.4723 33.7395 59.315C37.9758 60.1576 42.3668 59.7252 46.3573 58.0722C50.3478 56.4193 53.7585 53.6202 56.1581 50.0289C58.5578 46.4376 59.8386 42.2153 59.8386 37.896H75.4141Z" fill="#ADACAC"/>
</svg>
