<svg width="880" height="653" viewBox="0 0 880 653" fill="none" xmlns="http://www.w3.org/2000/svg">
<path d="M56.9604 12.6953V130H41.6528V12.6953H56.9604ZM94.6655 12.6953V25.4248H4.02832V12.6953H94.6655ZM121.417 6.25V130H106.512V6.25H121.417ZM117.872 83.1104L111.668 82.8687C111.722 76.9067 112.608 71.4014 114.327 66.3525C116.046 61.25 118.463 56.8188 121.578 53.0591C124.693 49.2993 128.399 46.3989 132.696 44.3579C137.047 42.2632 141.854 41.2158 147.117 41.2158C151.414 41.2158 155.282 41.8066 158.719 42.9883C162.157 44.1162 165.084 45.9424 167.501 48.4668C169.971 50.9912 171.851 54.2676 173.14 58.2959C174.429 62.2705 175.074 67.1313 175.074 72.8784V130H160.089V72.7173C160.089 68.1519 159.417 64.4995 158.075 61.7603C156.732 58.9673 154.771 56.9531 152.193 55.7178C149.615 54.4287 146.446 53.7842 142.686 53.7842C138.98 53.7842 135.596 54.563 132.535 56.1206C129.527 57.6782 126.922 59.8267 124.72 62.5659C122.572 65.3052 120.88 68.4473 119.644 71.9922C118.463 75.4834 117.872 79.1895 117.872 83.1104ZM230.265 131.611C224.196 131.611 218.691 130.591 213.749 128.55C208.861 126.455 204.645 123.528 201.1 119.768C197.609 116.008 194.923 111.55 193.044 106.394C191.164 101.238 190.224 95.5981 190.224 89.4751V86.0913C190.224 79.0015 191.271 72.6904 193.366 67.1582C195.461 61.5723 198.307 56.8457 201.906 52.9785C205.504 49.1113 209.587 46.1841 214.152 44.1968C218.717 42.2095 223.444 41.2158 228.332 41.2158C234.562 41.2158 239.933 42.29 244.445 44.4385C249.01 46.5869 252.743 49.5947 255.644 53.4619C258.544 57.2754 260.692 61.7871 262.089 66.9971C263.485 72.1533 264.184 77.793 264.184 83.916V90.603H199.086V78.4375H249.279V77.3096C249.064 73.4424 248.258 69.6826 246.862 66.0303C245.519 62.3779 243.371 59.3701 240.417 57.0068C237.462 54.6436 233.434 53.4619 228.332 53.4619C224.948 53.4619 221.833 54.187 218.986 55.6372C216.139 57.0337 213.695 59.1284 211.654 61.9214C209.613 64.7144 208.029 68.125 206.901 72.1533C205.773 76.1816 205.209 80.8276 205.209 86.0913V89.4751C205.209 93.6108 205.773 97.5049 206.901 101.157C208.083 104.756 209.775 107.925 211.977 110.664C214.233 113.403 216.945 115.552 220.114 117.109C223.337 118.667 226.989 119.446 231.071 119.446C236.335 119.446 240.793 118.372 244.445 116.223C248.097 114.075 251.293 111.201 254.032 107.603L263.056 114.773C261.176 117.62 258.786 120.332 255.885 122.91C252.985 125.488 249.413 127.583 245.17 129.194C240.981 130.806 236.012 131.611 230.265 131.611ZM333.719 12.6953V130H318.17V12.6953H333.719ZM382.864 65.4663V78.1958H330.335V65.4663H382.864ZM390.841 12.6953V25.4248H330.335V12.6953H390.841ZM455.377 109.858V42.8271H470.363V130H456.103L455.377 109.858ZM458.197 91.4893L464.401 91.3281C464.401 97.1289 463.783 102.5 462.548 107.441C461.366 112.329 459.433 116.572 456.747 120.171C454.062 123.77 450.543 126.589 446.193 128.63C441.842 130.618 436.552 131.611 430.321 131.611C426.078 131.611 422.184 130.994 418.639 129.758C415.148 128.523 412.14 126.616 409.616 124.038C407.091 121.46 405.131 118.103 403.734 113.967C402.392 109.832 401.72 104.863 401.72 99.0625V42.8271H416.625V99.2236C416.625 103.145 417.055 106.394 417.914 108.972C418.827 111.497 420.036 113.511 421.54 115.015C423.097 116.465 424.816 117.485 426.696 118.076C428.629 118.667 430.617 118.962 432.658 118.962C438.996 118.962 444.018 117.754 447.724 115.337C451.43 112.866 454.088 109.563 455.7 105.427C457.365 101.238 458.197 96.5918 458.197 91.4893ZM526.279 42.8271V54.2676H479.148V42.8271H526.279ZM495.1 21.6382H510.005V108.408C510.005 111.362 510.461 113.591 511.374 115.095C512.287 116.599 513.469 117.593 514.919 118.076C516.369 118.56 517.927 118.801 519.592 118.801C520.827 118.801 522.117 118.694 523.459 118.479C524.856 118.21 525.903 117.996 526.601 117.834L526.682 130C525.5 130.376 523.943 130.725 522.009 131.047C520.129 131.423 517.846 131.611 515.161 131.611C511.509 131.611 508.152 130.886 505.09 129.436C502.029 127.986 499.585 125.569 497.759 122.185C495.986 118.748 495.1 114.128 495.1 108.328V21.6382ZM593.797 109.858V42.8271H608.782V130H594.522L593.797 109.858ZM596.617 91.4893L602.82 91.3281C602.82 97.1289 602.203 102.5 600.967 107.441C599.786 112.329 597.852 116.572 595.167 120.171C592.481 123.77 588.963 126.589 584.612 128.63C580.262 130.618 574.971 131.611 568.741 131.611C564.498 131.611 560.604 130.994 557.059 129.758C553.568 128.523 550.56 126.616 548.035 124.038C545.511 121.46 543.55 118.103 542.154 113.967C540.811 109.832 540.14 104.863 540.14 99.0625V42.8271H555.045V99.2236C555.045 103.145 555.474 106.394 556.334 108.972C557.247 111.497 558.455 113.511 559.959 115.015C561.517 116.465 563.235 117.485 565.115 118.076C567.049 118.667 569.036 118.962 571.077 118.962C577.415 118.962 582.437 117.754 586.143 115.337C589.849 112.866 592.508 109.563 594.119 105.427C595.784 101.238 596.617 96.5918 596.617 91.4893ZM643.107 56.5234V130H628.202V42.8271H642.704L643.107 56.5234ZM670.338 42.3438L670.258 56.2012C669.022 55.9326 667.841 55.7715 666.713 55.7178C665.639 55.6104 664.403 55.5566 663.007 55.5566C659.569 55.5566 656.535 56.0938 653.903 57.168C651.271 58.2422 649.042 59.7461 647.216 61.6797C645.39 63.6133 643.939 65.9229 642.865 68.6084C641.845 71.2402 641.173 74.1406 640.851 77.3096L636.661 79.7266C636.661 74.4629 637.172 69.5215 638.192 64.9023C639.266 60.2832 640.905 56.2012 643.107 52.6562C645.309 49.0576 648.102 46.2646 651.486 44.2773C654.923 42.2363 659.005 41.2158 663.732 41.2158C664.806 41.2158 666.041 41.3501 667.438 41.6187C668.834 41.8335 669.801 42.0752 670.338 42.3438ZM715.378 131.611C709.309 131.611 703.803 130.591 698.862 128.55C693.974 126.455 689.758 123.528 686.213 119.768C682.722 116.008 680.036 111.55 678.156 106.394C676.277 101.238 675.337 95.5981 675.337 89.4751V86.0913C675.337 79.0015 676.384 72.6904 678.479 67.1582C680.573 61.5723 683.42 56.8457 687.019 52.9785C690.617 49.1113 694.699 46.1841 699.265 44.1968C703.83 42.2095 708.557 41.2158 713.445 41.2158C719.675 41.2158 725.046 42.29 729.558 44.4385C734.123 46.5869 737.856 49.5947 740.757 53.4619C743.657 57.2754 745.805 61.7871 747.202 66.9971C748.598 72.1533 749.297 77.793 749.297 83.916V90.603H684.199V78.4375H734.392V77.3096C734.177 73.4424 733.371 69.6826 731.975 66.0303C730.632 62.3779 728.484 59.3701 725.529 57.0068C722.575 54.6436 718.547 53.4619 713.445 53.4619C710.061 53.4619 706.945 54.187 704.099 55.6372C701.252 57.0337 698.808 59.1284 696.767 61.9214C694.726 64.7144 693.142 68.125 692.014 72.1533C690.886 76.1816 690.322 80.8276 690.322 86.0913V89.4751C690.322 93.6108 690.886 97.5049 692.014 101.157C693.195 104.756 694.887 107.925 697.09 110.664C699.345 113.403 702.058 115.552 705.227 117.109C708.449 118.667 712.102 119.446 716.184 119.446C721.447 119.446 725.905 118.372 729.558 116.223C733.21 114.075 736.406 111.201 739.145 107.603L748.169 114.773C746.289 117.62 743.899 120.332 740.998 122.91C738.098 125.488 734.526 127.583 730.283 129.194C726.093 130.806 721.125 131.611 715.378 131.611ZM30.293 160.695V278H14.7437V160.695H30.293ZM103.773 254.877C103.773 252.729 103.289 250.742 102.323 248.916C101.409 247.036 99.5027 245.344 96.6023 243.84C93.7557 242.282 89.4588 240.939 83.7117 239.812C78.8777 238.791 74.5003 237.583 70.5794 236.186C66.7122 234.79 63.409 233.098 60.6697 231.11C57.9842 229.123 55.9163 226.787 54.4661 224.101C53.0159 221.416 52.2908 218.273 52.2908 214.675C52.2908 211.237 53.0428 207.988 54.5467 204.926C56.1043 201.865 58.2796 199.152 61.0726 196.789C63.9192 194.426 67.3299 192.573 71.3045 191.23C75.2791 189.887 79.7103 189.216 84.5979 189.216C91.5804 189.216 97.5423 190.451 102.484 192.922C107.425 195.393 111.212 198.696 113.844 202.832C116.475 206.914 117.791 211.452 117.791 216.447H102.887C102.887 214.03 102.161 211.694 100.711 209.438C99.3147 207.128 97.2469 205.222 94.5076 203.718C91.8221 202.214 88.5188 201.462 84.5979 201.462C80.4622 201.462 77.1053 202.106 74.5271 203.396C72.0027 204.631 70.1497 206.215 68.9681 208.149C67.8401 210.083 67.2762 212.124 67.2762 214.272C67.2762 215.883 67.5447 217.333 68.0818 218.623C68.6727 219.858 69.6932 221.013 71.1434 222.087C72.5936 223.107 74.6346 224.074 77.2664 224.987C79.8982 225.9 83.2552 226.813 87.3372 227.727C94.4808 229.338 100.362 231.271 104.981 233.527C109.6 235.783 113.038 238.549 115.294 241.826C117.55 245.102 118.678 249.077 118.678 253.75C118.678 257.563 117.872 261.054 116.261 264.223C114.703 267.392 112.42 270.131 109.412 272.441C106.458 274.697 102.913 276.469 98.7776 277.758C94.6956 278.994 90.1033 279.611 85.0008 279.611C77.3201 279.611 70.8211 278.242 65.5037 275.502C60.1863 272.763 56.158 269.218 53.4188 264.868C50.6795 260.517 49.3099 255.925 49.3099 251.091H64.2952C64.5101 255.173 65.6917 258.422 67.8401 260.839C69.9886 263.203 72.6204 264.895 75.7356 265.915C78.8509 266.882 81.9393 267.365 85.0008 267.365C89.0828 267.365 92.4935 266.828 95.2327 265.754C98.0257 264.68 100.147 263.203 101.597 261.323C103.048 259.443 103.773 257.294 103.773 254.877ZM218.264 171.088L179.431 278H163.559L208.274 160.695H218.506L218.264 171.088ZM250.813 278L211.899 171.088L211.658 160.695H221.89L266.765 278H250.813ZM248.799 234.575V247.304H182.895V234.575H248.799ZM276.839 154.25H291.824V261.081L290.535 278H276.839V154.25ZM350.718 233.688V235.38C350.718 241.718 349.966 247.6 348.463 253.024C346.959 258.396 344.757 263.068 341.856 267.043C338.956 271.018 335.411 274.106 331.221 276.308C327.032 278.51 322.225 279.611 316.8 279.611C311.268 279.611 306.407 278.671 302.217 276.792C298.082 274.858 294.591 272.092 291.744 268.493C288.897 264.895 286.614 260.544 284.896 255.441C283.231 250.339 282.076 244.592 281.431 238.2V230.788C282.076 224.343 283.231 218.569 284.896 213.466C286.614 208.364 288.897 204.013 291.744 200.415C294.591 196.762 298.082 193.996 302.217 192.116C306.353 190.183 311.16 189.216 316.639 189.216C322.117 189.216 326.978 190.29 331.221 192.438C335.465 194.533 339.009 197.541 341.856 201.462C344.757 205.383 346.959 210.083 348.463 215.561C349.966 220.986 350.718 227.028 350.718 233.688ZM335.733 235.38V233.688C335.733 229.338 335.33 225.256 334.525 221.442C333.719 217.575 332.43 214.191 330.657 211.291C328.885 208.337 326.549 206.027 323.648 204.362C320.748 202.644 317.176 201.784 312.933 201.784C309.173 201.784 305.897 202.429 303.104 203.718C300.364 205.007 298.028 206.752 296.094 208.955C294.161 211.103 292.576 213.574 291.341 216.367C290.159 219.106 289.273 221.953 288.682 224.907V244.323C289.542 248.083 290.938 251.708 292.872 255.2C294.859 258.637 297.491 261.457 300.767 263.659C304.097 265.861 308.206 266.962 313.094 266.962C317.122 266.962 320.56 266.157 323.406 264.545C326.307 262.88 328.643 260.598 330.416 257.697C332.242 254.797 333.585 251.44 334.444 247.626C335.303 243.813 335.733 239.731 335.733 235.38ZM362.323 235.38V233.527C362.323 227.243 363.236 221.416 365.062 216.044C366.889 210.62 369.521 205.92 372.958 201.945C376.396 197.917 380.558 194.802 385.446 192.6C390.333 190.344 395.812 189.216 401.881 189.216C408.004 189.216 413.51 190.344 418.397 192.6C423.339 194.802 427.528 197.917 430.966 201.945C434.457 205.92 437.116 210.62 438.942 216.044C440.768 221.416 441.681 227.243 441.681 233.527V235.38C441.681 241.665 440.768 247.492 438.942 252.863C437.116 258.234 434.457 262.934 430.966 266.962C427.528 270.937 423.366 274.052 418.478 276.308C413.644 278.51 408.166 279.611 402.042 279.611C395.919 279.611 390.414 278.51 385.526 276.308C380.639 274.052 376.449 270.937 372.958 266.962C369.521 262.934 366.889 258.234 365.062 252.863C363.236 247.492 362.323 241.665 362.323 235.38ZM377.228 233.527V235.38C377.228 239.731 377.738 243.84 378.759 247.707C379.779 251.521 381.31 254.904 383.351 257.858C385.446 260.812 388.051 263.149 391.166 264.868C394.281 266.533 397.907 267.365 402.042 267.365C406.125 267.365 409.696 266.533 412.758 264.868C415.873 263.149 418.451 260.812 420.492 257.858C422.533 254.904 424.064 251.521 425.084 247.707C426.159 243.84 426.696 239.731 426.696 235.38V233.527C426.696 229.23 426.159 225.175 425.084 221.362C424.064 217.495 422.506 214.084 420.412 211.13C418.371 208.122 415.792 205.759 412.677 204.04C409.616 202.321 406.017 201.462 401.881 201.462C397.799 201.462 394.201 202.321 391.085 204.04C388.024 205.759 385.446 208.122 383.351 211.13C381.31 214.084 379.779 217.495 378.759 221.362C377.738 225.175 377.228 229.23 377.228 233.527ZM510.408 257.858V190.827H525.393V278H511.133L510.408 257.858ZM513.227 239.489L519.431 239.328C519.431 245.129 518.813 250.5 517.578 255.441C516.396 260.329 514.463 264.572 511.777 268.171C509.092 271.77 505.574 274.589 501.223 276.63C496.872 278.618 491.582 279.611 485.351 279.611C481.108 279.611 477.214 278.994 473.669 277.758C470.178 276.523 467.17 274.616 464.646 272.038C462.121 269.46 460.161 266.103 458.764 261.967C457.422 257.832 456.75 252.863 456.75 247.062V190.827H471.655V247.224C471.655 251.145 472.085 254.394 472.944 256.972C473.857 259.497 475.066 261.511 476.57 263.015C478.127 264.465 479.846 265.485 481.726 266.076C483.659 266.667 485.647 266.962 487.688 266.962C494.026 266.962 499.048 265.754 502.754 263.337C506.46 260.866 509.118 257.563 510.73 253.427C512.395 249.238 513.227 244.592 513.227 239.489ZM581.309 190.827V202.268H534.178V190.827H581.309ZM550.13 169.638H565.035V256.408C565.035 259.362 565.491 261.591 566.404 263.095C567.318 264.599 568.499 265.593 569.949 266.076C571.4 266.56 572.957 266.801 574.622 266.801C575.858 266.801 577.147 266.694 578.489 266.479C579.886 266.21 580.933 265.996 581.631 265.834L581.712 278C580.53 278.376 578.973 278.725 577.039 279.047C575.159 279.423 572.877 279.611 570.191 279.611C566.539 279.611 563.182 278.886 560.12 277.436C557.059 275.986 554.615 273.569 552.789 270.185C551.016 266.748 550.13 262.128 550.13 256.328V169.638ZM80.7275 308.695H96.1963V388.053C96.1963 396.862 94.2358 404.193 90.3149 410.048C86.394 415.902 81.1841 420.307 74.6851 423.261C68.2397 426.161 61.2305 427.611 53.6572 427.611C45.708 427.611 38.5107 426.161 32.0654 423.261C25.6738 420.307 20.5981 415.902 16.8384 410.048C13.1323 404.193 11.2793 396.862 11.2793 388.053V308.695H26.6675V388.053C26.6675 394.176 27.7954 399.225 30.0513 403.2C32.3071 407.174 35.4492 410.128 39.4775 412.062C43.5596 413.996 48.2861 414.962 53.6572 414.962C59.082 414.962 63.8086 413.996 67.8369 412.062C71.9189 410.128 75.0879 407.174 77.3438 403.2C79.5996 399.225 80.7275 394.176 80.7275 388.053V308.695ZM165.809 402.877C165.809 400.729 165.325 398.742 164.359 396.916C163.446 395.036 161.539 393.344 158.638 391.84C155.792 390.282 151.495 388.939 145.748 387.812C140.914 386.791 136.536 385.583 132.616 384.186C128.748 382.79 125.445 381.098 122.706 379.11C120.02 377.123 117.952 374.787 116.502 372.101C115.052 369.416 114.327 366.273 114.327 362.675C114.327 359.237 115.079 355.988 116.583 352.926C118.14 349.865 120.316 347.152 123.109 344.789C125.955 342.426 129.366 340.573 133.341 339.23C137.315 337.887 141.746 337.216 146.634 337.216C153.617 337.216 159.578 338.451 164.52 340.922C169.461 343.393 173.248 346.696 175.88 350.832C178.512 354.914 179.827 359.452 179.827 364.447H164.923C164.923 362.03 164.198 359.694 162.747 357.438C161.351 355.128 159.283 353.222 156.544 351.718C153.858 350.214 150.555 349.462 146.634 349.462C142.498 349.462 139.141 350.106 136.563 351.396C134.039 352.631 132.186 354.215 131.004 356.149C129.876 358.083 129.312 360.124 129.312 362.272C129.312 363.883 129.581 365.333 130.118 366.623C130.709 367.858 131.729 369.013 133.179 370.087C134.63 371.107 136.671 372.074 139.303 372.987C141.934 373.9 145.291 374.813 149.373 375.727C156.517 377.338 162.398 379.271 167.017 381.527C171.637 383.783 175.074 386.549 177.33 389.826C179.586 393.102 180.714 397.077 180.714 401.75C180.714 405.563 179.908 409.054 178.297 412.223C176.739 415.392 174.456 418.131 171.449 420.441C168.494 422.697 164.95 424.469 160.814 425.758C156.732 426.994 152.139 427.611 147.037 427.611C139.356 427.611 132.857 426.242 127.54 423.502C122.222 420.763 118.194 417.218 115.455 412.868C112.716 408.517 111.346 403.925 111.346 399.091H126.331C126.546 403.173 127.728 406.422 129.876 408.839C132.025 411.203 134.657 412.895 137.772 413.915C140.887 414.882 143.975 415.365 147.037 415.365C151.119 415.365 154.53 414.828 157.269 413.754C160.062 412.68 162.183 411.203 163.634 409.323C165.084 407.443 165.809 405.294 165.809 402.877ZM233.166 427.611C227.096 427.611 221.591 426.591 216.65 424.55C211.762 422.455 207.546 419.528 204.001 415.768C200.509 412.008 197.824 407.55 195.944 402.394C194.064 397.238 193.124 391.598 193.124 385.475V382.091C193.124 375.001 194.171 368.69 196.266 363.158C198.361 357.572 201.208 352.846 204.806 348.979C208.405 345.111 212.487 342.184 217.052 340.197C221.618 338.209 226.344 337.216 231.232 337.216C237.462 337.216 242.834 338.29 247.345 340.438C251.911 342.587 255.644 345.595 258.544 349.462C261.444 353.275 263.593 357.787 264.989 362.997C266.386 368.153 267.084 373.793 267.084 379.916V386.603H201.986V374.438H252.179V373.31C251.964 369.442 251.159 365.683 249.762 362.03C248.42 358.378 246.271 355.37 243.317 353.007C240.363 350.644 236.335 349.462 231.232 349.462C227.848 349.462 224.733 350.187 221.886 351.637C219.04 353.034 216.596 355.128 214.555 357.921C212.514 360.714 210.929 364.125 209.801 368.153C208.673 372.182 208.109 376.828 208.109 382.091V385.475C208.109 389.611 208.673 393.505 209.801 397.157C210.983 400.756 212.675 403.925 214.877 406.664C217.133 409.403 219.845 411.552 223.014 413.109C226.237 414.667 229.889 415.446 233.971 415.446C239.235 415.446 243.693 414.372 247.345 412.223C250.998 410.075 254.193 407.201 256.933 403.603L265.956 410.773C264.076 413.62 261.686 416.332 258.786 418.91C255.885 421.488 252.314 423.583 248.07 425.194C243.881 426.806 238.913 427.611 233.166 427.611ZM296.091 352.523V426H281.186V338.827H295.688L296.091 352.523ZM323.323 338.344L323.242 352.201C322.007 351.933 320.825 351.771 319.697 351.718C318.623 351.61 317.388 351.557 315.991 351.557C312.554 351.557 309.519 352.094 306.887 353.168C304.255 354.242 302.026 355.746 300.2 357.68C298.374 359.613 296.924 361.923 295.85 364.608C294.829 367.24 294.158 370.141 293.835 373.31L289.646 375.727C289.646 370.463 290.156 365.521 291.177 360.902C292.251 356.283 293.889 352.201 296.091 348.656C298.293 345.058 301.086 342.265 304.47 340.277C307.908 338.236 311.99 337.216 316.716 337.216C317.79 337.216 319.026 337.35 320.422 337.619C321.819 337.833 322.786 338.075 323.323 338.344ZM88.1396 561.351V574H26.0229V561.351H88.1396ZM29.165 456.695V574H13.6157V456.695H29.165ZM79.9219 507.13V519.779H26.0229V507.13H79.9219ZM87.334 456.695V469.425H26.0229V456.695H87.334ZM111.91 486.827L131.004 518.57L150.34 486.827H167.823L139.303 529.85L168.709 574H151.468L131.326 541.29L111.185 574H93.8631L123.189 529.85L94.7493 486.827H111.91ZM195.299 503.585V607.516H180.314V486.827H194.01L195.299 503.585ZM254.032 529.688V531.38C254.032 537.718 253.28 543.6 251.776 549.024C250.273 554.396 248.07 559.068 245.17 563.043C242.323 567.018 238.805 570.106 234.616 572.308C230.426 574.51 225.619 575.611 220.194 575.611C214.662 575.611 209.775 574.698 205.531 572.872C201.288 571.046 197.69 568.387 194.735 564.896C191.781 561.405 189.418 557.215 187.646 552.328C185.927 547.44 184.745 541.935 184.101 535.812V526.788C184.745 520.343 185.954 514.569 187.726 509.466C189.499 504.364 191.835 500.013 194.735 496.415C197.69 492.762 201.261 489.996 205.451 488.116C209.64 486.183 214.474 485.216 219.953 485.216C225.431 485.216 230.292 486.29 234.535 488.438C238.778 490.533 242.35 493.541 245.251 497.462C248.151 501.383 250.326 506.083 251.776 511.561C253.28 516.986 254.032 523.028 254.032 529.688ZM239.047 531.38V529.688C239.047 525.338 238.59 521.256 237.677 517.442C236.764 513.575 235.341 510.191 233.407 507.291C231.527 504.337 229.11 502.027 226.156 500.362C223.202 498.644 219.684 497.784 215.602 497.784C211.842 497.784 208.566 498.429 205.773 499.718C203.034 501.007 200.697 502.752 198.764 504.955C196.83 507.103 195.246 509.574 194.01 512.367C192.829 515.106 191.942 517.953 191.352 520.907V541.773C192.426 545.533 193.93 549.078 195.863 552.408C197.797 555.685 200.375 558.343 203.598 560.384C206.82 562.372 210.876 563.365 215.763 563.365C219.792 563.365 223.256 562.533 226.156 560.868C229.11 559.149 231.527 556.812 233.407 553.858C235.341 550.904 236.764 547.521 237.677 543.707C238.59 539.84 239.047 535.731 239.047 531.38ZM305.92 575.611C299.851 575.611 294.346 574.591 289.404 572.55C284.517 570.455 280.3 567.528 276.755 563.768C273.264 560.008 270.579 555.55 268.699 550.394C266.819 545.238 265.879 539.598 265.879 533.475V530.091C265.879 523.001 266.926 516.69 269.021 511.158C271.116 505.572 273.962 500.846 277.561 496.979C281.16 493.111 285.242 490.184 289.807 488.197C294.372 486.209 299.099 485.216 303.987 485.216C310.217 485.216 315.588 486.29 320.1 488.438C324.665 490.587 328.398 493.595 331.299 497.462C334.199 501.275 336.348 505.787 337.744 510.997C339.141 516.153 339.839 521.793 339.839 527.916V534.603H274.741V522.438H324.934V521.31C324.719 517.442 323.913 513.683 322.517 510.03C321.174 506.378 319.026 503.37 316.072 501.007C313.118 498.644 309.089 497.462 303.987 497.462C300.603 497.462 297.488 498.187 294.641 499.637C291.794 501.034 289.35 503.128 287.309 505.921C285.268 508.714 283.684 512.125 282.556 516.153C281.428 520.182 280.864 524.828 280.864 530.091V533.475C280.864 537.611 281.428 541.505 282.556 545.157C283.738 548.756 285.43 551.925 287.632 554.664C289.888 557.403 292.6 559.552 295.769 561.109C298.992 562.667 302.644 563.446 306.726 563.446C311.99 563.446 316.448 562.372 320.1 560.223C323.752 558.075 326.948 555.201 329.687 551.603L338.711 558.773C336.831 561.62 334.441 564.332 331.54 566.91C328.64 569.488 325.068 571.583 320.825 573.194C316.636 574.806 311.667 575.611 305.92 575.611ZM368.846 500.523V574H353.941V486.827H368.443L368.846 500.523ZM396.077 486.344L395.997 500.201C394.761 499.933 393.58 499.771 392.452 499.718C391.378 499.61 390.142 499.557 388.746 499.557C385.308 499.557 382.274 500.094 379.642 501.168C377.01 502.242 374.781 503.746 372.955 505.68C371.129 507.613 369.678 509.923 368.604 512.608C367.584 515.24 366.912 518.141 366.59 521.31L362.401 523.727C362.401 518.463 362.911 513.521 363.931 508.902C365.006 504.283 366.644 500.201 368.846 496.656C371.048 493.058 373.841 490.265 377.225 488.277C380.662 486.236 384.744 485.216 389.471 485.216C390.545 485.216 391.78 485.35 393.177 485.619C394.573 485.833 395.54 486.075 396.077 486.344ZM422.748 486.827V574H407.763V486.827H422.748ZM406.635 463.705C406.635 461.288 407.36 459.247 408.81 457.582C410.314 455.917 412.516 455.084 415.417 455.084C418.263 455.084 420.438 455.917 421.942 457.582C423.5 459.247 424.279 461.288 424.279 463.705C424.279 466.014 423.5 468.001 421.942 469.667C420.438 471.278 418.263 472.083 415.417 472.083C412.516 472.083 410.314 471.278 408.81 469.667C407.36 468.001 406.635 466.014 406.635 463.705ZM479.551 575.611C473.481 575.611 467.976 574.591 463.034 572.55C458.147 570.455 453.93 567.528 450.386 563.768C446.894 560.008 444.209 555.55 442.329 550.394C440.449 545.238 439.509 539.598 439.509 533.475V530.091C439.509 523.001 440.556 516.69 442.651 511.158C444.746 505.572 447.593 500.846 451.191 496.979C454.79 493.111 458.872 490.184 463.437 488.197C468.003 486.209 472.729 485.216 477.617 485.216C483.847 485.216 489.219 486.29 493.73 488.438C498.296 490.587 502.029 493.595 504.929 497.462C507.829 501.275 509.978 505.787 511.374 510.997C512.771 516.153 513.469 521.793 513.469 527.916V534.603H448.371V522.438H498.564V521.31C498.349 517.442 497.544 513.683 496.147 510.03C494.805 506.378 492.656 503.37 489.702 501.007C486.748 498.644 482.72 497.462 477.617 497.462C474.233 497.462 471.118 498.187 468.271 499.637C465.425 501.034 462.981 503.128 460.94 505.921C458.899 508.714 457.314 512.125 456.186 516.153C455.058 520.182 454.494 524.828 454.494 530.091V533.475C454.494 537.611 455.058 541.505 456.186 545.157C457.368 548.756 459.06 551.925 461.262 554.664C463.518 557.403 466.23 559.552 469.399 561.109C472.622 562.667 476.274 563.446 480.356 563.446C485.62 563.446 490.078 562.372 493.73 560.223C497.383 558.075 500.578 555.201 503.318 551.603L512.341 558.773C510.461 561.62 508.071 564.332 505.171 566.91C502.27 569.488 498.699 571.583 494.455 573.194C490.266 574.806 485.298 575.611 479.551 575.611ZM542.476 505.438V574H527.571V486.827H541.671L542.476 505.438ZM538.931 527.11L532.728 526.869C532.781 520.907 533.668 515.401 535.386 510.353C537.105 505.25 539.522 500.819 542.637 497.059C545.753 493.299 549.459 490.399 553.755 488.358C558.106 486.263 562.913 485.216 568.177 485.216C572.474 485.216 576.341 485.807 579.778 486.988C583.216 488.116 586.143 489.942 588.56 492.467C591.031 494.991 592.911 498.268 594.2 502.296C595.489 506.271 596.133 511.131 596.133 516.878V574H581.148V516.717C581.148 512.152 580.477 508.5 579.134 505.76C577.791 502.967 575.831 500.953 573.253 499.718C570.674 498.429 567.505 497.784 563.746 497.784C560.04 497.784 556.656 498.563 553.594 500.121C550.587 501.678 547.982 503.827 545.779 506.566C543.631 509.305 541.939 512.447 540.704 515.992C539.522 519.483 538.931 523.189 538.931 527.11ZM650.358 563.365C653.903 563.365 657.179 562.64 660.187 561.19C663.195 559.74 665.665 557.752 667.599 555.228C669.533 552.65 670.634 549.723 670.902 546.446H685.082C684.813 551.603 683.068 556.41 679.845 560.868C676.676 565.272 672.514 568.844 667.357 571.583C662.201 574.269 656.535 575.611 650.358 575.611C643.805 575.611 638.085 574.457 633.197 572.147C628.363 569.837 624.335 566.668 621.112 562.64C617.943 558.612 615.553 553.993 613.942 548.783C612.384 543.519 611.605 537.96 611.605 532.105V528.722C611.605 522.867 612.384 517.335 613.942 512.125C615.553 506.861 617.943 502.215 621.112 498.187C624.335 494.159 628.363 490.99 633.197 488.68C638.085 486.371 643.805 485.216 650.358 485.216C657.179 485.216 663.141 486.612 668.244 489.405C673.346 492.145 677.348 495.904 680.248 500.685C683.202 505.411 684.813 510.782 685.082 516.798H670.902C670.634 513.199 669.613 509.95 667.841 507.049C666.122 504.149 663.759 501.839 660.751 500.121C657.797 498.348 654.332 497.462 650.358 497.462C645.792 497.462 641.952 498.375 638.837 500.201C635.775 501.974 633.331 504.391 631.505 507.452C629.733 510.46 628.444 513.817 627.638 517.523C626.886 521.175 626.51 524.908 626.51 528.722V532.105C626.51 535.919 626.886 539.679 627.638 543.385C628.39 547.091 629.652 550.448 631.425 553.456C633.251 556.463 635.695 558.88 638.756 560.707C641.871 562.479 645.739 563.365 650.358 563.365ZM734.714 575.611C728.645 575.611 723.139 574.591 718.198 572.55C713.31 570.455 709.094 567.528 705.549 563.768C702.058 560.008 699.372 555.55 697.492 550.394C695.612 545.238 694.673 539.598 694.673 533.475V530.091C694.673 523.001 695.72 516.69 697.815 511.158C699.909 505.572 702.756 500.846 706.355 496.979C709.953 493.111 714.035 490.184 718.601 488.197C723.166 486.209 727.893 485.216 732.78 485.216C739.011 485.216 744.382 486.29 748.894 488.438C753.459 490.587 757.192 493.595 760.092 497.462C762.993 501.275 765.141 505.787 766.538 510.997C767.934 516.153 768.633 521.793 768.633 527.916V534.603H703.535V522.438H753.728V521.31C753.513 517.442 752.707 513.683 751.311 510.03C749.968 506.378 747.82 503.37 744.865 501.007C741.911 498.644 737.883 497.462 732.78 497.462C729.397 497.462 726.281 498.187 723.435 499.637C720.588 501.034 718.144 503.128 716.103 505.921C714.062 508.714 712.478 512.125 711.35 516.153C710.222 520.182 709.658 524.828 709.658 530.091V533.475C709.658 537.611 710.222 541.505 711.35 545.157C712.531 548.756 714.223 551.925 716.425 554.664C718.681 557.403 721.394 559.552 724.563 561.109C727.785 562.667 731.438 563.446 735.52 563.446C740.783 563.446 745.241 562.372 748.894 560.223C752.546 558.075 755.742 555.201 758.481 551.603L767.505 558.773C765.625 561.62 763.235 564.332 760.334 566.91C757.434 569.488 753.862 571.583 749.619 573.194C745.429 574.806 740.461 575.611 734.714 575.611Z" fill="url(#paint0_linear_110_23434)"/>
<g filter="url(#filter0_f_110_23434)">
<ellipse cx="695.5" cy="135.5" rx="132.5" ry="27.5" fill="url(#paint1_linear_110_23434)"/>
</g>
<g filter="url(#filter1_f_110_23434)">
<ellipse cx="695.5" cy="573.5" rx="132.5" ry="27.5" fill="url(#paint2_linear_110_23434)"/>
</g>
<defs>
<filter id="filter0_f_110_23434" x="511.5" y="56.5" width="368" height="158" filterUnits="userSpaceOnUse" color-interpolation-filters="sRGB">
<feFlood flood-opacity="0" result="BackgroundImageFix"/>
<feBlend mode="normal" in="SourceGraphic" in2="BackgroundImageFix" result="shape"/>
<feGaussianBlur stdDeviation="25.75" result="effect1_foregroundBlur_110_23434"/>
</filter>
<filter id="filter1_f_110_23434" x="511.5" y="494.5" width="368" height="158" filterUnits="userSpaceOnUse" color-interpolation-filters="sRGB">
<feFlood flood-opacity="0" result="BackgroundImageFix"/>
<feBlend mode="normal" in="SourceGraphic" in2="BackgroundImageFix" result="shape"/>
<feGaussianBlur stdDeviation="25.75" result="effect1_foregroundBlur_110_23434"/>
</filter>
<linearGradient id="paint0_linear_110_23434" x1="-28" y1="218" x2="940" y2="592" gradientUnits="userSpaceOnUse">
<stop stop-color="#525252"/>
<stop offset="0.29753" stop-color="white"/>
<stop offset="0.783515" stop-color="white"/>
<stop offset="0.837214" stop-color="#5D5D5D"/>
</linearGradient>
<linearGradient id="paint1_linear_110_23434" x1="682.5" y1="94.5" x2="746" y2="172" gradientUnits="userSpaceOnUse">
<stop stop-color="#282828" stop-opacity="0"/>
<stop offset="0.199272" stop-color="#282828" stop-opacity="0.476417"/>
<stop offset="1" stop-color="#282828"/>
</linearGradient>
<linearGradient id="paint2_linear_110_23434" x1="780" y1="571" x2="617.5" y2="574" gradientUnits="userSpaceOnUse">
<stop stop-color="#3A3A3A"/>
<stop offset="1" stop-color="#3A3A3A" stop-opacity="0"/>
</linearGradient>
</defs>
</svg>
