<svg width="264" height="89" viewBox="0 0 264 89" fill="none" xmlns="http://www.w3.org/2000/svg">
<path d="M43.1214 51.3493C43.1214 57.008 40.8735 62.4349 36.8722 66.4362C32.8709 70.4375 27.444 72.6854 21.7853 72.6854C16.1266 72.6854 10.6997 70.4375 6.69842 66.4362C2.69713 62.4349 0.44922 57.008 0.449219 51.3493L11.6234 51.3493C11.6234 54.0444 12.694 56.6292 14.5997 58.5349C16.5055 60.4406 19.0902 61.5113 21.7853 61.5113C24.4805 61.5113 27.0652 60.4406 28.9709 58.5349C30.8767 56.6292 31.9473 54.0444 31.9473 51.3493H43.1214Z" fill="#ADACAC"/>
<path d="M43.1214 51.3491H31.9453V18.8369H43.1214V51.3491Z" fill="#ADACAC"/>
<path d="M43.1214 18.8371L43.1214 30.0132L0.449219 30.0132L0.449218 18.8371L43.1214 18.8371Z" fill="#ADACAC"/>
<path d="M11.6253 51.3497H0.449219V43.2217H11.6253V51.3497Z" fill="#ADACAC"/>
<circle cx="6.0443" cy="36.6171" r="3.55602" fill="#ADACAC"/>
<path d="M76.4359 71.6807C62.9138 71.6807 54.0793 64.0001 54.0793 52.317V18.2411H67.2769V51.0549C67.2769 57.1128 70.5583 60.7187 76.472 60.7187C82.4217 60.7187 85.6671 57.1128 85.6671 51.0549V18.2411H98.8647V52.317C98.8647 63.9641 90.1384 71.6807 76.4359 71.6807ZM123.277 70.2744V28.8785H108.276V18.2411H151.511V28.8785H136.474V70.2744H123.277ZM180.394 71.6807C167.413 71.6807 159.264 65.767 158.723 56.1032L158.687 55.4541H171.307L171.344 55.7786C171.704 58.9879 175.274 61.2957 180.611 61.2957C185.767 61.2957 189.157 58.9518 189.157 55.6344V55.5983C189.157 52.6776 186.849 51.3073 180.755 50.1174L175.382 49.0716C164.384 46.9442 159.624 41.7516 159.624 33.6383V33.6023C159.66 23.3975 168.315 16.8348 180.286 16.8348C193.34 16.8348 200.443 23.4336 201.237 32.6287L201.273 33.0614H189.013L188.94 32.6287C188.4 29.3834 185.154 27.2198 180.358 27.2198C175.599 27.2198 172.786 29.3473 172.786 32.4484V32.4844C172.786 35.4413 175.166 37.064 180.791 38.1818L186.164 39.2275C197.234 41.3911 202.282 45.8263 202.282 54.2281V54.2642C202.282 64.9016 194.097 71.6807 180.394 71.6807ZM234.663 71.6807C221.141 71.6807 212.307 64.0001 212.307 52.317V18.2411H225.504V51.0549C225.504 57.1128 228.786 60.7187 234.699 60.7187C240.649 60.7187 243.895 57.1128 243.895 51.0549V18.2411H257.092V52.317C257.092 63.9641 248.366 71.6807 234.663 71.6807Z" fill="#ADACAC"/>
</svg>
