<svg width="80" height="66" viewBox="0 0 80 66" fill="none" xmlns="http://www.w3.org/2000/svg">
<path d="M75.7461 30.7143L60.8975 15.872C57.9543 12.93 58.1238 8.10911 61.2664 5.38113L61.4569 5.21575C64.193 2.84076 68.2995 2.98517 70.8619 5.5465V5.5465C73.559 8.24246 73.559 12.6147 70.8619 15.3106L46.8803 39.2821C42.143 44.0174 42.143 51.6969 46.8803 56.4322L50.0232 59.5737C53.0217 62.571 57.8818 62.571 60.8803 59.5737V59.5737C63.8806 56.5747 63.8806 51.711 60.8803 48.712L27.2989 15.1449C24.6934 12.5405 24.6934 8.31669 27.2989 5.71228V5.71228C29.9029 3.10944 34.1236 3.10944 36.7275 5.71228V5.71228C39.333 8.31669 39.333 12.5405 36.7275 15.1449L12.58 39.2821C7.84273 44.0174 7.84273 51.6969 12.58 56.4322L15.7229 59.5737C18.7214 62.571 23.5815 62.571 26.58 59.5737V59.5737C29.5803 56.5747 29.5803 51.711 26.58 48.712L12.2051 34.3431C6.95242 29.0927 4.00132 21.9703 4.00132 14.5434V10.4286" stroke="#897AE6" stroke-width="6.82948" stroke-linecap="round"/>
</svg>
