<svg width="330" height="90" viewBox="0 0 330 90" fill="none" xmlns="http://www.w3.org/2000/svg">
<path d="M24.9684 22.9126L0 37.5329V89.1098L24.9684 74.4896V22.9126Z" fill="#ADACAC"/>
<path d="M36.4293 0.576172L11.8702 14.7903L40.9318 31.8472V65.555L65.4908 51.3409V17.227L36.4293 0.576172Z" fill="#ADACAC"/>
<path d="M97.2124 20.8879H110.323C112.811 20.8879 115.061 21.3159 117.072 22.1721C119.103 23.0282 120.716 24.3422 121.91 26.1141C123.105 27.8662 123.702 30.106 123.702 32.8336C123.702 35.5412 123.105 37.8209 121.91 39.6725C120.716 41.524 119.103 42.9276 117.072 43.8833C115.061 44.819 112.811 45.2869 110.323 45.2869H104.649V60.3086H97.2124V20.8879ZM104.649 39.2842H108.262C109.656 39.2842 110.91 39.0851 112.025 38.6869C113.16 38.2688 114.066 37.6019 114.743 36.686C115.42 35.7702 115.758 34.5458 115.758 33.0127C115.758 31.4598 115.42 30.2453 114.743 29.3693C114.066 28.4734 113.16 27.8363 112.025 27.458C110.91 27.0598 109.656 26.8607 108.262 26.8607H104.649V39.2842ZM137.085 20.8879H144.551V60.3086H137.085V20.8879ZM179.721 53.6489C181.792 53.6489 183.633 53.3602 185.246 52.7828C186.859 52.1855 188.043 51.5982 188.8 51.0208L191.995 57.3819C191.079 58.1783 189.497 58.9846 187.247 59.8009C185.017 60.6172 182.349 61.0253 179.243 61.0253C176.336 61.0253 173.619 60.5176 171.09 59.5023C168.562 58.467 166.342 57.0335 164.431 55.2018C162.519 53.3502 161.026 51.1901 159.951 48.7213C158.876 46.2326 158.338 43.5448 158.338 40.658C158.338 37.7711 158.866 35.0833 159.921 32.5946C160.996 30.0861 162.489 27.906 164.401 26.0544C166.312 24.2028 168.532 22.7594 171.06 21.7241C173.609 20.6888 176.336 20.1712 179.243 20.1712C182.349 20.1712 185.017 20.5793 187.247 21.3956C189.497 22.2119 191.079 23.0182 191.995 23.8146L188.8 30.1757C188.043 29.5983 186.859 29.0209 185.246 28.4435C183.633 27.8462 181.792 27.5476 179.721 27.5476C177.611 27.5476 175.729 27.8861 174.077 28.563C172.444 29.2399 171.05 30.1856 169.896 31.4001C168.761 32.5946 167.895 33.9784 167.298 35.5512C166.7 37.124 166.402 38.7964 166.402 40.5684C166.402 42.3602 166.7 44.0525 167.298 45.6453C167.895 47.2181 168.761 48.6118 169.896 49.8263C171.05 51.0208 172.444 51.9566 174.077 52.6335C175.729 53.3104 177.611 53.6489 179.721 53.6489ZM218.882 40.1204L234.292 60.3086H225.362L212.252 42.6887V60.3086H204.786V20.8879H212.252V37.7611L224.407 20.8879H232.858L218.882 40.1204ZM245.567 20.8879H270.026V27.4879H252.974V37.343H269.787V43.734H252.974V53.7086H270.026V60.3086H245.567V20.8879ZM324.304 20.8879V60.3086H316.868V35.0734L317.226 29.3395L315.882 35.8498L308.148 57.5014H300.801L293.096 35.8498L291.782 29.3395L292.111 35.0734V60.3086H284.645V20.8879H294.978L303.997 48.9901L304.474 51.6779L304.952 48.9901L314.001 20.8879H324.304Z" fill="#ADACAC"/>
</svg>
