<svg width="539" height="706" viewBox="0 0 539 706" fill="none" xmlns="http://www.w3.org/2000/svg">
<g filter="url(#filter0_dd_297_9763)">
<rect x="68" y="68" width="393" height="852" fill="#F7F7F7"/>
<rect x="90" y="104" width="349" height="687" rx="18" fill="white"/>
<rect x="90" y="104" width="349" height="424" rx="18" fill="white"/>
<path d="M126.014 350H122.82V341.545H126.025C127.473 341.545 128.451 342.389 128.451 343.654C128.451 344.533 127.807 345.354 126.992 345.5V345.547C128.141 345.693 128.879 346.502 128.879 347.627C128.879 349.115 127.812 350 126.014 350ZM123.875 342.477V345.189H125.457C126.705 345.189 127.385 344.691 127.385 343.777C127.385 342.939 126.811 342.477 125.785 342.477H123.875ZM123.875 349.068H125.855C127.127 349.068 127.795 348.553 127.795 347.574C127.795 346.596 127.104 346.098 125.756 346.098H123.875V349.068ZM130.089 350V343.906H131.108V350H130.089ZM130.599 342.881C130.253 342.881 129.966 342.594 129.966 342.248C129.966 341.896 130.253 341.615 130.599 341.615C130.95 341.615 131.237 341.896 131.237 342.248C131.237 342.594 130.95 342.881 130.599 342.881ZM132.658 350V341.545H133.677V350H132.658ZM135.227 350V341.545H136.247V350H135.227ZM137.796 350V343.906H138.816V350H137.796ZM138.306 342.881C137.96 342.881 137.673 342.594 137.673 342.248C137.673 341.896 137.96 341.615 138.306 341.615C138.658 341.615 138.945 341.896 138.945 342.248C138.945 342.594 138.658 342.881 138.306 342.881ZM140.313 350V343.906H141.274V344.879H141.297C141.637 344.223 142.288 343.801 143.231 343.801C144.567 343.801 145.34 344.662 145.34 346.045V350H144.321V346.227C144.321 345.242 143.858 344.703 142.92 344.703C141.959 344.703 141.332 345.383 141.332 346.414V350H140.313ZM149.24 349.15C150.3 349.15 151.009 348.271 151.009 346.93C151.009 345.588 150.3 344.697 149.24 344.697C148.191 344.697 147.505 345.564 147.505 346.93C147.505 348.295 148.191 349.15 149.24 349.15ZM149.275 352.297C147.933 352.297 146.872 351.541 146.702 350.504H147.751C147.95 351.061 148.554 351.43 149.316 351.43C150.37 351.43 151.009 350.82 151.009 349.912V348.951H150.986C150.611 349.613 149.89 350.047 149.034 350.047C147.482 350.047 146.462 348.822 146.462 346.93C146.462 345.02 147.482 343.801 149.058 343.801C149.919 343.801 150.634 344.223 151.038 344.932H151.056V343.906H152.029V349.877C152.029 351.33 150.956 352.297 149.275 352.297ZM161.714 350L160.864 347.58H157.501L156.651 350H155.544L158.661 341.545H159.704L162.821 350H161.714ZM159.165 342.828L157.812 346.684H160.554L159.2 342.828H159.165ZM165.941 350.105C164.389 350.105 163.334 348.863 163.334 346.953C163.334 345.043 164.383 343.801 165.918 343.801C166.791 343.801 167.494 344.229 167.857 344.896H167.881V341.545H168.9V350H167.928V348.969H167.91C167.518 349.672 166.82 350.105 165.941 350.105ZM166.135 344.697C165.057 344.697 164.377 345.576 164.377 346.953C164.377 348.336 165.057 349.209 166.135 349.209C167.184 349.209 167.887 348.318 167.887 346.953C167.887 345.594 167.184 344.697 166.135 344.697ZM172.706 350.105C171.153 350.105 170.098 348.863 170.098 346.953C170.098 345.043 171.147 343.801 172.682 343.801C173.555 343.801 174.259 344.229 174.622 344.896H174.645V341.545H175.665V350H174.692V348.969H174.675C174.282 349.672 173.585 350.105 172.706 350.105ZM172.899 344.697C171.821 344.697 171.141 345.576 171.141 346.953C171.141 348.336 171.821 349.209 172.899 349.209C173.948 349.209 174.651 348.318 174.651 346.953C174.651 345.594 173.948 344.697 172.899 344.697ZM177.162 350V343.906H178.123V344.902H178.146C178.345 344.229 178.908 343.801 179.623 343.801C179.799 343.801 179.951 343.83 180.033 343.842V344.832C179.951 344.803 179.734 344.773 179.488 344.773C178.697 344.773 178.181 345.342 178.181 346.203V350H177.162ZM183.135 344.686C182.18 344.686 181.512 345.418 181.448 346.432H184.758C184.735 345.412 184.096 344.686 183.135 344.686ZM184.735 348.254H185.737C185.561 349.32 184.53 350.105 183.2 350.105C181.454 350.105 180.393 348.893 180.393 346.977C180.393 345.084 181.471 343.801 183.153 343.801C184.799 343.801 185.813 344.996 185.813 346.842V347.229H181.442V347.287C181.442 348.453 182.127 349.221 183.223 349.221C183.997 349.221 184.565 348.828 184.735 348.254ZM186.859 345.588C186.859 344.545 187.79 343.801 189.132 343.801C190.392 343.801 191.318 344.551 191.365 345.582H190.392C190.322 344.996 189.847 344.633 189.097 344.633C188.353 344.633 187.861 345.002 187.861 345.535C187.861 345.957 188.183 346.238 188.874 346.414L189.818 346.643C191.048 346.953 191.494 347.398 191.494 348.295C191.494 349.355 190.492 350.105 189.068 350.105C187.732 350.105 186.8 349.379 186.695 348.301H187.714C187.826 348.934 188.306 349.273 189.132 349.273C189.958 349.273 190.468 348.922 190.468 348.371C190.468 347.938 190.216 347.703 189.531 347.521L188.458 347.246C187.386 346.971 186.859 346.42 186.859 345.588ZM192.569 345.588C192.569 344.545 193.5 343.801 194.842 343.801C196.102 343.801 197.028 344.551 197.075 345.582H196.102C196.032 344.996 195.557 344.633 194.807 344.633C194.063 344.633 193.571 345.002 193.571 345.535C193.571 345.957 193.893 346.238 194.584 346.414L195.528 346.643C196.758 346.953 197.203 347.398 197.203 348.295C197.203 349.355 196.201 350.105 194.778 350.105C193.442 350.105 192.51 349.379 192.405 348.301H193.424C193.535 348.934 194.016 349.273 194.842 349.273C195.668 349.273 196.178 348.922 196.178 348.371C196.178 347.938 195.926 347.703 195.241 347.521L194.168 347.246C193.096 346.971 192.569 346.42 192.569 345.588Z" fill="black"/>
<path d="M126.301 258.141C123.969 258.141 122.492 256.447 122.492 253.77C122.492 251.115 123.986 249.404 126.301 249.404C128.141 249.404 129.541 250.523 129.811 252.211H128.744C128.475 251.104 127.508 250.377 126.301 250.377C124.648 250.377 123.576 251.713 123.576 253.77C123.576 255.844 124.637 257.168 126.307 257.168C127.549 257.168 128.439 256.57 128.744 255.539H129.811C129.424 257.209 128.17 258.141 126.301 258.141ZM133.03 257.238C133.991 257.238 134.729 256.564 134.729 255.686V255.188L133.1 255.287C132.28 255.34 131.811 255.703 131.811 256.277C131.811 256.857 132.298 257.238 133.03 257.238ZM132.802 258.105C131.589 258.105 130.774 257.373 130.774 256.277C130.774 255.234 131.577 254.578 132.983 254.496L134.729 254.396V253.887C134.729 253.143 134.237 252.697 133.393 252.697C132.608 252.697 132.116 253.066 131.987 253.664H131.003C131.073 252.609 131.975 251.801 133.417 251.801C134.847 251.801 135.749 252.574 135.749 253.787V258H134.782V256.951H134.759C134.395 257.648 133.622 258.105 132.802 258.105ZM137.164 258V251.906H138.125V252.902H138.148C138.347 252.229 138.91 251.801 139.625 251.801C139.801 251.801 139.953 251.83 140.035 251.842V252.832C139.953 252.803 139.736 252.773 139.49 252.773C138.699 252.773 138.183 253.342 138.183 254.203V258H137.164ZM143.003 258.105C141.45 258.105 140.395 256.863 140.395 254.953C140.395 253.043 141.444 251.801 142.979 251.801C143.852 251.801 144.555 252.229 144.919 252.896H144.942V249.545H145.962V258H144.989V256.969H144.971C144.579 257.672 143.881 258.105 143.003 258.105ZM143.196 252.697C142.118 252.697 141.438 253.576 141.438 254.953C141.438 256.336 142.118 257.209 143.196 257.209C144.245 257.209 144.948 256.318 144.948 254.953C144.948 253.594 144.245 252.697 143.196 252.697ZM150.198 249.545H153.039C155.547 249.545 157.03 251.109 157.03 253.77C157.03 256.436 155.553 258 153.039 258H150.198V249.545ZM151.252 250.494V257.051H152.969C154.885 257.051 155.952 255.879 155.952 253.781C155.952 251.666 154.891 250.494 152.969 250.494H151.252ZM160.747 252.686C159.792 252.686 159.124 253.418 159.06 254.432H162.37C162.347 253.412 161.708 252.686 160.747 252.686ZM162.347 256.254H163.349C163.173 257.32 162.142 258.105 160.812 258.105C159.066 258.105 158.005 256.893 158.005 254.977C158.005 253.084 159.083 251.801 160.765 251.801C162.411 251.801 163.425 252.996 163.425 254.842V255.229H159.054V255.287C159.054 256.453 159.74 257.221 160.835 257.221C161.609 257.221 162.177 256.828 162.347 256.254ZM164.904 250.436H165.924V251.906H167.108V252.744H165.924V256.365C165.924 256.922 166.158 257.174 166.68 257.174C166.797 257.174 167.031 257.156 167.102 257.145V258C166.979 258.029 166.697 258.047 166.457 258.047C165.338 258.047 164.904 257.59 164.904 256.418V252.744H163.996V251.906H164.904V250.436ZM170.21 257.238C171.171 257.238 171.909 256.564 171.909 255.686V255.188L170.28 255.287C169.46 255.34 168.991 255.703 168.991 256.277C168.991 256.857 169.478 257.238 170.21 257.238ZM169.981 258.105C168.769 258.105 167.954 257.373 167.954 256.277C167.954 255.234 168.757 254.578 170.163 254.496L171.909 254.396V253.887C171.909 253.143 171.417 252.697 170.573 252.697C169.788 252.697 169.296 253.066 169.167 253.664H168.183C168.253 252.609 169.155 251.801 170.597 251.801C172.026 251.801 172.929 252.574 172.929 253.787V258H171.962V256.951H171.939C171.575 257.648 170.802 258.105 169.981 258.105ZM174.396 258V251.906H175.416V258H174.396ZM174.906 250.881C174.56 250.881 174.273 250.594 174.273 250.248C174.273 249.896 174.56 249.615 174.906 249.615C175.258 249.615 175.545 249.896 175.545 250.248C175.545 250.594 175.258 250.881 174.906 250.881ZM176.966 258V249.545H177.985V258H176.966ZM179.377 253.588C179.377 252.545 180.308 251.801 181.65 251.801C182.91 251.801 183.836 252.551 183.882 253.582H182.91C182.84 252.996 182.365 252.633 181.615 252.633C180.871 252.633 180.379 253.002 180.379 253.535C180.379 253.957 180.701 254.238 181.392 254.414L182.336 254.643C183.566 254.953 184.011 255.398 184.011 256.295C184.011 257.355 183.009 258.105 181.586 258.105C180.25 258.105 179.318 257.379 179.213 256.301H180.232C180.343 256.934 180.824 257.273 181.65 257.273C182.476 257.273 182.986 256.922 182.986 256.371C182.986 255.938 182.734 255.703 182.049 255.521L180.976 255.246C179.904 254.971 179.377 254.42 179.377 253.588Z" fill="black"/>
<path d="M126.301 442.141C123.969 442.141 122.492 440.447 122.492 437.77C122.492 435.115 123.986 433.404 126.301 433.404C128.141 433.404 129.541 434.523 129.811 436.211H128.744C128.475 435.104 127.508 434.377 126.301 434.377C124.648 434.377 123.576 435.713 123.576 437.77C123.576 439.844 124.637 441.168 126.307 441.168C127.549 441.168 128.439 440.57 128.744 439.539H129.811C129.424 441.209 128.17 442.141 126.301 442.141ZM131.073 442V435.906H132.093V442H131.073ZM131.583 434.881C131.237 434.881 130.95 434.594 130.95 434.248C130.95 433.896 131.237 433.615 131.583 433.615C131.934 433.615 132.222 433.896 132.222 434.248C132.222 434.594 131.934 434.881 131.583 434.881ZM133.918 434.436H134.937V435.906H136.121V436.744H134.937V440.365C134.937 440.922 135.172 441.174 135.693 441.174C135.81 441.174 136.045 441.156 136.115 441.145V442C135.992 442.029 135.711 442.047 135.47 442.047C134.351 442.047 133.918 441.59 133.918 440.418V436.744H133.01V435.906H133.918V434.436ZM137.835 444.279C137.712 444.279 137.506 444.268 137.395 444.244V443.389C137.506 443.412 137.665 443.418 137.794 443.418C138.362 443.418 138.678 443.143 138.913 442.434L139.053 442.006L136.803 435.906H137.893L139.581 440.98H139.598L141.286 435.906H142.358L139.962 442.428C139.44 443.852 138.936 444.279 137.835 444.279Z" fill="black"/>
<path d="M255.416 439.674H256.477C256.576 440.588 257.443 441.191 258.65 441.191C259.793 441.191 260.625 440.588 260.625 439.756C260.625 439.041 260.127 438.602 258.99 438.309L257.906 438.027C256.348 437.629 255.656 436.943 255.656 435.795C255.656 434.389 256.887 433.404 258.645 433.404C260.326 433.404 261.545 434.4 261.592 435.818H260.537C260.443 434.91 259.711 434.354 258.609 434.354C257.514 434.354 256.752 434.922 256.752 435.748C256.752 436.387 257.221 436.768 258.369 437.066L259.254 437.301C261.006 437.74 261.715 438.414 261.715 439.627C261.715 441.174 260.496 442.141 258.551 442.141C256.758 442.141 255.516 441.168 255.416 439.674ZM263.235 434.436H264.255V435.906H265.438V436.744H264.255V440.365C264.255 440.922 264.489 441.174 265.011 441.174C265.128 441.174 265.362 441.156 265.432 441.145V442C265.309 442.029 265.028 442.047 264.788 442.047C263.669 442.047 263.235 441.59 263.235 440.418V436.744H262.327V435.906H263.235V434.436ZM268.541 441.238C269.502 441.238 270.24 440.564 270.24 439.686V439.188L268.611 439.287C267.791 439.34 267.322 439.703 267.322 440.277C267.322 440.857 267.808 441.238 268.541 441.238ZM268.312 442.105C267.099 442.105 266.285 441.373 266.285 440.277C266.285 439.234 267.088 438.578 268.494 438.496L270.24 438.396V437.887C270.24 437.143 269.748 436.697 268.904 436.697C268.119 436.697 267.627 437.066 267.498 437.664H266.513C266.584 436.609 267.486 435.801 268.927 435.801C270.357 435.801 271.26 436.574 271.26 437.787V442H270.293V440.951H270.269C269.906 441.648 269.133 442.105 268.312 442.105ZM273.003 434.436H274.022V435.906H275.206V436.744H274.022V440.365C274.022 440.922 274.256 441.174 274.778 441.174C274.895 441.174 275.13 441.156 275.2 441.145V442C275.077 442.029 274.796 442.047 274.555 442.047C273.436 442.047 273.003 441.59 273.003 440.418V436.744H272.094V435.906H273.003V434.436ZM278.683 436.686C277.728 436.686 277.06 437.418 276.996 438.432H280.306C280.283 437.412 279.644 436.686 278.683 436.686ZM280.283 440.254H281.285C281.109 441.32 280.078 442.105 278.748 442.105C277.001 442.105 275.941 440.893 275.941 438.977C275.941 437.084 277.019 435.801 278.701 435.801C280.347 435.801 281.361 436.996 281.361 438.842V439.229H276.99V439.287C276.99 440.453 277.675 441.221 278.771 441.221C279.544 441.221 280.113 440.828 280.283 440.254Z" fill="black"/>
<path d="M334.574 442V441.25L339.396 434.535V434.494H334.738V433.545H340.727V434.295L335.928 441.01V441.051H340.826V442H334.574ZM342.241 442V435.906H343.261V442H342.241ZM342.751 434.881C342.405 434.881 342.118 434.594 342.118 434.248C342.118 433.896 342.405 433.615 342.751 433.615C343.102 433.615 343.39 433.896 343.39 434.248C343.39 434.594 343.102 434.881 342.751 434.881ZM347.717 435.801C349.269 435.801 350.324 437.043 350.324 438.953C350.324 440.863 349.275 442.105 347.74 442.105C346.867 442.105 346.164 441.678 345.801 441.01H345.777V444.033H344.758V435.906H345.724V436.938H345.748C346.123 436.252 346.832 435.801 347.717 435.801ZM347.517 441.209C348.601 441.209 349.281 440.336 349.281 438.953C349.281 437.576 348.601 436.697 347.517 436.697C346.474 436.697 345.771 437.6 345.771 438.953C345.771 440.312 346.474 441.209 347.517 441.209Z" fill="black"/>
<rect x="114.5" y="280.5" width="300" height="39" rx="11.5" stroke="#E4E4E4"/>
<path d="M182.316 304L181.467 301.58H178.104L177.254 304H176.146L179.264 295.545H180.307L183.424 304H182.316ZM179.768 296.828L178.414 300.684H181.156L179.803 296.828H179.768ZM186.544 304.105C184.991 304.105 183.936 302.863 183.936 300.953C183.936 299.043 184.985 297.801 186.52 297.801C187.393 297.801 188.097 298.229 188.46 298.896H188.483V295.545H189.503V304H188.53V302.969H188.513C188.12 303.672 187.423 304.105 186.544 304.105ZM186.737 298.697C185.659 298.697 184.979 299.576 184.979 300.953C184.979 302.336 185.659 303.209 186.737 303.209C187.786 303.209 188.489 302.318 188.489 300.953C188.489 299.594 187.786 298.697 186.737 298.697ZM193.308 304.105C191.756 304.105 190.701 302.863 190.701 300.953C190.701 299.043 191.75 297.801 193.285 297.801C194.158 297.801 194.861 298.229 195.224 298.896H195.248V295.545H196.267V304H195.295V302.969H195.277C194.885 303.672 194.187 304.105 193.308 304.105ZM193.502 298.697C192.424 298.697 191.744 299.576 191.744 300.953C191.744 302.336 192.424 303.209 193.502 303.209C194.551 303.209 195.254 302.318 195.254 300.953C195.254 299.594 194.551 298.697 193.502 298.697ZM202.355 303.238C203.316 303.238 204.054 302.564 204.054 301.686V301.188L202.425 301.287C201.605 301.34 201.136 301.703 201.136 302.277C201.136 302.857 201.623 303.238 202.355 303.238ZM202.126 304.105C200.914 304.105 200.099 303.373 200.099 302.277C200.099 301.234 200.902 300.578 202.308 300.496L204.054 300.396V299.887C204.054 299.143 203.562 298.697 202.718 298.697C201.933 298.697 201.441 299.066 201.312 299.664H200.328C200.398 298.609 201.3 297.801 202.742 297.801C204.171 297.801 205.074 298.574 205.074 299.787V304H204.107V302.951H204.084C203.72 303.648 202.947 304.105 202.126 304.105ZM214.132 299.904H213.136C212.99 299.242 212.474 298.697 211.577 298.697C210.523 298.697 209.808 299.57 209.808 300.953C209.808 302.371 210.534 303.209 211.589 303.209C212.421 303.209 212.966 302.77 213.142 302.037H214.144C213.986 303.25 212.966 304.105 211.583 304.105C209.896 304.105 208.771 302.916 208.771 300.953C208.771 299.031 209.89 297.801 211.572 297.801C213.095 297.801 214.003 298.809 214.132 299.904ZM215.201 304V297.906H216.162V298.902H216.186C216.385 298.229 216.947 297.801 217.662 297.801C217.838 297.801 217.99 297.83 218.072 297.842V298.832C217.99 298.803 217.774 298.773 217.528 298.773C216.736 298.773 216.221 299.342 216.221 300.203V304H215.201ZM221.175 298.686C220.22 298.686 219.552 299.418 219.487 300.432H222.798C222.774 299.412 222.136 298.686 221.175 298.686ZM222.774 302.254H223.776C223.601 303.32 222.569 304.105 221.239 304.105C219.493 304.105 218.433 302.893 218.433 300.977C218.433 299.084 219.511 297.801 221.192 297.801C222.839 297.801 223.853 298.996 223.853 300.842V301.229H219.481V301.287C219.481 302.453 220.167 303.221 221.263 303.221C222.036 303.221 222.605 302.828 222.774 302.254ZM227.312 304.105C225.76 304.105 224.705 302.863 224.705 300.953C224.705 299.043 225.754 297.801 227.289 297.801C228.162 297.801 228.865 298.229 229.228 298.896H229.252V295.545H230.271V304H229.299V302.969H229.281C228.889 303.672 228.191 304.105 227.312 304.105ZM227.506 298.697C226.428 298.697 225.748 299.576 225.748 300.953C225.748 302.336 226.428 303.209 227.506 303.209C228.555 303.209 229.258 302.318 229.258 300.953C229.258 299.594 228.555 298.697 227.506 298.697ZM231.821 304V297.906H232.841V304H231.821ZM232.331 296.881C231.985 296.881 231.698 296.594 231.698 296.248C231.698 295.896 231.985 295.615 232.331 295.615C232.682 295.615 232.97 295.896 232.97 296.248C232.97 296.594 232.682 296.881 232.331 296.881ZM234.666 296.436H235.685V297.906H236.869V298.744H235.685V302.365C235.685 302.922 235.92 303.174 236.441 303.174C236.558 303.174 236.793 303.156 236.863 303.145V304C236.74 304.029 236.459 304.047 236.218 304.047C235.099 304.047 234.666 303.59 234.666 302.418V298.744H233.757V297.906H234.666V296.436ZM245.722 299.904H244.726C244.58 299.242 244.064 298.697 243.167 298.697C242.113 298.697 241.398 299.57 241.398 300.953C241.398 302.371 242.124 303.209 243.179 303.209C244.011 303.209 244.556 302.77 244.732 302.037H245.734C245.576 303.25 244.556 304.105 243.173 304.105C241.486 304.105 240.361 302.916 240.361 300.953C240.361 299.031 241.48 297.801 243.162 297.801C244.685 297.801 245.593 298.809 245.722 299.904ZM248.801 303.238C249.762 303.238 250.5 302.564 250.5 301.686V301.188L248.871 301.287C248.051 301.34 247.582 301.703 247.582 302.277C247.582 302.857 248.069 303.238 248.801 303.238ZM248.573 304.105C247.36 304.105 246.545 303.373 246.545 302.277C246.545 301.234 247.348 300.578 248.754 300.496L250.5 300.396V299.887C250.5 299.143 250.008 298.697 249.164 298.697C248.379 298.697 247.887 299.066 247.758 299.664H246.774C246.844 298.609 247.746 297.801 249.188 297.801C250.618 297.801 251.52 298.574 251.52 299.787V304H250.553V302.951H250.53C250.166 303.648 249.393 304.105 248.573 304.105ZM252.935 304V297.906H253.896V298.902H253.919C254.118 298.229 254.681 297.801 255.396 297.801C255.571 297.801 255.724 297.83 255.806 297.842V298.832C255.724 298.803 255.507 298.773 255.261 298.773C254.47 298.773 253.954 299.342 253.954 300.203V304H252.935ZM258.774 304.105C257.221 304.105 256.166 302.863 256.166 300.953C256.166 299.043 257.215 297.801 258.75 297.801C259.623 297.801 260.326 298.229 260.69 298.896H260.713V295.545H261.732V304H260.76V302.969H260.742C260.35 303.672 259.652 304.105 258.774 304.105ZM258.967 298.697C257.889 298.697 257.209 299.576 257.209 300.953C257.209 302.336 257.889 303.209 258.967 303.209C260.016 303.209 260.719 302.318 260.719 300.953C260.719 299.594 260.016 298.697 258.967 298.697Z" fill="#8E8E8E"/>
<path d="M314.421 304H313.437V297.484H313.396L310.7 303.941H309.81L307.114 297.484H307.073V304H306.089V295.545H307.314L310.232 302.6H310.279L313.196 295.545H314.421V304ZM324.514 304H323.529V297.484H323.488L320.793 303.941H319.902L317.207 297.484H317.166V304H316.182V295.545H317.406L320.324 302.6H320.371L323.289 295.545H324.514V304ZM334.817 304H333.762V300.361L330.762 295.545H331.964L334.272 299.342H334.307L336.616 295.545H337.817L334.817 300.361V304ZM342.285 304H341.23V300.361L338.23 295.545H339.431L341.74 299.342H341.775L344.084 295.545H345.285L342.285 300.361V304ZM355.014 304.141C352.682 304.141 351.205 302.447 351.205 299.77C351.205 297.115 352.699 295.404 355.014 295.404C356.854 295.404 358.254 296.523 358.524 298.211H357.457C357.188 297.104 356.221 296.377 355.014 296.377C353.362 296.377 352.289 297.713 352.289 299.77C352.289 301.844 353.35 303.168 355.02 303.168C356.262 303.168 357.153 302.57 357.457 301.539H358.524C358.137 303.209 356.883 304.141 355.014 304.141ZM363.378 304H362.335L359.218 295.545H360.325L362.839 302.717H362.874L365.388 295.545H366.495L363.378 304ZM371.063 304.141C368.73 304.141 367.254 302.447 367.254 299.77C367.254 297.115 368.748 295.404 371.063 295.404C372.902 295.404 374.303 296.523 374.572 298.211H373.506C373.236 297.104 372.27 296.377 371.063 296.377C369.41 296.377 368.338 297.713 368.338 299.77C368.338 301.844 369.398 303.168 371.068 303.168C372.311 303.168 373.201 302.57 373.506 301.539H374.572C374.186 303.209 372.932 304.141 371.063 304.141Z" fill="#8E8E8E"/>
<path d="M162 288L162 312" stroke="#E4E4E4"/>
<path d="M147.75 291.75H128.25C127.835 291.75 127.5 292.085 127.5 292.5V296.25H148.5V292.5C148.5 292.085 148.165 291.75 147.75 291.75ZM127.5 307.5C127.5 307.915 127.835 308.25 128.25 308.25H147.75C148.165 308.25 148.5 307.915 148.5 307.5V298.312H127.5V307.5ZM141.07 303.188C141.07 303.084 141.155 303 141.258 303H145.125C145.228 303 145.312 303.084 145.312 303.188V304.875C145.312 304.978 145.228 305.062 145.125 305.062H141.258C141.155 305.062 141.07 304.978 141.07 304.875V303.188Z" fill="#8E8E8E"/>
<rect x="114.5" y="372.5" width="209" height="39" rx="11.5" stroke="#E4E4E4"/>
<path d="M130.416 393.674H131.477C131.576 394.588 132.443 395.191 133.65 395.191C134.793 395.191 135.625 394.588 135.625 393.756C135.625 393.041 135.127 392.602 133.99 392.309L132.906 392.027C131.348 391.629 130.656 390.943 130.656 389.795C130.656 388.389 131.887 387.404 133.645 387.404C135.326 387.404 136.545 388.4 136.592 389.818H135.537C135.443 388.91 134.711 388.354 133.609 388.354C132.514 388.354 131.752 388.922 131.752 389.748C131.752 390.387 132.221 390.768 133.369 391.066L134.254 391.301C136.006 391.74 136.715 392.414 136.715 393.627C136.715 395.174 135.496 396.141 133.551 396.141C131.758 396.141 130.516 395.168 130.416 393.674ZM138.235 388.436H139.255V389.906H140.438V390.744H139.255V394.365C139.255 394.922 139.489 395.174 140.011 395.174C140.128 395.174 140.362 395.156 140.432 395.145V396C140.309 396.029 140.028 396.047 139.788 396.047C138.669 396.047 138.235 395.59 138.235 394.418V390.744H137.327V389.906H138.235V388.436ZM141.648 396V389.906H142.609V390.902H142.633C142.832 390.229 143.394 389.801 144.109 389.801C144.285 389.801 144.437 389.83 144.519 389.842V390.832C144.437 390.803 144.22 390.773 143.974 390.773C143.183 390.773 142.668 391.342 142.668 392.203V396H141.648ZM147.622 390.686C146.667 390.686 145.999 391.418 145.934 392.432H149.245C149.221 391.412 148.583 390.686 147.622 390.686ZM149.221 394.254H150.223C150.047 395.32 149.016 396.105 147.686 396.105C145.94 396.105 144.88 394.893 144.88 392.977C144.88 391.084 145.958 389.801 147.639 389.801C149.286 389.801 150.299 390.996 150.299 392.842V393.229H145.928V393.287C145.928 394.453 146.614 395.221 147.71 395.221C148.483 395.221 149.051 394.828 149.221 394.254ZM153.894 390.686C152.939 390.686 152.271 391.418 152.207 392.432H155.517C155.494 391.412 154.855 390.686 153.894 390.686ZM155.494 394.254H156.496C156.32 395.32 155.289 396.105 153.959 396.105C152.212 396.105 151.152 394.893 151.152 392.977C151.152 391.084 152.23 389.801 153.912 389.801C155.558 389.801 156.572 390.996 156.572 392.842V393.229H152.201V393.287C152.201 394.453 152.886 395.221 153.982 395.221C154.755 395.221 155.324 394.828 155.494 394.254ZM158.051 388.436H159.071V389.906H160.254V390.744H159.071V394.365C159.071 394.922 159.305 395.174 159.827 395.174C159.944 395.174 160.178 395.156 160.248 395.145V396C160.125 396.029 159.844 396.047 159.604 396.047C158.485 396.047 158.051 395.59 158.051 394.418V390.744H157.143V389.906H158.051V388.436ZM169.699 396L168.85 393.58H165.486L164.637 396H163.529L166.647 387.545H167.69L170.807 396H169.699ZM167.151 388.828L165.797 392.684H168.539L167.186 388.828H167.151ZM173.927 396.105C172.374 396.105 171.319 394.863 171.319 392.953C171.319 391.043 172.368 389.801 173.903 389.801C174.776 389.801 175.48 390.229 175.843 390.896H175.866V387.545H176.886V396H175.913V394.969H175.896C175.503 395.672 174.806 396.105 173.927 396.105ZM174.12 390.697C173.042 390.697 172.362 391.576 172.362 392.953C172.362 394.336 173.042 395.209 174.12 395.209C175.169 395.209 175.872 394.318 175.872 392.953C175.872 391.594 175.169 390.697 174.12 390.697ZM180.691 396.105C179.139 396.105 178.084 394.863 178.084 392.953C178.084 391.043 179.133 389.801 180.668 389.801C181.541 389.801 182.244 390.229 182.607 390.896H182.631V387.545H183.65V396H182.678V394.969H182.66C182.268 395.672 181.57 396.105 180.691 396.105ZM180.885 390.697C179.807 390.697 179.127 391.576 179.127 392.953C179.127 394.336 179.807 395.209 180.885 395.209C181.934 395.209 182.637 394.318 182.637 392.953C182.637 391.594 181.934 390.697 180.885 390.697ZM185.147 396V389.906H186.108V390.902H186.132C186.331 390.229 186.893 389.801 187.608 389.801C187.784 389.801 187.936 389.83 188.018 389.842V390.832C187.936 390.803 187.72 390.773 187.473 390.773C186.682 390.773 186.167 391.342 186.167 392.203V396H185.147ZM191.121 390.686C190.166 390.686 189.498 391.418 189.433 392.432H192.744C192.72 391.412 192.082 390.686 191.121 390.686ZM192.72 394.254H193.722C193.547 395.32 192.515 396.105 191.185 396.105C189.439 396.105 188.379 394.893 188.379 392.977C188.379 391.084 189.457 389.801 191.138 389.801C192.785 389.801 193.799 390.996 193.799 392.842V393.229H189.427V393.287C189.427 394.453 190.113 395.221 191.209 395.221C191.982 395.221 192.55 394.828 192.72 394.254ZM194.844 391.588C194.844 390.545 195.776 389.801 197.118 389.801C198.378 389.801 199.303 390.551 199.35 391.582H198.378C198.307 390.996 197.833 390.633 197.083 390.633C196.338 390.633 195.846 391.002 195.846 391.535C195.846 391.957 196.169 392.238 196.86 392.414L197.803 392.643C199.034 392.953 199.479 393.398 199.479 394.295C199.479 395.355 198.477 396.105 197.053 396.105C195.717 396.105 194.786 395.379 194.68 394.301H195.7C195.811 394.934 196.292 395.273 197.118 395.273C197.944 395.273 198.454 394.922 198.454 394.371C198.454 393.938 198.202 393.703 197.516 393.521L196.444 393.246C195.372 392.971 194.844 392.42 194.844 391.588ZM200.554 391.588C200.554 390.545 201.486 389.801 202.828 389.801C204.087 389.801 205.013 390.551 205.06 391.582H204.087C204.017 390.996 203.542 390.633 202.792 390.633C202.048 390.633 201.556 391.002 201.556 391.535C201.556 391.957 201.878 392.238 202.57 392.414L203.513 392.643C204.744 392.953 205.189 393.398 205.189 394.295C205.189 395.355 204.187 396.105 202.763 396.105C201.427 396.105 200.496 395.379 200.39 394.301H201.41C201.521 394.934 202.001 395.273 202.828 395.273C203.654 395.273 204.164 394.922 204.164 394.371C204.164 393.938 203.912 393.703 203.226 393.521L202.154 393.246C201.081 392.971 200.554 392.42 200.554 391.588Z" fill="#8E8E8E"/>
<rect x="114.5" y="464.5" width="131" height="39" rx="11.5" stroke="#E4E4E4"/>
<path d="M134.301 488.141C131.969 488.141 130.492 486.447 130.492 483.77C130.492 481.115 131.986 479.404 134.301 479.404C136.141 479.404 137.541 480.523 137.811 482.211H136.744C136.475 481.104 135.508 480.377 134.301 480.377C132.648 480.377 131.576 481.713 131.576 483.77C131.576 485.844 132.637 487.168 134.307 487.168C135.549 487.168 136.439 486.57 136.744 485.539H137.811C137.424 487.209 136.17 488.141 134.301 488.141ZM139.073 488V481.906H140.093V488H139.073ZM139.583 480.881C139.237 480.881 138.95 480.594 138.95 480.248C138.95 479.896 139.237 479.615 139.583 479.615C139.934 479.615 140.222 479.896 140.222 480.248C140.222 480.594 139.934 480.881 139.583 480.881ZM141.918 480.436H142.937V481.906H144.121V482.744H142.937V486.365C142.937 486.922 143.172 487.174 143.693 487.174C143.81 487.174 144.045 487.156 144.115 487.145V488C143.992 488.029 143.711 488.047 143.47 488.047C142.351 488.047 141.918 487.59 141.918 486.418V482.744H141.01V481.906H141.918V480.436ZM145.835 490.279C145.712 490.279 145.506 490.268 145.395 490.244V489.389C145.506 489.412 145.665 489.418 145.794 489.418C146.362 489.418 146.678 489.143 146.913 488.434L147.053 488.006L144.803 481.906H145.893L147.581 486.98H147.598L149.286 481.906H150.358L147.962 488.428C147.44 489.852 146.936 490.279 145.835 490.279Z" fill="#8E8E8E"/>
<rect x="333.5" y="372.5" width="81" height="39" rx="11.5" stroke="#E4E4E4"/>
<path d="M355.316 396L354.467 393.58H351.104L350.254 396H349.146L352.264 387.545H353.307L356.424 396H355.316ZM352.768 388.828L351.414 392.684H354.156L352.803 388.828H352.768ZM360.311 389.801C361.864 389.801 362.919 391.043 362.919 392.953C362.919 394.863 361.87 396.105 360.335 396.105C359.462 396.105 358.759 395.678 358.395 395.01H358.372V398.033H357.352V389.906H358.319V390.938H358.343C358.718 390.252 359.427 389.801 360.311 389.801ZM360.112 395.209C361.196 395.209 361.876 394.336 361.876 392.953C361.876 391.576 361.196 390.697 360.112 390.697C359.069 390.697 358.366 391.6 358.366 392.953C358.366 394.312 359.069 395.209 360.112 395.209ZM364.398 388.436H365.418V389.906H366.601V390.744H365.418V394.365C365.418 394.922 365.652 395.174 366.174 395.174C366.291 395.174 366.525 395.156 366.595 395.145V396C366.472 396.029 366.191 396.047 365.951 396.047C364.832 396.047 364.398 395.59 364.398 394.418V390.744H363.49V389.906H364.398V388.436Z" fill="#8E8E8E"/>
<rect x="255.5" y="464.5" width="69" height="39" rx="11.5" stroke="#E4E4E4"/>
<path d="M271.416 485.674H272.477C272.576 486.588 273.443 487.191 274.65 487.191C275.793 487.191 276.625 486.588 276.625 485.756C276.625 485.041 276.127 484.602 274.99 484.309L273.906 484.027C272.348 483.629 271.656 482.943 271.656 481.795C271.656 480.389 272.887 479.404 274.645 479.404C276.326 479.404 277.545 480.4 277.592 481.818H276.537C276.443 480.91 275.711 480.354 274.609 480.354C273.514 480.354 272.752 480.922 272.752 481.748C272.752 482.387 273.221 482.768 274.369 483.066L275.254 483.301C277.006 483.74 277.715 484.414 277.715 485.627C277.715 487.174 276.496 488.141 274.551 488.141C272.758 488.141 271.516 487.168 271.416 485.674ZM279.235 480.436H280.255V481.906H281.438V482.744H280.255V486.365C280.255 486.922 280.489 487.174 281.011 487.174C281.128 487.174 281.362 487.156 281.432 487.145V488C281.309 488.029 281.028 488.047 280.788 488.047C279.669 488.047 279.235 487.59 279.235 486.418V482.744H278.327V481.906H279.235V480.436ZM284.541 487.238C285.502 487.238 286.24 486.564 286.24 485.686V485.188L284.611 485.287C283.791 485.34 283.322 485.703 283.322 486.277C283.322 486.857 283.808 487.238 284.541 487.238ZM284.312 488.105C283.099 488.105 282.285 487.373 282.285 486.277C282.285 485.234 283.088 484.578 284.494 484.496L286.24 484.396V483.887C286.24 483.143 285.748 482.697 284.904 482.697C284.119 482.697 283.627 483.066 283.498 483.664H282.513C282.584 482.609 283.486 481.801 284.927 481.801C286.357 481.801 287.26 482.574 287.26 483.787V488H286.293V486.951H286.269C285.906 487.648 285.133 488.105 284.312 488.105ZM289.003 480.436H290.022V481.906H291.206V482.744H290.022V486.365C290.022 486.922 290.256 487.174 290.778 487.174C290.895 487.174 291.13 487.156 291.2 487.145V488C291.077 488.029 290.796 488.047 290.555 488.047C289.436 488.047 289.003 487.59 289.003 486.418V482.744H288.094V481.906H289.003V480.436ZM294.683 482.686C293.728 482.686 293.06 483.418 292.996 484.432H296.306C296.283 483.412 295.644 482.686 294.683 482.686ZM296.283 486.254H297.285C297.109 487.32 296.078 488.105 294.748 488.105C293.001 488.105 291.941 486.893 291.941 484.977C291.941 483.084 293.019 481.801 294.701 481.801C296.347 481.801 297.361 482.996 297.361 484.842V485.229H292.99V485.287C292.99 486.453 293.675 487.221 294.771 487.221C295.544 487.221 296.113 486.828 296.283 486.254Z" fill="#8E8E8E"/>
<rect x="334.5" y="464.5" width="80" height="39" rx="11.5" stroke="#E4E4E4"/>
<path d="M350.574 488V487.25L355.396 480.535V480.494H350.738V479.545H356.727V480.295L351.928 487.01V487.051H356.826V488H350.574ZM358.241 488V481.906H359.261V488H358.241ZM358.751 480.881C358.405 480.881 358.118 480.594 358.118 480.248C358.118 479.896 358.405 479.615 358.751 479.615C359.102 479.615 359.39 479.896 359.39 480.248C359.39 480.594 359.102 480.881 358.751 480.881ZM363.717 481.801C365.269 481.801 366.324 483.043 366.324 484.953C366.324 486.863 365.275 488.105 363.74 488.105C362.867 488.105 362.164 487.678 361.801 487.01H361.777V490.033H360.758V481.906H361.724V482.938H361.748C362.123 482.252 362.832 481.801 363.717 481.801ZM363.517 487.209C364.601 487.209 365.281 486.336 365.281 484.953C365.281 483.576 364.601 482.697 363.517 482.697C362.474 482.697 361.771 483.6 361.771 484.953C361.771 486.312 362.474 487.209 363.517 487.209Z" fill="#8E8E8E"/>
<rect x="114.5" y="188.5" width="300" height="39" rx="19.5" fill="white"/>
<rect x="114.5" y="188.5" width="300" height="39" rx="19.5" stroke="#E4E4E4"/>
<g filter="url(#filter1_i_297_9763)">
<rect x="117" y="191" width="146" height="34" rx="17" fill="url(#paint0_linear_297_9763)"/>
<path d="M177.752 207.952H183.336V209.712H177.752V207.952ZM177.928 214H175.848V202.8H184.024V204.544H177.928V214ZM185.843 214V205.456H187.843V214H185.843ZM186.851 204.048C186.478 204.048 186.169 203.931 185.923 203.696C185.689 203.461 185.571 203.179 185.571 202.848C185.571 202.507 185.689 202.224 185.923 202C186.169 201.765 186.478 201.648 186.851 201.648C187.225 201.648 187.529 201.76 187.763 201.984C188.009 202.197 188.131 202.469 188.131 202.8C188.131 203.152 188.014 203.451 187.779 203.696C187.545 203.931 187.235 204.048 186.851 204.048ZM195.732 214V212.272L195.62 211.904V208.88C195.62 208.293 195.444 207.84 195.092 207.52C194.74 207.189 194.207 207.024 193.492 207.024C193.012 207.024 192.538 207.099 192.068 207.248C191.61 207.397 191.22 207.605 190.9 207.872L190.116 206.416C190.575 206.064 191.119 205.803 191.748 205.632C192.388 205.451 193.05 205.36 193.732 205.36C194.97 205.36 195.924 205.659 196.596 206.256C197.279 206.843 197.62 207.755 197.62 208.992V214H195.732ZM193.044 214.112C192.404 214.112 191.844 214.005 191.364 213.792C190.884 213.568 190.511 213.264 190.244 212.88C189.988 212.485 189.86 212.043 189.86 211.552C189.86 211.072 189.972 210.64 190.196 210.256C190.431 209.872 190.81 209.568 191.332 209.344C191.855 209.12 192.548 209.008 193.412 209.008H195.892V210.336H193.556C192.874 210.336 192.415 210.448 192.18 210.672C191.946 210.885 191.828 211.152 191.828 211.472C191.828 211.835 191.972 212.123 192.26 212.336C192.548 212.549 192.948 212.656 193.46 212.656C193.951 212.656 194.388 212.544 194.772 212.32C195.167 212.096 195.45 211.765 195.62 211.328L195.956 212.528C195.764 213.029 195.418 213.419 194.916 213.696C194.426 213.973 193.802 214.112 193.044 214.112ZM203.403 214.112C202.464 214.112 201.739 213.872 201.227 213.392C200.715 212.901 200.459 212.181 200.459 211.232V203.568H202.459V211.184C202.459 211.589 202.56 211.904 202.763 212.128C202.976 212.352 203.27 212.464 203.643 212.464C204.091 212.464 204.464 212.347 204.763 212.112L205.323 213.536C205.088 213.728 204.8 213.872 204.459 213.968C204.118 214.064 203.766 214.112 203.403 214.112ZM199.051 207.12V205.52H204.747V207.12H199.051Z" fill="white"/>
</g>
<path d="M317.883 214.16C317.03 214.16 316.235 214.021 315.499 213.744C314.774 213.456 314.139 213.056 313.595 212.544C313.062 212.021 312.646 211.408 312.347 210.704C312.049 210 311.899 209.232 311.899 208.4C311.899 207.568 312.049 206.8 312.347 206.096C312.646 205.392 313.067 204.784 313.611 204.272C314.155 203.749 314.79 203.349 315.515 203.072C316.241 202.784 317.035 202.64 317.899 202.64C318.817 202.64 319.654 202.8 320.411 203.12C321.169 203.429 321.809 203.893 322.331 204.512L320.987 205.776C320.582 205.339 320.129 205.013 319.627 204.8C319.126 204.576 318.582 204.464 317.995 204.464C317.409 204.464 316.87 204.56 316.379 204.752C315.899 204.944 315.478 205.216 315.115 205.568C314.763 205.92 314.486 206.336 314.283 206.816C314.091 207.296 313.995 207.824 313.995 208.4C313.995 208.976 314.091 209.504 314.283 209.984C314.486 210.464 314.763 210.88 315.115 211.232C315.478 211.584 315.899 211.856 316.379 212.048C316.87 212.24 317.409 212.336 317.995 212.336C318.582 212.336 319.126 212.229 319.627 212.016C320.129 211.792 320.582 211.456 320.987 211.008L322.331 212.288C321.809 212.896 321.169 213.36 320.411 213.68C319.654 214 318.811 214.16 317.883 214.16ZM324.132 214V205.456H326.036V207.808L325.812 207.12C326.068 206.544 326.468 206.107 327.012 205.808C327.567 205.509 328.255 205.36 329.076 205.36V207.264C328.991 207.243 328.911 207.232 328.836 207.232C328.762 207.221 328.687 207.216 328.612 207.216C327.855 207.216 327.252 207.44 326.804 207.888C326.356 208.325 326.132 208.981 326.132 209.856V214H324.132ZM331.789 217.216C331.373 217.216 330.957 217.147 330.541 217.008C330.125 216.869 329.779 216.677 329.501 216.432L330.301 214.96C330.504 215.141 330.733 215.285 330.989 215.392C331.245 215.499 331.507 215.552 331.773 215.552C332.136 215.552 332.429 215.461 332.653 215.28C332.877 215.099 333.085 214.795 333.277 214.368L333.773 213.248L333.933 213.008L337.165 205.456H339.085L335.085 214.688C334.819 215.328 334.52 215.835 334.189 216.208C333.869 216.581 333.507 216.843 333.101 216.992C332.707 217.141 332.269 217.216 331.789 217.216ZM333.549 214.304L329.693 205.456H331.773L334.909 212.832L333.549 214.304ZM345.071 214.112C344.378 214.112 343.743 213.952 343.167 213.632C342.602 213.312 342.149 212.832 341.807 212.192C341.477 211.541 341.311 210.72 341.311 209.728C341.311 208.725 341.471 207.904 341.791 207.264C342.122 206.624 342.57 206.149 343.135 205.84C343.701 205.52 344.346 205.36 345.071 205.36C345.914 205.36 346.655 205.541 347.295 205.904C347.946 206.267 348.458 206.773 348.831 207.424C349.215 208.075 349.407 208.843 349.407 209.728C349.407 210.613 349.215 211.387 348.831 212.048C348.458 212.699 347.946 213.205 347.295 213.568C346.655 213.931 345.914 214.112 345.071 214.112ZM340.335 217.104V205.456H342.239V207.472L342.175 209.744L342.335 212.016V217.104H340.335ZM344.847 212.4C345.327 212.4 345.754 212.293 346.127 212.08C346.511 211.867 346.815 211.557 347.039 211.152C347.263 210.747 347.375 210.272 347.375 209.728C347.375 209.173 347.263 208.699 347.039 208.304C346.815 207.899 346.511 207.589 346.127 207.376C345.754 207.163 345.327 207.056 344.847 207.056C344.367 207.056 343.935 207.163 343.551 207.376C343.167 207.589 342.863 207.899 342.639 208.304C342.415 208.699 342.303 209.173 342.303 209.728C342.303 210.272 342.415 210.747 342.639 211.152C342.863 211.557 343.167 211.867 343.551 212.08C343.935 212.293 344.367 212.4 344.847 212.4ZM354.52 214.112C353.582 214.112 352.856 213.872 352.344 213.392C351.832 212.901 351.576 212.181 351.576 211.232V203.568H353.576V211.184C353.576 211.589 353.678 211.904 353.88 212.128C354.094 212.352 354.387 212.464 354.76 212.464C355.208 212.464 355.582 212.347 355.88 212.112L356.44 213.536C356.206 213.728 355.918 213.872 355.576 213.968C355.235 214.064 354.883 214.112 354.52 214.112ZM350.168 207.12V205.52H355.864V207.12H350.168ZM361.644 214.112C360.77 214.112 359.991 213.925 359.308 213.552C358.626 213.168 358.087 212.645 357.692 211.984C357.298 211.323 357.1 210.571 357.1 209.728C357.1 208.875 357.298 208.123 357.692 207.472C358.087 206.811 358.626 206.293 359.308 205.92C359.991 205.547 360.77 205.36 361.644 205.36C362.53 205.36 363.314 205.547 363.996 205.92C364.69 206.293 365.228 206.805 365.612 207.456C366.007 208.107 366.204 208.864 366.204 209.728C366.204 210.571 366.007 211.323 365.612 211.984C365.228 212.645 364.69 213.168 363.996 213.552C363.314 213.925 362.53 214.112 361.644 214.112ZM361.644 212.4C362.135 212.4 362.572 212.293 362.956 212.08C363.34 211.867 363.639 211.557 363.852 211.152C364.076 210.747 364.188 210.272 364.188 209.728C364.188 209.173 364.076 208.699 363.852 208.304C363.639 207.899 363.34 207.589 362.956 207.376C362.572 207.163 362.14 207.056 361.66 207.056C361.17 207.056 360.732 207.163 360.348 207.376C359.975 207.589 359.676 207.899 359.452 208.304C359.228 208.699 359.116 209.173 359.116 209.728C359.116 210.272 359.228 210.747 359.452 211.152C359.676 211.557 359.975 211.867 360.348 212.08C360.732 212.293 361.164 212.4 361.644 212.4Z" fill="#8E8E8E"/>
<path d="M124.543 141H124.008V135.848H122.148V135.363H126.406V135.848H124.543V141ZM129.053 135.84V138.219H130.467C131.288 138.219 131.764 137.781 131.764 137.027C131.764 136.281 131.268 135.84 130.448 135.84H129.053ZM129.053 138.691V141H128.522V135.363H130.51C131.612 135.363 132.315 136.008 132.315 137.012C132.315 137.809 131.862 138.41 131.108 138.605L132.475 141H131.85L130.553 138.691C130.534 138.691 130.495 138.691 130.467 138.691H129.053ZM138.372 141L137.747 139.273H135.38L134.755 141H134.189L136.298 135.363H136.829L138.935 141H138.372ZM136.552 136.023L135.54 138.812H137.587L136.575 136.023H136.552ZM141.523 141H140.996V135.363H141.523L144.828 140.07H144.855V135.363H145.382V141H144.867L141.55 136.289H141.523V141ZM147.608 139.469H148.143C148.201 140.145 148.838 140.605 149.721 140.605C150.565 140.605 151.17 140.145 151.17 139.512C151.17 138.984 150.807 138.672 149.971 138.461L149.272 138.281C148.229 138.016 147.764 137.574 147.764 136.832C147.764 135.922 148.584 135.273 149.694 135.273C150.791 135.273 151.596 135.922 151.627 136.816H151.092C151.041 136.18 150.479 135.758 149.678 135.758C148.897 135.758 148.319 136.191 148.319 136.812C148.319 137.297 148.67 137.582 149.498 137.793L150.108 137.949C151.24 138.234 151.717 138.668 151.717 139.453C151.717 140.441 150.92 141.09 149.674 141.09C148.494 141.09 147.666 140.438 147.608 139.469ZM157.684 141L157.059 139.273H154.692L154.067 141H153.501L155.61 135.363H156.141L158.247 141H157.684ZM155.864 136.023L154.852 138.812H156.899L155.888 136.023H155.864ZM162.413 141.09C160.878 141.09 159.902 139.953 159.902 138.168C159.902 136.402 160.882 135.273 162.413 135.273C163.605 135.273 164.546 136.051 164.699 137.152H164.163C164.007 136.34 163.288 135.77 162.413 135.77C161.218 135.77 160.449 136.703 160.449 138.168C160.449 139.652 161.218 140.594 162.417 140.594C163.316 140.594 163.995 140.113 164.163 139.332H164.699C164.499 140.43 163.636 141.09 162.413 141.09ZM168.693 141H168.158V135.848H166.299V135.363H170.557V135.848H168.693V141ZM173.204 141H172.672V135.363H173.204V141ZM178.03 135.273C179.601 135.273 180.593 136.398 180.593 138.184C180.593 139.969 179.605 141.09 178.03 141.09C176.46 141.09 175.472 139.969 175.472 138.184C175.472 136.398 176.46 135.273 178.03 135.273ZM178.03 135.77C176.796 135.77 176.019 136.703 176.019 138.184C176.019 139.66 176.796 140.594 178.03 140.594C179.265 140.594 180.046 139.66 180.046 138.184C180.046 136.703 179.265 135.77 178.03 135.77ZM183.392 141H182.865V135.363H183.392L186.697 140.07H186.724V135.363H187.252V141H186.736L183.42 136.289H183.392V141ZM189.477 139.469H190.012C190.07 140.145 190.707 140.605 191.59 140.605C192.434 140.605 193.039 140.145 193.039 139.512C193.039 138.984 192.676 138.672 191.84 138.461L191.141 138.281C190.098 138.016 189.633 137.574 189.633 136.832C189.633 135.922 190.453 135.273 191.563 135.273C192.66 135.273 193.465 135.922 193.496 136.816H192.961C192.91 136.18 192.348 135.758 191.547 135.758C190.766 135.758 190.188 136.191 190.188 136.812C190.188 137.297 190.539 137.582 191.367 137.793L191.977 137.949C193.11 138.234 193.586 138.668 193.586 139.453C193.586 140.441 192.789 141.09 191.543 141.09C190.363 141.09 189.535 140.438 189.477 139.469Z" fill="#838383"/>
<path d="M123.169 151.317H127.924C130.385 151.317 132.099 153.014 132.099 155.483C132.099 157.962 130.35 159.667 127.862 159.667H125.138V164H123.169V151.317ZM125.138 152.979V158.015H127.396C129.11 158.015 130.086 157.092 130.086 155.492C130.086 153.893 129.11 152.979 127.405 152.979H125.138ZM136.269 162.655C137.596 162.655 138.633 161.741 138.633 160.537V159.808L136.357 159.948C135.223 160.027 134.581 160.528 134.581 161.319C134.581 162.128 135.249 162.655 136.269 162.655ZM135.742 164.158C133.931 164.158 132.665 163.033 132.665 161.372C132.665 159.755 133.905 158.762 136.102 158.639L138.633 158.489V157.777C138.633 156.749 137.939 156.134 136.779 156.134C135.68 156.134 134.994 156.661 134.827 157.487H133.034C133.14 155.817 134.564 154.587 136.849 154.587C139.09 154.587 140.523 155.773 140.523 157.628V164H138.703V162.479H138.659C138.123 163.508 136.954 164.158 135.742 164.158ZM143.463 167.445C143.313 167.445 142.83 167.428 142.689 167.401V165.863C142.83 165.898 143.146 165.898 143.304 165.898C144.192 165.898 144.658 165.529 144.948 164.58C144.948 164.562 145.115 164.018 145.115 164.009L141.775 154.754H143.832L146.178 162.277H146.205L148.551 154.754H150.555L147.084 164.483C146.293 166.725 145.387 167.445 143.463 167.445ZM151.852 164V154.754H153.662V156.31H153.706C154.119 155.281 155.086 154.596 156.334 154.596C157.617 154.596 158.549 155.255 158.918 156.406H158.962C159.436 155.281 160.526 154.596 161.845 154.596C163.673 154.596 164.868 155.809 164.868 157.646V164H162.961V158.103C162.961 156.907 162.319 156.222 161.194 156.222C160.069 156.222 159.287 157.057 159.287 158.226V164H157.424V157.962C157.424 156.898 156.747 156.222 155.675 156.222C154.55 156.222 153.75 157.101 153.75 158.287V164H151.852ZM170.752 156.116C169.425 156.116 168.493 157.127 168.397 158.524H173.02C172.976 157.109 172.079 156.116 170.752 156.116ZM173.011 161.284H174.813C174.549 162.972 172.949 164.176 170.831 164.176C168.116 164.176 166.472 162.339 166.472 159.421C166.472 156.521 168.142 154.587 170.752 154.587C173.319 154.587 174.918 156.397 174.918 159.201V159.852H168.388V159.966C168.388 161.574 169.355 162.638 170.875 162.638C171.956 162.638 172.756 162.093 173.011 161.284ZM176.575 164V154.754H178.385V156.301H178.429C178.93 155.246 179.915 154.596 181.338 154.596C183.378 154.596 184.546 155.896 184.546 158.015V164H182.639V158.384C182.639 156.995 181.989 156.23 180.671 156.23C179.335 156.23 178.473 157.18 178.473 158.612V164H176.575ZM187.117 152.565H189.024V154.754H190.782V156.257H189.024V161.354C189.024 162.154 189.376 162.515 190.149 162.515C190.343 162.515 190.65 162.497 190.773 162.471V163.974C190.562 164.026 190.141 164.062 189.719 164.062C187.847 164.062 187.117 163.35 187.117 161.565V156.257H185.772V154.754H187.117V152.565ZM209.423 164H207.622V154.666H207.56L203.737 163.903H202.278L198.446 154.666H198.384V164H196.591V151.317H198.868L202.972 161.328H203.043L207.138 151.317H209.423V164ZM215.58 156.116C214.253 156.116 213.321 157.127 213.224 158.524H217.848C217.804 157.109 216.907 156.116 215.58 156.116ZM217.839 161.284H219.641C219.377 162.972 217.777 164.176 215.659 164.176C212.943 164.176 211.3 162.339 211.3 159.421C211.3 156.521 212.97 154.587 215.58 154.587C218.146 154.587 219.746 156.397 219.746 159.201V159.852H213.216V159.966C213.216 161.574 214.183 162.638 215.703 162.638C216.784 162.638 217.584 162.093 217.839 161.284ZM221.956 152.565H223.863V154.754H225.621V156.257H223.863V161.354C223.863 162.154 224.215 162.515 224.988 162.515C225.182 162.515 225.489 162.497 225.613 162.471V163.974C225.402 164.026 224.98 164.062 224.558 164.062C222.686 164.062 221.956 163.35 221.956 161.565V156.257H220.612V154.754H221.956V152.565ZM227.436 164V151.317H229.317V156.301H229.361C229.871 155.22 230.881 154.596 232.288 154.596C234.318 154.596 235.531 155.949 235.531 158.041V164H233.624V158.41C233.624 157.048 232.938 156.23 231.602 156.23C230.196 156.23 229.334 157.197 229.334 158.656V164H227.436ZM241.52 164.176C238.875 164.176 237.135 162.356 237.135 159.377C237.135 156.406 238.884 154.587 241.52 154.587C244.157 154.587 245.906 156.406 245.906 159.377C245.906 162.356 244.166 164.176 241.52 164.176ZM241.52 162.611C243.014 162.611 243.973 161.434 243.973 159.377C243.973 157.329 243.006 156.151 241.52 156.151C240.035 156.151 239.068 157.329 239.068 159.377C239.068 161.434 240.035 162.611 241.52 162.611ZM251.026 164.158C248.688 164.158 247.141 162.295 247.141 159.377C247.141 156.459 248.688 154.604 251.008 154.604C252.335 154.604 253.39 155.272 253.908 156.292H253.944V151.317H255.851V164H254.005V162.427H253.97C253.425 163.481 252.37 164.158 251.026 164.158ZM251.527 156.204C250.024 156.204 249.083 157.435 249.083 159.377C249.083 161.328 250.024 162.55 251.527 162.55C252.986 162.55 253.961 161.311 253.961 159.377C253.961 157.461 252.986 156.204 251.527 156.204Z" fill="black"/>
<rect width="349" height="16" transform="translate(90 104)" fill="white"/>
<rect x="90" y="647" width="349" height="60" rx="18" fill="white"/>
<path d="M124.812 660.09C123.277 660.09 122.301 658.953 122.301 657.168C122.301 655.402 123.281 654.273 124.812 654.273C126.004 654.273 126.945 655.051 127.098 656.152H126.562C126.406 655.34 125.688 654.77 124.812 654.77C123.617 654.77 122.848 655.703 122.848 657.168C122.848 658.652 123.617 659.594 124.816 659.594C125.715 659.594 126.395 659.113 126.562 658.332H127.098C126.898 659.43 126.035 660.09 124.812 660.09ZM131.659 654.273C133.229 654.273 134.221 655.398 134.221 657.184C134.221 658.969 133.233 660.09 131.659 660.09C130.088 660.09 129.1 658.969 129.1 657.184C129.1 655.398 130.088 654.273 131.659 654.273ZM131.659 654.77C130.424 654.77 129.647 655.703 129.647 657.184C129.647 658.66 130.424 659.594 131.659 659.594C132.893 659.594 133.674 658.66 133.674 657.184C133.674 655.703 132.893 654.77 131.659 654.77ZM137.021 660H136.493V654.363H137.021L140.325 659.07H140.353V654.363H140.88V660H140.364L137.048 655.289H137.021V660ZM145.394 660H144.859V654.848H143V654.363H147.257V654.848H145.394V660ZM149.905 654.84V657.219H151.319C152.139 657.219 152.615 656.781 152.615 656.027C152.615 655.281 152.119 654.84 151.299 654.84H149.905ZM149.905 657.691V660H149.373V654.363H151.362C152.463 654.363 153.166 655.008 153.166 656.012C153.166 656.809 152.713 657.41 151.959 657.605L153.326 660H152.701L151.405 657.691C151.385 657.691 151.346 657.691 151.319 657.691H149.905ZM159.223 660L158.598 658.273H156.231L155.606 660H155.04L157.149 654.363H157.68L159.786 660H159.223ZM157.403 655.023L156.391 657.812H158.438L157.427 655.023H157.403ZM163.952 660.09C162.417 660.09 161.441 658.953 161.441 657.168C161.441 655.402 162.421 654.273 163.952 654.273C165.144 654.273 166.085 655.051 166.238 656.152H165.702C165.546 655.34 164.827 654.77 163.952 654.77C162.757 654.77 161.988 655.703 161.988 657.168C161.988 658.652 162.757 659.594 163.956 659.594C164.855 659.594 165.535 659.113 165.702 658.332H166.238C166.038 659.43 165.175 660.09 163.952 660.09ZM170.232 660H169.697V654.848H167.838V654.363H172.096V654.848H170.232V660ZM173.899 658.469H174.434C174.493 659.145 175.129 659.605 176.012 659.605C176.856 659.605 177.461 659.145 177.461 658.512C177.461 657.984 177.098 657.672 176.262 657.461L175.563 657.281C174.52 657.016 174.055 656.574 174.055 655.832C174.055 654.922 174.875 654.273 175.985 654.273C177.083 654.273 177.887 654.922 177.918 655.816H177.383C177.333 655.18 176.77 654.758 175.969 654.758C175.188 654.758 174.61 655.191 174.61 655.812C174.61 656.297 174.961 656.582 175.79 656.793L176.399 656.949C177.532 657.234 178.008 657.668 178.008 658.453C178.008 659.441 177.211 660.09 175.965 660.09C174.786 660.09 173.958 659.438 173.899 658.469Z" fill="#838383"/>
<path d="M131.431 683L130.271 679.572H125.437L124.276 683H122.229L126.808 670.317H128.935L133.514 683H131.431ZM127.827 672.427L125.938 677.99H129.77L127.88 672.427H127.827ZM138.554 681.462C140.039 681.462 141.015 680.258 141.015 678.351C141.015 676.452 140.039 675.204 138.554 675.204C137.095 675.204 136.146 676.426 136.146 678.351C136.146 680.284 137.095 681.462 138.554 681.462ZM138.572 686.48C136.392 686.48 134.775 685.32 134.537 683.721H136.445C136.717 684.494 137.561 685.004 138.642 685.004C140.127 685.004 141.006 684.16 141.006 682.895V681.374H140.971C140.452 682.376 139.363 683.035 138.044 683.035C135.724 683.035 134.203 681.225 134.203 678.342C134.203 675.433 135.715 673.604 138.088 673.604C139.398 673.604 140.47 674.264 141.033 675.336H141.068V673.754H142.913V682.833C142.913 685.039 141.208 686.48 138.572 686.48ZM144.974 683V673.754H146.785V675.327H146.829C147.136 674.246 147.963 673.604 149.052 673.604C149.325 673.604 149.562 673.648 149.703 673.675V675.441C149.553 675.38 149.219 675.336 148.85 675.336C147.629 675.336 146.873 676.153 146.873 677.463V683H144.974ZM154.523 675.116C153.196 675.116 152.265 676.127 152.168 677.524H156.791C156.747 676.109 155.851 675.116 154.523 675.116ZM156.782 680.284H158.584C158.32 681.972 156.721 683.176 154.603 683.176C151.887 683.176 150.243 681.339 150.243 678.421C150.243 675.521 151.913 673.587 154.523 673.587C157.09 673.587 158.689 675.397 158.689 678.201V678.852H152.159V678.966C152.159 680.574 153.126 681.638 154.646 681.638C155.728 681.638 156.527 681.093 156.782 680.284ZM164.213 675.116C162.886 675.116 161.954 676.127 161.858 677.524H166.481C166.437 676.109 165.54 675.116 164.213 675.116ZM166.472 680.284H168.274C168.01 681.972 166.41 683.176 164.292 683.176C161.576 683.176 159.933 681.339 159.933 678.421C159.933 675.521 161.603 673.587 164.213 673.587C166.78 673.587 168.379 675.397 168.379 678.201V678.852H161.849V678.966C161.849 680.574 162.816 681.638 164.336 681.638C165.417 681.638 166.217 681.093 166.472 680.284ZM170.036 683V673.754H171.846V675.31H171.89C172.303 674.281 173.27 673.596 174.518 673.596C175.801 673.596 176.733 674.255 177.102 675.406H177.146C177.621 674.281 178.711 673.596 180.029 673.596C181.857 673.596 183.052 674.809 183.052 676.646V683H181.145V677.103C181.145 675.907 180.504 675.222 179.379 675.222C178.254 675.222 177.471 676.057 177.471 677.226V683H175.608V676.962C175.608 675.898 174.931 675.222 173.859 675.222C172.734 675.222 171.934 676.101 171.934 677.287V683H170.036ZM188.936 675.116C187.609 675.116 186.678 676.127 186.581 677.524H191.204C191.16 676.109 190.264 675.116 188.936 675.116ZM191.195 680.284H192.997C192.733 681.972 191.134 683.176 189.016 683.176C186.3 683.176 184.656 681.339 184.656 678.421C184.656 675.521 186.326 673.587 188.936 673.587C191.503 673.587 193.102 675.397 193.102 678.201V678.852H186.572V678.966C186.572 680.574 187.539 681.638 189.059 681.638C190.141 681.638 190.94 681.093 191.195 680.284ZM194.759 683V673.754H196.57V675.301H196.614C197.114 674.246 198.099 673.596 199.523 673.596C201.562 673.596 202.731 674.896 202.731 677.015V683H200.823V677.384C200.823 675.995 200.173 675.23 198.855 675.23C197.519 675.23 196.657 676.18 196.657 677.612V683H194.759ZM205.301 671.565H207.209V673.754H208.966V675.257H207.209V680.354C207.209 681.154 207.56 681.515 208.334 681.515C208.527 681.515 208.835 681.497 208.958 681.471V682.974C208.747 683.026 208.325 683.062 207.903 683.062C206.031 683.062 205.301 682.35 205.301 680.565V675.257H203.957V673.754H205.301V671.565Z" fill="black"/>
<rect width="349" height="16" transform="translate(90 647)" fill="white"/>
<g clip-path="url(#clip0_297_9763)">
<mask id="path-34-inside-1_297_9763" fill="white">
<path d="M114 528H415V588H114V528Z"/>
</mask>
<path d="M114 528H415V588H114V528Z" fill="white"/>
<path d="M127.957 541H127.457V536.375H127.434L125.473 540.973H125.008L123.051 536.375H123.027V541H122.527V535.363H123.141L125.23 540.297H125.254L127.34 535.363H127.957V541ZM130.983 541H130.452V535.363H130.983V541ZM134.005 541H133.478V535.363H134.005L137.31 540.07H137.337V535.363H137.864V541H137.349L134.032 536.289H134.005V541ZM140.894 541H140.363V535.363H140.894V541ZM148.819 541H148.319V536.375H148.295L146.334 540.973H145.869L143.912 536.375H143.889V541H143.389V535.363H144.002L146.092 540.297H146.115L148.201 535.363H148.819V541ZM151.845 535.363V539C151.845 539.945 152.462 540.594 153.493 540.594C154.528 540.594 155.141 539.945 155.141 539V535.363H155.677V539.031C155.677 540.246 154.848 541.09 153.493 541.09C152.138 541.09 151.313 540.246 151.313 539.031V535.363H151.845ZM163.597 541H163.097V536.375H163.074L161.113 540.973H160.648L158.691 536.375H158.667V541H158.167V535.363H158.781L160.87 540.297H160.894L162.98 535.363H163.597V541Z" fill="#838383"/>
<path d="M125.138 564H123.169V551.317H131.088V553.014H125.138V557.03H130.587V558.691H125.138V564ZM140.681 554.754V564H138.862V562.436H138.818C138.308 563.543 137.368 564.167 135.952 564.167C133.94 564.167 132.709 562.857 132.709 560.739V554.754H134.608V560.37C134.608 561.776 135.276 562.532 136.585 562.532C137.956 562.532 138.783 561.583 138.783 560.142V554.754H140.681ZM142.742 564V554.754H144.552V556.301H144.596C145.097 555.246 146.082 554.596 147.506 554.596C149.545 554.596 150.714 555.896 150.714 558.015V564H148.806V558.384C148.806 556.995 148.156 556.23 146.838 556.23C145.502 556.23 144.64 557.18 144.64 558.612V564H142.742ZM156.202 564.158C153.864 564.158 152.317 562.295 152.317 559.377C152.317 556.459 153.864 554.604 156.185 554.604C157.512 554.604 158.566 555.272 159.085 556.292H159.12V551.317H161.027V564H159.182V562.427H159.146C158.602 563.481 157.547 564.158 156.202 564.158ZM156.703 556.204C155.2 556.204 154.26 557.435 154.26 559.377C154.26 561.328 155.2 562.55 156.703 562.55C158.162 562.55 159.138 561.311 159.138 559.377C159.138 557.461 158.162 556.204 156.703 556.204ZM163.22 564V554.754H165.118V564H163.22ZM164.169 553.4C163.563 553.4 163.071 552.917 163.071 552.319C163.071 551.713 163.563 551.229 164.169 551.229C164.784 551.229 165.277 551.713 165.277 552.319C165.277 552.917 164.784 553.4 164.169 553.4ZM167.241 564V554.754H169.051V556.301H169.095C169.596 555.246 170.581 554.596 172.004 554.596C174.044 554.596 175.213 555.896 175.213 558.015V564H173.305V558.384C173.305 556.995 172.655 556.23 171.337 556.23C170.001 556.23 169.139 557.18 169.139 558.612V564H167.241ZM181.167 562.462C182.652 562.462 183.628 561.258 183.628 559.351C183.628 557.452 182.652 556.204 181.167 556.204C179.708 556.204 178.759 557.426 178.759 559.351C178.759 561.284 179.708 562.462 181.167 562.462ZM181.184 567.48C179.005 567.48 177.388 566.32 177.15 564.721H179.058C179.33 565.494 180.174 566.004 181.255 566.004C182.74 566.004 183.619 565.16 183.619 563.895V562.374H183.584C183.065 563.376 181.976 564.035 180.657 564.035C178.337 564.035 176.816 562.225 176.816 559.342C176.816 556.433 178.328 554.604 180.701 554.604C182.011 554.604 183.083 555.264 183.645 556.336H183.681V554.754H185.526V563.833C185.526 566.039 183.821 567.48 181.184 567.48ZM202.577 558.727C202.577 562.163 200.546 564.211 197.11 564.211C193.48 564.211 191.195 561.671 191.195 557.602C191.195 553.603 193.471 551.106 197.084 551.106C199.905 551.106 202.041 552.776 202.48 555.308H200.459C199.984 553.734 198.745 552.829 197.092 552.829C194.667 552.829 193.208 554.604 193.208 557.584C193.208 560.616 194.711 562.488 197.128 562.488C199.184 562.488 200.608 561.17 200.634 559.245V559.025H197.356V557.435H202.577V558.727ZM208.426 564.176C205.78 564.176 204.04 562.356 204.04 559.377C204.04 556.406 205.789 554.587 208.426 554.587C211.062 554.587 212.811 556.406 212.811 559.377C212.811 562.356 211.071 564.176 208.426 564.176ZM208.426 562.611C209.92 562.611 210.878 561.434 210.878 559.377C210.878 557.329 209.911 556.151 208.426 556.151C206.94 556.151 205.974 557.329 205.974 559.377C205.974 561.434 206.94 562.611 208.426 562.611ZM217.694 562.655C219.021 562.655 220.058 561.741 220.058 560.537V559.808L217.781 559.948C216.648 560.027 216.006 560.528 216.006 561.319C216.006 562.128 216.674 562.655 217.694 562.655ZM217.166 564.158C215.356 564.158 214.09 563.033 214.09 561.372C214.09 559.755 215.329 558.762 217.527 558.639L220.058 558.489V557.777C220.058 556.749 219.363 556.134 218.203 556.134C217.105 556.134 216.419 556.661 216.252 557.487H214.459C214.565 555.817 215.988 554.587 218.274 554.587C220.515 554.587 221.947 555.773 221.947 557.628V564H220.128V562.479H220.084C219.548 563.508 218.379 564.158 217.166 564.158ZM224.043 564V551.317H225.942V564H224.043Z" fill="black"/>
<rect width="301" height="16" transform="translate(114 528)" fill="white"/>
</g>
<path d="M114 529H415V527H114V529ZM415 587H114V589H415V587Z" fill="#DBDADA" mask="url(#path-34-inside-1_297_9763)"/>
<g clip-path="url(#clip1_297_9763)">
<mask id="path-38-inside-2_297_9763" fill="white">
<path d="M114 587H415V647H114V587Z"/>
</mask>
<path d="M114 587H415V647H114V587Z" fill="white"/>
<path d="M123.055 600H122.527V594.363H123.055L126.359 599.07H126.387V594.363H126.914V600H126.398L123.082 595.289H123.055V600ZM129.944 594.363V598C129.944 598.945 130.561 599.594 131.592 599.594C132.628 599.594 133.241 598.945 133.241 598V594.363H133.776V598.031C133.776 599.246 132.948 600.09 131.592 600.09C130.237 600.09 129.413 599.246 129.413 598.031V594.363H129.944ZM141.696 600H141.196V595.375H141.173L139.212 599.973H138.747L136.79 595.375H136.767V600H136.267V594.363H136.88L138.97 599.297H138.993L141.079 594.363H141.696V600ZM146.23 600H144.191V594.363H146.218C147.187 594.363 147.843 594.922 147.843 595.754C147.843 596.379 147.414 596.914 146.812 597.023V597.051C147.593 597.145 148.136 597.672 148.136 598.453C148.136 599.414 147.422 600 146.23 600ZM144.722 594.836V596.867H145.949C146.804 596.867 147.304 596.477 147.304 595.812C147.304 595.199 146.855 594.836 146.105 594.836H144.722ZM144.722 599.527H146.156C147.078 599.527 147.59 599.125 147.59 598.426C147.59 597.723 147.058 597.328 146.086 597.328H144.722V599.527ZM153.744 599.516V600H150.342V594.363H153.744V594.848H150.873V596.875H153.6V597.352H150.873V599.516H153.744ZM156.626 594.84V597.219H158.04C158.86 597.219 159.337 596.781 159.337 596.027C159.337 595.281 158.841 594.84 158.02 594.84H156.626ZM156.626 597.691V600H156.095V594.363H158.083C159.184 594.363 159.888 595.008 159.888 596.012C159.888 596.809 159.434 597.41 158.68 597.605L160.048 600H159.423L158.126 597.691C158.106 597.691 158.067 597.691 158.04 597.691H156.626ZM167.611 594.273C169.182 594.273 170.174 595.398 170.174 597.184C170.174 598.969 169.185 600.09 167.611 600.09C166.041 600.09 165.053 598.969 165.053 597.184C165.053 595.398 166.041 594.273 167.611 594.273ZM167.611 594.77C166.377 594.77 165.6 595.703 165.6 597.184C165.6 598.66 166.377 599.594 167.611 599.594C168.846 599.594 169.627 598.66 169.627 597.184C169.627 595.703 168.846 594.77 167.611 594.77ZM172.977 600H172.446V594.363H175.79V594.848H172.977V596.965H175.563V597.441H172.977V600Z" fill="#838383"/>
<path d="M123.169 610.317H127.924C130.385 610.317 132.099 612.014 132.099 614.483C132.099 616.962 130.35 618.667 127.862 618.667H125.138V623H123.169V610.317ZM125.138 611.979V617.015H127.396C129.11 617.015 130.086 616.092 130.086 614.492C130.086 612.893 129.11 611.979 127.405 611.979H125.138ZM136.269 621.655C137.596 621.655 138.633 620.741 138.633 619.537V618.808L136.357 618.948C135.223 619.027 134.581 619.528 134.581 620.319C134.581 621.128 135.249 621.655 136.269 621.655ZM135.742 623.158C133.931 623.158 132.665 622.033 132.665 620.372C132.665 618.755 133.905 617.762 136.102 617.639L138.633 617.489V616.777C138.633 615.749 137.939 615.134 136.779 615.134C135.68 615.134 134.994 615.661 134.827 616.487H133.034C133.14 614.817 134.564 613.587 136.849 613.587C139.09 613.587 140.523 614.773 140.523 616.628V623H138.703V621.479H138.659C138.123 622.508 136.954 623.158 135.742 623.158ZM142.548 623V613.754H144.359V615.327H144.403C144.711 614.246 145.537 613.604 146.627 613.604C146.899 613.604 147.136 613.648 147.277 613.675V615.441C147.128 615.38 146.794 615.336 146.424 615.336C145.203 615.336 144.447 616.153 144.447 617.463V623H142.548ZM149.188 611.565H151.096V613.754H152.853V615.257H151.096V620.354C151.096 621.154 151.447 621.515 152.221 621.515C152.414 621.515 152.722 621.497 152.845 621.471V622.974C152.634 623.026 152.212 623.062 151.79 623.062C149.918 623.062 149.188 622.35 149.188 620.565V615.257H147.844V613.754H149.188V611.565ZM154.659 623V613.754H156.558V623H154.659ZM155.609 612.4C155.002 612.4 154.51 611.917 154.51 611.319C154.51 610.713 155.002 610.229 155.609 610.229C156.224 610.229 156.716 610.713 156.716 611.319C156.716 611.917 156.224 612.4 155.609 612.4ZM166.617 616.936H164.806C164.613 615.951 163.875 615.169 162.635 615.169C161.168 615.169 160.201 616.391 160.201 618.377C160.201 620.407 161.176 621.585 162.653 621.585C163.822 621.585 164.587 620.943 164.806 619.871H166.634C166.432 621.84 164.859 623.176 162.635 623.176C159.99 623.176 158.267 621.365 158.267 618.377C158.267 615.441 159.99 613.587 162.618 613.587C165 613.587 166.45 615.116 166.617 616.936ZM168.221 623V613.754H170.119V623H168.221ZM169.17 612.4C168.563 612.4 168.071 611.917 168.071 611.319C168.071 610.713 168.563 610.229 169.17 610.229C169.785 610.229 170.277 610.713 170.277 611.319C170.277 611.917 169.785 612.4 169.17 612.4ZM177.058 613.604C179.405 613.604 180.951 615.45 180.951 618.377C180.951 621.304 179.413 623.158 177.093 623.158C175.766 623.158 174.711 622.508 174.184 621.479H174.14V626.059H172.241V613.754H174.078V615.345H174.114C174.658 614.281 175.722 613.604 177.058 613.604ZM176.557 621.55C178.06 621.55 179 620.319 179 618.377C179 616.443 178.06 615.204 176.557 615.204C175.107 615.204 174.131 616.47 174.131 618.377C174.131 620.302 175.098 621.55 176.557 621.55ZM185.834 621.655C187.161 621.655 188.198 620.741 188.198 619.537V618.808L185.921 618.948C184.788 619.027 184.146 619.528 184.146 620.319C184.146 621.128 184.814 621.655 185.834 621.655ZM185.306 623.158C183.496 623.158 182.23 622.033 182.23 620.372C182.23 618.755 183.469 617.762 185.667 617.639L188.198 617.489V616.777C188.198 615.749 187.503 615.134 186.343 615.134C185.245 615.134 184.559 615.661 184.392 616.487H182.599C182.705 614.817 184.128 613.587 186.414 613.587C188.655 613.587 190.087 614.773 190.087 616.628V623H188.268V621.479H188.224C187.688 622.508 186.519 623.158 185.306 623.158ZM192.113 623V613.754H193.924V615.301H193.968C194.469 614.246 195.453 613.596 196.877 613.596C198.916 613.596 200.085 614.896 200.085 617.015V623H198.178V617.384C198.178 615.995 197.527 615.23 196.209 615.23C194.873 615.23 194.012 616.18 194.012 617.612V623H192.113ZM202.655 611.565H204.563V613.754H206.321V615.257H204.563V620.354C204.563 621.154 204.914 621.515 205.688 621.515C205.881 621.515 206.189 621.497 206.312 621.471V622.974C206.101 623.026 205.679 623.062 205.257 623.062C203.385 623.062 202.655 622.35 202.655 620.565V615.257H201.311V613.754H202.655V611.565ZM207.898 616.373C207.898 614.721 209.357 613.587 211.519 613.587C213.576 613.587 215.017 614.738 215.079 616.382H213.294C213.207 615.547 212.53 615.028 211.466 615.028C210.438 615.028 209.752 615.529 209.752 616.259C209.752 616.83 210.209 617.217 211.168 617.454L212.723 617.814C214.586 618.263 215.29 618.966 215.29 620.328C215.29 622.016 213.716 623.176 211.449 623.176C209.26 623.176 207.81 622.042 207.661 620.346H209.542C209.691 621.233 210.376 621.726 211.537 621.726C212.679 621.726 213.382 621.251 213.382 620.504C213.382 619.915 213.031 619.59 212.064 619.344L210.412 618.939C208.742 618.535 207.898 617.665 207.898 616.373Z" fill="black"/>
<rect width="301" height="16" transform="translate(114 587)" fill="white"/>
</g>
<path d="M114 588H415V586H114V588ZM415 646H114V648H415V646Z" fill="#DBDADA" mask="url(#path-38-inside-2_297_9763)"/>
</g>
<defs>
<filter id="filter0_dd_297_9763" x="0" y="0" width="539" height="998" filterUnits="userSpaceOnUse" color-interpolation-filters="sRGB">
<feFlood flood-opacity="0" result="BackgroundImageFix"/>
<feColorMatrix in="SourceAlpha" type="matrix" values="0 0 0 0 0 0 0 0 0 0 0 0 0 0 0 0 0 0 127 0" result="hardAlpha"/>
<feOffset dx="28" dy="28"/>
<feGaussianBlur stdDeviation="25"/>
<feComposite in2="hardAlpha" operator="out"/>
<feColorMatrix type="matrix" values="0 0 0 0 0.0509804 0 0 0 0 0.152941 0 0 0 0 0.313726 0 0 0 0.16 0"/>
<feBlend mode="normal" in2="BackgroundImageFix" result="effect1_dropShadow_297_9763"/>
<feColorMatrix in="SourceAlpha" type="matrix" values="0 0 0 0 0 0 0 0 0 0 0 0 0 0 0 0 0 0 127 0" result="hardAlpha"/>
<feOffset dx="-23" dy="-23"/>
<feGaussianBlur stdDeviation="22.5"/>
<feComposite in2="hardAlpha" operator="out"/>
<feColorMatrix type="matrix" values="0 0 0 0 1 0 0 0 0 1 0 0 0 0 1 0 0 0 1 0"/>
<feBlend mode="normal" in2="effect1_dropShadow_297_9763" result="effect2_dropShadow_297_9763"/>
<feBlend mode="normal" in="SourceGraphic" in2="effect2_dropShadow_297_9763" result="shape"/>
</filter>
<filter id="filter1_i_297_9763" x="117" y="191" width="149" height="37" filterUnits="userSpaceOnUse" color-interpolation-filters="sRGB">
<feFlood flood-opacity="0" result="BackgroundImageFix"/>
<feBlend mode="normal" in="SourceGraphic" in2="BackgroundImageFix" result="shape"/>
<feColorMatrix in="SourceAlpha" type="matrix" values="0 0 0 0 0 0 0 0 0 0 0 0 0 0 0 0 0 0 127 0" result="hardAlpha"/>
<feOffset dx="3" dy="3"/>
<feGaussianBlur stdDeviation="2"/>
<feComposite in2="hardAlpha" operator="arithmetic" k2="-1" k3="1"/>
<feColorMatrix type="matrix" values="0 0 0 0 1 0 0 0 0 1 0 0 0 0 1 0 0 0 0.25 0"/>
<feBlend mode="normal" in2="shape" result="effect1_innerShadow_297_9763"/>
</filter>
<linearGradient id="paint0_linear_297_9763" x1="117" y1="208" x2="260.581" y2="211.384" gradientUnits="userSpaceOnUse">
<stop stop-color="#6651B2"/>
<stop offset="1" stop-color="#9E8BEB"/>
</linearGradient>
<clipPath id="clip0_297_9763">
<path d="M114 528H415V588H114V528Z" fill="white"/>
</clipPath>
<clipPath id="clip1_297_9763">
<path d="M114 587H415V647H114V587Z" fill="white"/>
</clipPath>
</defs>
</svg>
