<svg width="539" height="581" viewBox="0 0 539 581" fill="none" xmlns="http://www.w3.org/2000/svg">
<g filter="url(#filter0_dd_297_9681)">
<rect x="68" y="68" width="393" height="852" fill="#F7F7F7"/>
<rect x="90" y="104" width="349" height="635" rx="18" fill="white"/>
<g clip-path="url(#clip0_297_9681)">
<rect x="90" y="104" width="349" height="60" rx="18" fill="white"/>
<path d="M124.543 117H124.008V111.848H122.148V111.363H126.406V111.848H124.543V117ZM129.053 111.84V114.219H130.467C131.288 114.219 131.764 113.781 131.764 113.027C131.764 112.281 131.268 111.84 130.448 111.84H129.053ZM129.053 114.691V117H128.522V111.363H130.51C131.612 111.363 132.315 112.008 132.315 113.012C132.315 113.809 131.862 114.41 131.108 114.605L132.475 117H131.85L130.553 114.691C130.534 114.691 130.495 114.691 130.467 114.691H129.053ZM138.372 117L137.747 115.273H135.38L134.755 117H134.189L136.298 111.363H136.829L138.935 117H138.372ZM136.552 112.023L135.54 114.812H137.587L136.575 112.023H136.552ZM141.523 117H140.996V111.363H141.523L144.828 116.07H144.855V111.363H145.382V117H144.867L141.55 112.289H141.523V117ZM147.608 115.469H148.143C148.201 116.145 148.838 116.605 149.721 116.605C150.565 116.605 151.17 116.145 151.17 115.512C151.17 114.984 150.807 114.672 149.971 114.461L149.272 114.281C148.229 114.016 147.764 113.574 147.764 112.832C147.764 111.922 148.584 111.273 149.694 111.273C150.791 111.273 151.596 111.922 151.627 112.816H151.092C151.041 112.18 150.479 111.758 149.678 111.758C148.897 111.758 148.319 112.191 148.319 112.812C148.319 113.297 148.67 113.582 149.498 113.793L150.108 113.949C151.24 114.234 151.717 114.668 151.717 115.453C151.717 116.441 150.92 117.09 149.674 117.09C148.494 117.09 147.666 116.438 147.608 115.469ZM157.684 117L157.059 115.273H154.692L154.067 117H153.501L155.61 111.363H156.141L158.247 117H157.684ZM155.864 112.023L154.852 114.812H156.899L155.888 112.023H155.864ZM162.413 117.09C160.878 117.09 159.902 115.953 159.902 114.168C159.902 112.402 160.882 111.273 162.413 111.273C163.605 111.273 164.546 112.051 164.699 113.152H164.163C164.007 112.34 163.288 111.77 162.413 111.77C161.218 111.77 160.449 112.703 160.449 114.168C160.449 115.652 161.218 116.594 162.417 116.594C163.316 116.594 163.995 116.113 164.163 115.332H164.699C164.499 116.43 163.636 117.09 162.413 117.09ZM168.693 117H168.158V111.848H166.299V111.363H170.557V111.848H168.693V117ZM173.204 117H172.672V111.363H173.204V117ZM178.03 111.273C179.601 111.273 180.593 112.398 180.593 114.184C180.593 115.969 179.605 117.09 178.03 117.09C176.46 117.09 175.472 115.969 175.472 114.184C175.472 112.398 176.46 111.273 178.03 111.273ZM178.03 111.77C176.796 111.77 176.019 112.703 176.019 114.184C176.019 115.66 176.796 116.594 178.03 116.594C179.265 116.594 180.046 115.66 180.046 114.184C180.046 112.703 179.265 111.77 178.03 111.77ZM183.392 117H182.865V111.363H183.392L186.697 116.07H186.724V111.363H187.252V117H186.736L183.42 112.289H183.392V117ZM189.477 115.469H190.012C190.07 116.145 190.707 116.605 191.59 116.605C192.434 116.605 193.039 116.145 193.039 115.512C193.039 114.984 192.676 114.672 191.84 114.461L191.141 114.281C190.098 114.016 189.633 113.574 189.633 112.832C189.633 111.922 190.453 111.273 191.563 111.273C192.66 111.273 193.465 111.922 193.496 112.816H192.961C192.91 112.18 192.348 111.758 191.547 111.758C190.766 111.758 190.188 112.191 190.188 112.812C190.188 113.297 190.539 113.582 191.367 113.793L191.977 113.949C193.11 114.234 193.586 114.668 193.586 115.453C193.586 116.441 192.789 117.09 191.543 117.09C190.363 117.09 189.535 116.438 189.477 115.469Z" fill="#838383"/>
<path d="M123.169 127.317H127.924C130.385 127.317 132.099 129.014 132.099 131.483C132.099 133.962 130.35 135.667 127.862 135.667H125.138V140H123.169V127.317ZM125.138 128.979V134.015H127.396C129.11 134.015 130.086 133.092 130.086 131.492C130.086 129.893 129.11 128.979 127.405 128.979H125.138ZM136.269 138.655C137.596 138.655 138.633 137.741 138.633 136.537V135.808L136.357 135.948C135.223 136.027 134.581 136.528 134.581 137.319C134.581 138.128 135.249 138.655 136.269 138.655ZM135.742 140.158C133.931 140.158 132.665 139.033 132.665 137.372C132.665 135.755 133.905 134.762 136.102 134.639L138.633 134.489V133.777C138.633 132.749 137.939 132.134 136.779 132.134C135.68 132.134 134.994 132.661 134.827 133.487H133.034C133.14 131.817 134.564 130.587 136.849 130.587C139.09 130.587 140.523 131.773 140.523 133.628V140H138.703V138.479H138.659C138.123 139.508 136.954 140.158 135.742 140.158ZM143.463 143.445C143.313 143.445 142.83 143.428 142.689 143.401V141.863C142.83 141.898 143.146 141.898 143.304 141.898C144.192 141.898 144.658 141.529 144.948 140.58C144.948 140.562 145.115 140.018 145.115 140.009L141.775 130.754H143.832L146.178 138.277H146.205L148.551 130.754H150.555L147.084 140.483C146.293 142.725 145.387 143.445 143.463 143.445ZM151.852 140V130.754H153.662V132.31H153.706C154.119 131.281 155.086 130.596 156.334 130.596C157.617 130.596 158.549 131.255 158.918 132.406H158.962C159.436 131.281 160.526 130.596 161.845 130.596C163.673 130.596 164.868 131.809 164.868 133.646V140H162.961V134.103C162.961 132.907 162.319 132.222 161.194 132.222C160.069 132.222 159.287 133.057 159.287 134.226V140H157.424V133.962C157.424 132.898 156.747 132.222 155.675 132.222C154.55 132.222 153.75 133.101 153.75 134.287V140H151.852ZM170.752 132.116C169.425 132.116 168.493 133.127 168.397 134.524H173.02C172.976 133.109 172.079 132.116 170.752 132.116ZM173.011 137.284H174.813C174.549 138.972 172.949 140.176 170.831 140.176C168.116 140.176 166.472 138.339 166.472 135.421C166.472 132.521 168.142 130.587 170.752 130.587C173.319 130.587 174.918 132.397 174.918 135.201V135.852H168.388V135.966C168.388 137.574 169.355 138.638 170.875 138.638C171.956 138.638 172.756 138.093 173.011 137.284ZM176.575 140V130.754H178.385V132.301H178.429C178.93 131.246 179.915 130.596 181.338 130.596C183.378 130.596 184.546 131.896 184.546 134.015V140H182.639V134.384C182.639 132.995 181.989 132.23 180.671 132.23C179.335 132.23 178.473 133.18 178.473 134.612V140H176.575ZM187.117 128.565H189.024V130.754H190.782V132.257H189.024V137.354C189.024 138.154 189.376 138.515 190.149 138.515C190.343 138.515 190.65 138.497 190.773 138.471V139.974C190.562 140.026 190.141 140.062 189.719 140.062C187.847 140.062 187.117 139.35 187.117 137.565V132.257H185.772V130.754H187.117V128.565ZM209.423 140H207.622V130.666H207.56L203.737 139.903H202.278L198.446 130.666H198.384V140H196.591V127.317H198.868L202.972 137.328H203.043L207.138 127.317H209.423V140ZM215.58 132.116C214.253 132.116 213.321 133.127 213.224 134.524H217.848C217.804 133.109 216.907 132.116 215.58 132.116ZM217.839 137.284H219.641C219.377 138.972 217.777 140.176 215.659 140.176C212.943 140.176 211.3 138.339 211.3 135.421C211.3 132.521 212.97 130.587 215.58 130.587C218.146 130.587 219.746 132.397 219.746 135.201V135.852H213.216V135.966C213.216 137.574 214.183 138.638 215.703 138.638C216.784 138.638 217.584 138.093 217.839 137.284ZM221.956 128.565H223.863V130.754H225.621V132.257H223.863V137.354C223.863 138.154 224.215 138.515 224.988 138.515C225.182 138.515 225.489 138.497 225.613 138.471V139.974C225.402 140.026 224.98 140.062 224.558 140.062C222.686 140.062 221.956 139.35 221.956 137.565V132.257H220.612V130.754H221.956V128.565ZM227.436 140V127.317H229.317V132.301H229.361C229.871 131.22 230.881 130.596 232.288 130.596C234.318 130.596 235.531 131.949 235.531 134.041V140H233.624V134.41C233.624 133.048 232.938 132.23 231.602 132.23C230.196 132.23 229.334 133.197 229.334 134.656V140H227.436ZM241.52 140.176C238.875 140.176 237.135 138.356 237.135 135.377C237.135 132.406 238.884 130.587 241.52 130.587C244.157 130.587 245.906 132.406 245.906 135.377C245.906 138.356 244.166 140.176 241.52 140.176ZM241.52 138.611C243.014 138.611 243.973 137.434 243.973 135.377C243.973 133.329 243.006 132.151 241.52 132.151C240.035 132.151 239.068 133.329 239.068 135.377C239.068 137.434 240.035 138.611 241.52 138.611ZM251.026 140.158C248.688 140.158 247.141 138.295 247.141 135.377C247.141 132.459 248.688 130.604 251.008 130.604C252.335 130.604 253.39 131.272 253.908 132.292H253.944V127.317H255.851V140H254.005V138.427H253.97C253.425 139.481 252.37 140.158 251.026 140.158ZM251.527 132.204C250.024 132.204 249.083 133.435 249.083 135.377C249.083 137.328 250.024 138.55 251.527 138.55C252.986 138.55 253.961 137.311 253.961 135.377C253.961 133.461 252.986 132.204 251.527 132.204Z" fill="#2D1F4C"/>
<rect width="349" height="16" transform="translate(90 104)" fill="white"/>
<path d="M400.997 137.172L410.189 127.979L411.604 129.393L400.997 140L394.633 133.636L396.047 132.222L400.997 137.172Z" fill="#2D3748"/>
</g>
<g clip-path="url(#clip1_297_9681)">
<mask id="path-7-inside-1_297_9681" fill="white">
<path d="M114 164H415V224H114V164Z"/>
</mask>
<path d="M114 164H415V224H114V164Z" fill="white"/>
<path d="M127.957 177H127.457V172.375H127.434L125.473 176.973H125.008L123.051 172.375H123.027V177H122.527V171.363H123.141L125.23 176.297H125.254L127.34 171.363H127.957V177ZM130.983 177H130.452V171.363H130.983V177ZM134.005 177H133.478V171.363H134.005L137.31 176.07H137.337V171.363H137.864V177H137.349L134.032 172.289H134.005V177ZM140.894 177H140.363V171.363H140.894V177ZM148.819 177H148.319V172.375H148.295L146.334 176.973H145.869L143.912 172.375H143.889V177H143.389V171.363H144.002L146.092 176.297H146.115L148.201 171.363H148.819V177ZM151.845 171.363V175C151.845 175.945 152.462 176.594 153.493 176.594C154.528 176.594 155.141 175.945 155.141 175V171.363H155.677V175.031C155.677 176.246 154.848 177.09 153.493 177.09C152.138 177.09 151.313 176.246 151.313 175.031V171.363H151.845ZM163.597 177H163.097V172.375H163.074L161.113 176.973H160.648L158.691 172.375H158.667V177H158.167V171.363H158.781L160.87 176.297H160.894L162.98 171.363H163.597V177Z" fill="#838383"/>
<path d="M125.138 200H123.169V187.317H131.088V189.014H125.138V193.03H130.587V194.691H125.138V200ZM140.681 190.754V200H138.862V198.436H138.818C138.308 199.543 137.368 200.167 135.952 200.167C133.94 200.167 132.709 198.857 132.709 196.739V190.754H134.608V196.37C134.608 197.776 135.276 198.532 136.585 198.532C137.956 198.532 138.783 197.583 138.783 196.142V190.754H140.681ZM142.742 200V190.754H144.552V192.301H144.596C145.097 191.246 146.082 190.596 147.506 190.596C149.545 190.596 150.714 191.896 150.714 194.015V200H148.806V194.384C148.806 192.995 148.156 192.23 146.838 192.23C145.502 192.23 144.64 193.18 144.64 194.612V200H142.742ZM156.202 200.158C153.864 200.158 152.317 198.295 152.317 195.377C152.317 192.459 153.864 190.604 156.185 190.604C157.512 190.604 158.566 191.272 159.085 192.292H159.12V187.317H161.027V200H159.182V198.427H159.146C158.602 199.481 157.547 200.158 156.202 200.158ZM156.703 192.204C155.2 192.204 154.26 193.435 154.26 195.377C154.26 197.328 155.2 198.55 156.703 198.55C158.162 198.55 159.138 197.311 159.138 195.377C159.138 193.461 158.162 192.204 156.703 192.204ZM163.22 200V190.754H165.118V200H163.22ZM164.169 189.4C163.563 189.4 163.071 188.917 163.071 188.319C163.071 187.713 163.563 187.229 164.169 187.229C164.784 187.229 165.277 187.713 165.277 188.319C165.277 188.917 164.784 189.4 164.169 189.4ZM167.241 200V190.754H169.051V192.301H169.095C169.596 191.246 170.581 190.596 172.004 190.596C174.044 190.596 175.213 191.896 175.213 194.015V200H173.305V194.384C173.305 192.995 172.655 192.23 171.337 192.23C170.001 192.23 169.139 193.18 169.139 194.612V200H167.241ZM181.167 198.462C182.652 198.462 183.628 197.258 183.628 195.351C183.628 193.452 182.652 192.204 181.167 192.204C179.708 192.204 178.759 193.426 178.759 195.351C178.759 197.284 179.708 198.462 181.167 198.462ZM181.184 203.48C179.005 203.48 177.388 202.32 177.15 200.721H179.058C179.33 201.494 180.174 202.004 181.255 202.004C182.74 202.004 183.619 201.16 183.619 199.895V198.374H183.584C183.065 199.376 181.976 200.035 180.657 200.035C178.337 200.035 176.816 198.225 176.816 195.342C176.816 192.433 178.328 190.604 180.701 190.604C182.011 190.604 183.083 191.264 183.645 192.336H183.681V190.754H185.526V199.833C185.526 202.039 183.821 203.48 181.184 203.48ZM202.577 194.727C202.577 198.163 200.546 200.211 197.11 200.211C193.48 200.211 191.195 197.671 191.195 193.602C191.195 189.603 193.471 187.106 197.084 187.106C199.905 187.106 202.041 188.776 202.48 191.308H200.459C199.984 189.734 198.745 188.829 197.092 188.829C194.667 188.829 193.208 190.604 193.208 193.584C193.208 196.616 194.711 198.488 197.128 198.488C199.184 198.488 200.608 197.17 200.634 195.245V195.025H197.356V193.435H202.577V194.727ZM208.426 200.176C205.78 200.176 204.04 198.356 204.04 195.377C204.04 192.406 205.789 190.587 208.426 190.587C211.062 190.587 212.811 192.406 212.811 195.377C212.811 198.356 211.071 200.176 208.426 200.176ZM208.426 198.611C209.92 198.611 210.878 197.434 210.878 195.377C210.878 193.329 209.911 192.151 208.426 192.151C206.94 192.151 205.974 193.329 205.974 195.377C205.974 197.434 206.94 198.611 208.426 198.611ZM217.694 198.655C219.021 198.655 220.058 197.741 220.058 196.537V195.808L217.781 195.948C216.648 196.027 216.006 196.528 216.006 197.319C216.006 198.128 216.674 198.655 217.694 198.655ZM217.166 200.158C215.356 200.158 214.09 199.033 214.09 197.372C214.09 195.755 215.329 194.762 217.527 194.639L220.058 194.489V193.777C220.058 192.749 219.363 192.134 218.203 192.134C217.105 192.134 216.419 192.661 216.252 193.487H214.459C214.565 191.817 215.988 190.587 218.274 190.587C220.515 190.587 221.947 191.773 221.947 193.628V200H220.128V198.479H220.084C219.548 199.508 218.379 200.158 217.166 200.158ZM224.043 200V187.317H225.942V200H224.043Z" fill="#2D1F4C"/>
<rect width="301" height="16" transform="translate(114 164)" fill="white"/>
<path d="M400.997 197.172L410.189 187.979L411.604 189.393L400.997 200L394.633 193.636L396.047 192.222L400.997 197.172Z" fill="#2D3748"/>
</g>
<path d="M114 165H415V163H114V165ZM415 223H114V225H415V223Z" fill="#DBDADA" mask="url(#path-7-inside-1_297_9681)"/>
<g clip-path="url(#clip2_297_9681)">
<mask id="path-12-inside-2_297_9681" fill="white">
<path d="M114 223H415V283H114V223Z"/>
</mask>
<path d="M114 223H415V283H114V223Z" fill="white"/>
<path d="M123.055 236H122.527V230.363H123.055L126.359 235.07H126.387V230.363H126.914V236H126.398L123.082 231.289H123.055V236ZM129.944 230.363V234C129.944 234.945 130.561 235.594 131.592 235.594C132.628 235.594 133.241 234.945 133.241 234V230.363H133.776V234.031C133.776 235.246 132.948 236.09 131.592 236.09C130.237 236.09 129.413 235.246 129.413 234.031V230.363H129.944ZM141.696 236H141.196V231.375H141.173L139.212 235.973H138.747L136.79 231.375H136.767V236H136.267V230.363H136.88L138.97 235.297H138.993L141.079 230.363H141.696V236ZM146.23 236H144.191V230.363H146.218C147.187 230.363 147.843 230.922 147.843 231.754C147.843 232.379 147.414 232.914 146.812 233.023V233.051C147.593 233.145 148.136 233.672 148.136 234.453C148.136 235.414 147.422 236 146.23 236ZM144.722 230.836V232.867H145.949C146.804 232.867 147.304 232.477 147.304 231.812C147.304 231.199 146.855 230.836 146.105 230.836H144.722ZM144.722 235.527H146.156C147.078 235.527 147.59 235.125 147.59 234.426C147.59 233.723 147.058 233.328 146.086 233.328H144.722V235.527ZM153.744 235.516V236H150.342V230.363H153.744V230.848H150.873V232.875H153.6V233.352H150.873V235.516H153.744ZM156.626 230.84V233.219H158.04C158.86 233.219 159.337 232.781 159.337 232.027C159.337 231.281 158.841 230.84 158.02 230.84H156.626ZM156.626 233.691V236H156.095V230.363H158.083C159.184 230.363 159.888 231.008 159.888 232.012C159.888 232.809 159.434 233.41 158.68 233.605L160.048 236H159.423L158.126 233.691C158.106 233.691 158.067 233.691 158.04 233.691H156.626ZM167.611 230.273C169.182 230.273 170.174 231.398 170.174 233.184C170.174 234.969 169.185 236.09 167.611 236.09C166.041 236.09 165.053 234.969 165.053 233.184C165.053 231.398 166.041 230.273 167.611 230.273ZM167.611 230.77C166.377 230.77 165.6 231.703 165.6 233.184C165.6 234.66 166.377 235.594 167.611 235.594C168.846 235.594 169.627 234.66 169.627 233.184C169.627 231.703 168.846 230.77 167.611 230.77ZM172.977 236H172.446V230.363H175.79V230.848H172.977V232.965H175.563V233.441H172.977V236Z" fill="#838383"/>
<path d="M123.169 246.317H127.924C130.385 246.317 132.099 248.014 132.099 250.483C132.099 252.962 130.35 254.667 127.862 254.667H125.138V259H123.169V246.317ZM125.138 247.979V253.015H127.396C129.11 253.015 130.086 252.092 130.086 250.492C130.086 248.893 129.11 247.979 127.405 247.979H125.138ZM136.269 257.655C137.596 257.655 138.633 256.741 138.633 255.537V254.808L136.357 254.948C135.223 255.027 134.581 255.528 134.581 256.319C134.581 257.128 135.249 257.655 136.269 257.655ZM135.742 259.158C133.931 259.158 132.665 258.033 132.665 256.372C132.665 254.755 133.905 253.762 136.102 253.639L138.633 253.489V252.777C138.633 251.749 137.939 251.134 136.779 251.134C135.68 251.134 134.994 251.661 134.827 252.487H133.034C133.14 250.817 134.564 249.587 136.849 249.587C139.09 249.587 140.523 250.773 140.523 252.628V259H138.703V257.479H138.659C138.123 258.508 136.954 259.158 135.742 259.158ZM142.548 259V249.754H144.359V251.327H144.403C144.711 250.246 145.537 249.604 146.627 249.604C146.899 249.604 147.136 249.648 147.277 249.675V251.441C147.128 251.38 146.794 251.336 146.424 251.336C145.203 251.336 144.447 252.153 144.447 253.463V259H142.548ZM149.188 247.565H151.096V249.754H152.853V251.257H151.096V256.354C151.096 257.154 151.447 257.515 152.221 257.515C152.414 257.515 152.722 257.497 152.845 257.471V258.974C152.634 259.026 152.212 259.062 151.79 259.062C149.918 259.062 149.188 258.35 149.188 256.565V251.257H147.844V249.754H149.188V247.565ZM154.659 259V249.754H156.558V259H154.659ZM155.609 248.4C155.002 248.4 154.51 247.917 154.51 247.319C154.51 246.713 155.002 246.229 155.609 246.229C156.224 246.229 156.716 246.713 156.716 247.319C156.716 247.917 156.224 248.4 155.609 248.4ZM166.617 252.936H164.806C164.613 251.951 163.875 251.169 162.635 251.169C161.168 251.169 160.201 252.391 160.201 254.377C160.201 256.407 161.176 257.585 162.653 257.585C163.822 257.585 164.587 256.943 164.806 255.871H166.634C166.432 257.84 164.859 259.176 162.635 259.176C159.99 259.176 158.267 257.365 158.267 254.377C158.267 251.441 159.99 249.587 162.618 249.587C165 249.587 166.45 251.116 166.617 252.936ZM168.221 259V249.754H170.119V259H168.221ZM169.17 248.4C168.563 248.4 168.071 247.917 168.071 247.319C168.071 246.713 168.563 246.229 169.17 246.229C169.785 246.229 170.277 246.713 170.277 247.319C170.277 247.917 169.785 248.4 169.17 248.4ZM177.058 249.604C179.405 249.604 180.951 251.45 180.951 254.377C180.951 257.304 179.413 259.158 177.093 259.158C175.766 259.158 174.711 258.508 174.184 257.479H174.14V262.059H172.241V249.754H174.078V251.345H174.114C174.658 250.281 175.722 249.604 177.058 249.604ZM176.557 257.55C178.06 257.55 179 256.319 179 254.377C179 252.443 178.06 251.204 176.557 251.204C175.107 251.204 174.131 252.47 174.131 254.377C174.131 256.302 175.098 257.55 176.557 257.55ZM185.834 257.655C187.161 257.655 188.198 256.741 188.198 255.537V254.808L185.921 254.948C184.788 255.027 184.146 255.528 184.146 256.319C184.146 257.128 184.814 257.655 185.834 257.655ZM185.306 259.158C183.496 259.158 182.23 258.033 182.23 256.372C182.23 254.755 183.469 253.762 185.667 253.639L188.198 253.489V252.777C188.198 251.749 187.503 251.134 186.343 251.134C185.245 251.134 184.559 251.661 184.392 252.487H182.599C182.705 250.817 184.128 249.587 186.414 249.587C188.655 249.587 190.087 250.773 190.087 252.628V259H188.268V257.479H188.224C187.688 258.508 186.519 259.158 185.306 259.158ZM192.113 259V249.754H193.924V251.301H193.968C194.469 250.246 195.453 249.596 196.877 249.596C198.916 249.596 200.085 250.896 200.085 253.015V259H198.178V253.384C198.178 251.995 197.527 251.23 196.209 251.23C194.873 251.23 194.012 252.18 194.012 253.612V259H192.113ZM202.655 247.565H204.563V249.754H206.321V251.257H204.563V256.354C204.563 257.154 204.914 257.515 205.688 257.515C205.881 257.515 206.189 257.497 206.312 257.471V258.974C206.101 259.026 205.679 259.062 205.257 259.062C203.385 259.062 202.655 258.35 202.655 256.565V251.257H201.311V249.754H202.655V247.565ZM207.898 252.373C207.898 250.721 209.357 249.587 211.519 249.587C213.576 249.587 215.017 250.738 215.079 252.382H213.294C213.207 251.547 212.53 251.028 211.466 251.028C210.438 251.028 209.752 251.529 209.752 252.259C209.752 252.83 210.209 253.217 211.168 253.454L212.723 253.814C214.586 254.263 215.29 254.966 215.29 256.328C215.29 258.016 213.716 259.176 211.449 259.176C209.26 259.176 207.81 258.042 207.661 256.346H209.542C209.691 257.233 210.376 257.726 211.537 257.726C212.679 257.726 213.382 257.251 213.382 256.504C213.382 255.915 213.031 255.59 212.064 255.344L210.412 254.939C208.742 254.535 207.898 253.665 207.898 252.373Z" fill="#2D1F4C"/>
<rect width="301" height="16" transform="translate(114 223)" fill="white"/>
<path d="M400.997 256.172L410.189 246.979L411.604 248.393L400.997 259L394.633 252.636L396.047 251.222L400.997 256.172Z" fill="#2D3748"/>
</g>
<path d="M114 224H415V222H114V224ZM415 282H114V284H415V282Z" fill="#DBDADA" mask="url(#path-12-inside-2_297_9681)"/>
<g clip-path="url(#clip3_297_9681)">
<rect x="90" y="283" width="349" height="60" rx="18" fill="white"/>
<path d="M124.812 296.09C123.277 296.09 122.301 294.953 122.301 293.168C122.301 291.402 123.281 290.273 124.812 290.273C126.004 290.273 126.945 291.051 127.098 292.152H126.562C126.406 291.34 125.688 290.77 124.812 290.77C123.617 290.77 122.848 291.703 122.848 293.168C122.848 294.652 123.617 295.594 124.816 295.594C125.715 295.594 126.395 295.113 126.562 294.332H127.098C126.898 295.43 126.035 296.09 124.812 296.09ZM131.659 290.273C133.229 290.273 134.221 291.398 134.221 293.184C134.221 294.969 133.233 296.09 131.659 296.09C130.088 296.09 129.1 294.969 129.1 293.184C129.1 291.398 130.088 290.273 131.659 290.273ZM131.659 290.77C130.424 290.77 129.647 291.703 129.647 293.184C129.647 294.66 130.424 295.594 131.659 295.594C132.893 295.594 133.674 294.66 133.674 293.184C133.674 291.703 132.893 290.77 131.659 290.77ZM137.021 296H136.493V290.363H137.021L140.325 295.07H140.353V290.363H140.88V296H140.364L137.048 291.289H137.021V296ZM145.394 296H144.859V290.848H143V290.363H147.257V290.848H145.394V296ZM149.905 290.84V293.219H151.319C152.139 293.219 152.615 292.781 152.615 292.027C152.615 291.281 152.119 290.84 151.299 290.84H149.905ZM149.905 293.691V296H149.373V290.363H151.362C152.463 290.363 153.166 291.008 153.166 292.012C153.166 292.809 152.713 293.41 151.959 293.605L153.326 296H152.701L151.405 293.691C151.385 293.691 151.346 293.691 151.319 293.691H149.905ZM159.223 296L158.598 294.273H156.231L155.606 296H155.04L157.149 290.363H157.68L159.786 296H159.223ZM157.403 291.023L156.391 293.812H158.438L157.427 291.023H157.403ZM163.952 296.09C162.417 296.09 161.441 294.953 161.441 293.168C161.441 291.402 162.421 290.273 163.952 290.273C165.144 290.273 166.085 291.051 166.238 292.152H165.702C165.546 291.34 164.827 290.77 163.952 290.77C162.757 290.77 161.988 291.703 161.988 293.168C161.988 294.652 162.757 295.594 163.956 295.594C164.855 295.594 165.535 295.113 165.702 294.332H166.238C166.038 295.43 165.175 296.09 163.952 296.09ZM170.232 296H169.697V290.848H167.838V290.363H172.096V290.848H170.232V296ZM173.899 294.469H174.434C174.493 295.145 175.129 295.605 176.012 295.605C176.856 295.605 177.461 295.145 177.461 294.512C177.461 293.984 177.098 293.672 176.262 293.461L175.563 293.281C174.52 293.016 174.055 292.574 174.055 291.832C174.055 290.922 174.875 290.273 175.985 290.273C177.083 290.273 177.887 290.922 177.918 291.816H177.383C177.333 291.18 176.77 290.758 175.969 290.758C175.188 290.758 174.61 291.191 174.61 291.812C174.61 292.297 174.961 292.582 175.79 292.793L176.399 292.949C177.532 293.234 178.008 293.668 178.008 294.453C178.008 295.441 177.211 296.09 175.965 296.09C174.786 296.09 173.958 295.438 173.899 294.469Z" fill="#838383"/>
<path d="M131.431 319L130.271 315.572H125.437L124.276 319H122.229L126.808 306.317H128.935L133.514 319H131.431ZM127.827 308.427L125.938 313.99H129.77L127.88 308.427H127.827ZM138.554 317.462C140.039 317.462 141.015 316.258 141.015 314.351C141.015 312.452 140.039 311.204 138.554 311.204C137.095 311.204 136.146 312.426 136.146 314.351C136.146 316.284 137.095 317.462 138.554 317.462ZM138.572 322.48C136.392 322.48 134.775 321.32 134.537 319.721H136.445C136.717 320.494 137.561 321.004 138.642 321.004C140.127 321.004 141.006 320.16 141.006 318.895V317.374H140.971C140.452 318.376 139.363 319.035 138.044 319.035C135.724 319.035 134.203 317.225 134.203 314.342C134.203 311.433 135.715 309.604 138.088 309.604C139.398 309.604 140.47 310.264 141.033 311.336H141.068V309.754H142.913V318.833C142.913 321.039 141.208 322.48 138.572 322.48ZM144.974 319V309.754H146.785V311.327H146.829C147.136 310.246 147.963 309.604 149.052 309.604C149.325 309.604 149.562 309.648 149.703 309.675V311.441C149.553 311.38 149.219 311.336 148.85 311.336C147.629 311.336 146.873 312.153 146.873 313.463V319H144.974ZM154.523 311.116C153.196 311.116 152.265 312.127 152.168 313.524H156.791C156.747 312.109 155.851 311.116 154.523 311.116ZM156.782 316.284H158.584C158.32 317.972 156.721 319.176 154.603 319.176C151.887 319.176 150.243 317.339 150.243 314.421C150.243 311.521 151.913 309.587 154.523 309.587C157.09 309.587 158.689 311.397 158.689 314.201V314.852H152.159V314.966C152.159 316.574 153.126 317.638 154.646 317.638C155.728 317.638 156.527 317.093 156.782 316.284ZM164.213 311.116C162.886 311.116 161.954 312.127 161.858 313.524H166.481C166.437 312.109 165.54 311.116 164.213 311.116ZM166.472 316.284H168.274C168.01 317.972 166.41 319.176 164.292 319.176C161.576 319.176 159.933 317.339 159.933 314.421C159.933 311.521 161.603 309.587 164.213 309.587C166.78 309.587 168.379 311.397 168.379 314.201V314.852H161.849V314.966C161.849 316.574 162.816 317.638 164.336 317.638C165.417 317.638 166.217 317.093 166.472 316.284ZM170.036 319V309.754H171.846V311.31H171.89C172.303 310.281 173.27 309.596 174.518 309.596C175.801 309.596 176.733 310.255 177.102 311.406H177.146C177.621 310.281 178.711 309.596 180.029 309.596C181.857 309.596 183.052 310.809 183.052 312.646V319H181.145V313.103C181.145 311.907 180.504 311.222 179.379 311.222C178.254 311.222 177.471 312.057 177.471 313.226V319H175.608V312.962C175.608 311.898 174.931 311.222 173.859 311.222C172.734 311.222 171.934 312.101 171.934 313.287V319H170.036ZM188.936 311.116C187.609 311.116 186.678 312.127 186.581 313.524H191.204C191.16 312.109 190.264 311.116 188.936 311.116ZM191.195 316.284H192.997C192.733 317.972 191.134 319.176 189.016 319.176C186.3 319.176 184.656 317.339 184.656 314.421C184.656 311.521 186.326 309.587 188.936 309.587C191.503 309.587 193.102 311.397 193.102 314.201V314.852H186.572V314.966C186.572 316.574 187.539 317.638 189.059 317.638C190.141 317.638 190.94 317.093 191.195 316.284ZM194.759 319V309.754H196.57V311.301H196.614C197.114 310.246 198.099 309.596 199.523 309.596C201.562 309.596 202.731 310.896 202.731 313.015V319H200.823V313.384C200.823 311.995 200.173 311.23 198.855 311.23C197.519 311.23 196.657 312.18 196.657 313.612V319H194.759ZM205.301 307.565H207.209V309.754H208.966V311.257H207.209V316.354C207.209 317.154 207.56 317.515 208.334 317.515C208.527 317.515 208.835 317.497 208.958 317.471V318.974C208.747 319.026 208.325 319.062 207.903 319.062C206.031 319.062 205.301 318.35 205.301 316.565V311.257H203.957V309.754H205.301V307.565Z" fill="#2D1F4C"/>
<rect width="349" height="16" transform="translate(90 283)" fill="white"/>
<path d="M400.997 316.172L410.189 306.979L411.604 308.393L400.997 319L394.633 312.636L396.047 311.222L400.997 316.172Z" fill="#2D3748"/>
</g>
</g>
<defs>
<filter id="filter0_dd_297_9681" x="0" y="0" width="539" height="998" filterUnits="userSpaceOnUse" color-interpolation-filters="sRGB">
<feFlood flood-opacity="0" result="BackgroundImageFix"/>
<feColorMatrix in="SourceAlpha" type="matrix" values="0 0 0 0 0 0 0 0 0 0 0 0 0 0 0 0 0 0 127 0" result="hardAlpha"/>
<feOffset dx="28" dy="28"/>
<feGaussianBlur stdDeviation="25"/>
<feComposite in2="hardAlpha" operator="out"/>
<feColorMatrix type="matrix" values="0 0 0 0 0.0509804 0 0 0 0 0.152941 0 0 0 0 0.313726 0 0 0 0.16 0"/>
<feBlend mode="normal" in2="BackgroundImageFix" result="effect1_dropShadow_297_9681"/>
<feColorMatrix in="SourceAlpha" type="matrix" values="0 0 0 0 0 0 0 0 0 0 0 0 0 0 0 0 0 0 127 0" result="hardAlpha"/>
<feOffset dx="-23" dy="-23"/>
<feGaussianBlur stdDeviation="22.5"/>
<feComposite in2="hardAlpha" operator="out"/>
<feColorMatrix type="matrix" values="0 0 0 0 1 0 0 0 0 1 0 0 0 0 1 0 0 0 1 0"/>
<feBlend mode="normal" in2="effect1_dropShadow_297_9681" result="effect2_dropShadow_297_9681"/>
<feBlend mode="normal" in="SourceGraphic" in2="effect2_dropShadow_297_9681" result="shape"/>
</filter>
<clipPath id="clip0_297_9681">
<rect x="90" y="104" width="349" height="60" rx="18" fill="white"/>
</clipPath>
<clipPath id="clip1_297_9681">
<path d="M114 164H415V224H114V164Z" fill="white"/>
</clipPath>
<clipPath id="clip2_297_9681">
<path d="M114 223H415V283H114V223Z" fill="white"/>
</clipPath>
<clipPath id="clip3_297_9681">
<rect x="90" y="283" width="349" height="60" rx="18" fill="white"/>
</clipPath>
</defs>
</svg>
