<svg width="539" height="581" viewBox="0 0 539 581" fill="none" xmlns="http://www.w3.org/2000/svg">
<g filter="url(#filter0_dd_297_9600)">
<rect x="68" y="68" width="393" height="828" fill="#F7F7F7"/>
<rect x="90" y="104" width="349" height="687" rx="18" fill="white"/>
<g clip-path="url(#clip0_297_9600)">
<rect x="90" y="104" width="349" height="60" rx="18" fill="white"/>
<path d="M124.543 117H124.008V111.848H122.148V111.363H126.406V111.848H124.543V117ZM129.053 111.84V114.219H130.467C131.288 114.219 131.764 113.781 131.764 113.027C131.764 112.281 131.268 111.84 130.448 111.84H129.053ZM129.053 114.691V117H128.522V111.363H130.51C131.612 111.363 132.315 112.008 132.315 113.012C132.315 113.809 131.862 114.41 131.108 114.605L132.475 117H131.85L130.553 114.691C130.534 114.691 130.495 114.691 130.467 114.691H129.053ZM138.372 117L137.747 115.273H135.38L134.755 117H134.189L136.298 111.363H136.829L138.935 117H138.372ZM136.552 112.023L135.54 114.812H137.587L136.575 112.023H136.552ZM141.523 117H140.996V111.363H141.523L144.828 116.07H144.855V111.363H145.382V117H144.867L141.55 112.289H141.523V117ZM147.608 115.469H148.143C148.201 116.145 148.838 116.605 149.721 116.605C150.565 116.605 151.17 116.145 151.17 115.512C151.17 114.984 150.807 114.672 149.971 114.461L149.272 114.281C148.229 114.016 147.764 113.574 147.764 112.832C147.764 111.922 148.584 111.273 149.694 111.273C150.791 111.273 151.596 111.922 151.627 112.816H151.092C151.041 112.18 150.479 111.758 149.678 111.758C148.897 111.758 148.319 112.191 148.319 112.812C148.319 113.297 148.67 113.582 149.498 113.793L150.108 113.949C151.24 114.234 151.717 114.668 151.717 115.453C151.717 116.441 150.92 117.09 149.674 117.09C148.494 117.09 147.666 116.438 147.608 115.469ZM157.684 117L157.059 115.273H154.692L154.067 117H153.501L155.61 111.363H156.141L158.247 117H157.684ZM155.864 112.023L154.852 114.812H156.899L155.888 112.023H155.864ZM162.413 117.09C160.878 117.09 159.902 115.953 159.902 114.168C159.902 112.402 160.882 111.273 162.413 111.273C163.605 111.273 164.546 112.051 164.699 113.152H164.163C164.007 112.34 163.288 111.77 162.413 111.77C161.218 111.77 160.449 112.703 160.449 114.168C160.449 115.652 161.218 116.594 162.417 116.594C163.316 116.594 163.995 116.113 164.163 115.332H164.699C164.499 116.43 163.636 117.09 162.413 117.09ZM168.693 117H168.158V111.848H166.299V111.363H170.557V111.848H168.693V117ZM173.204 117H172.672V111.363H173.204V117ZM178.03 111.273C179.601 111.273 180.593 112.398 180.593 114.184C180.593 115.969 179.605 117.09 178.03 117.09C176.46 117.09 175.472 115.969 175.472 114.184C175.472 112.398 176.46 111.273 178.03 111.273ZM178.03 111.77C176.796 111.77 176.019 112.703 176.019 114.184C176.019 115.66 176.796 116.594 178.03 116.594C179.265 116.594 180.046 115.66 180.046 114.184C180.046 112.703 179.265 111.77 178.03 111.77ZM183.392 117H182.865V111.363H183.392L186.697 116.07H186.724V111.363H187.252V117H186.736L183.42 112.289H183.392V117ZM189.477 115.469H190.012C190.07 116.145 190.707 116.605 191.59 116.605C192.434 116.605 193.039 116.145 193.039 115.512C193.039 114.984 192.676 114.672 191.84 114.461L191.141 114.281C190.098 114.016 189.633 113.574 189.633 112.832C189.633 111.922 190.453 111.273 191.563 111.273C192.66 111.273 193.465 111.922 193.496 112.816H192.961C192.91 112.18 192.348 111.758 191.547 111.758C190.766 111.758 190.188 112.191 190.188 112.812C190.188 113.297 190.539 113.582 191.367 113.793L191.977 113.949C193.11 114.234 193.586 114.668 193.586 115.453C193.586 116.441 192.789 117.09 191.543 117.09C190.363 117.09 189.535 116.438 189.477 115.469Z" fill="#838383"/>
<path d="M123.169 127.317H127.924C130.385 127.317 132.099 129.014 132.099 131.483C132.099 133.962 130.35 135.667 127.862 135.667H125.138V140H123.169V127.317ZM125.138 128.979V134.015H127.396C129.11 134.015 130.086 133.092 130.086 131.492C130.086 129.893 129.11 128.979 127.405 128.979H125.138ZM136.269 138.655C137.596 138.655 138.633 137.741 138.633 136.537V135.808L136.357 135.948C135.223 136.027 134.581 136.528 134.581 137.319C134.581 138.128 135.249 138.655 136.269 138.655ZM135.742 140.158C133.931 140.158 132.665 139.033 132.665 137.372C132.665 135.755 133.905 134.762 136.102 134.639L138.633 134.489V133.777C138.633 132.749 137.939 132.134 136.779 132.134C135.68 132.134 134.994 132.661 134.827 133.487H133.034C133.14 131.817 134.564 130.587 136.849 130.587C139.09 130.587 140.523 131.773 140.523 133.628V140H138.703V138.479H138.659C138.123 139.508 136.954 140.158 135.742 140.158ZM143.463 143.445C143.313 143.445 142.83 143.428 142.689 143.401V141.863C142.83 141.898 143.146 141.898 143.304 141.898C144.192 141.898 144.658 141.529 144.948 140.58C144.948 140.562 145.115 140.018 145.115 140.009L141.775 130.754H143.832L146.178 138.277H146.205L148.551 130.754H150.555L147.084 140.483C146.293 142.725 145.387 143.445 143.463 143.445ZM151.852 140V130.754H153.662V132.31H153.706C154.119 131.281 155.086 130.596 156.334 130.596C157.617 130.596 158.549 131.255 158.918 132.406H158.962C159.436 131.281 160.526 130.596 161.845 130.596C163.673 130.596 164.868 131.809 164.868 133.646V140H162.961V134.103C162.961 132.907 162.319 132.222 161.194 132.222C160.069 132.222 159.287 133.057 159.287 134.226V140H157.424V133.962C157.424 132.898 156.747 132.222 155.675 132.222C154.55 132.222 153.75 133.101 153.75 134.287V140H151.852ZM170.752 132.116C169.425 132.116 168.493 133.127 168.397 134.524H173.02C172.976 133.109 172.079 132.116 170.752 132.116ZM173.011 137.284H174.813C174.549 138.972 172.949 140.176 170.831 140.176C168.116 140.176 166.472 138.339 166.472 135.421C166.472 132.521 168.142 130.587 170.752 130.587C173.319 130.587 174.918 132.397 174.918 135.201V135.852H168.388V135.966C168.388 137.574 169.355 138.638 170.875 138.638C171.956 138.638 172.756 138.093 173.011 137.284ZM176.575 140V130.754H178.385V132.301H178.429C178.93 131.246 179.915 130.596 181.338 130.596C183.378 130.596 184.546 131.896 184.546 134.015V140H182.639V134.384C182.639 132.995 181.989 132.23 180.671 132.23C179.335 132.23 178.473 133.18 178.473 134.612V140H176.575ZM187.117 128.565H189.024V130.754H190.782V132.257H189.024V137.354C189.024 138.154 189.376 138.515 190.149 138.515C190.343 138.515 190.65 138.497 190.773 138.471V139.974C190.562 140.026 190.141 140.062 189.719 140.062C187.847 140.062 187.117 139.35 187.117 137.565V132.257H185.772V130.754H187.117V128.565ZM209.423 140H207.622V130.666H207.56L203.737 139.903H202.278L198.446 130.666H198.384V140H196.591V127.317H198.868L202.972 137.328H203.043L207.138 127.317H209.423V140ZM215.58 132.116C214.253 132.116 213.321 133.127 213.224 134.524H217.848C217.804 133.109 216.907 132.116 215.58 132.116ZM217.839 137.284H219.641C219.377 138.972 217.777 140.176 215.659 140.176C212.943 140.176 211.3 138.339 211.3 135.421C211.3 132.521 212.97 130.587 215.58 130.587C218.146 130.587 219.746 132.397 219.746 135.201V135.852H213.216V135.966C213.216 137.574 214.183 138.638 215.703 138.638C216.784 138.638 217.584 138.093 217.839 137.284ZM221.956 128.565H223.863V130.754H225.621V132.257H223.863V137.354C223.863 138.154 224.215 138.515 224.988 138.515C225.182 138.515 225.489 138.497 225.613 138.471V139.974C225.402 140.026 224.98 140.062 224.558 140.062C222.686 140.062 221.956 139.35 221.956 137.565V132.257H220.612V130.754H221.956V128.565ZM227.436 140V127.317H229.317V132.301H229.361C229.871 131.22 230.881 130.596 232.288 130.596C234.318 130.596 235.531 131.949 235.531 134.041V140H233.624V134.41C233.624 133.048 232.938 132.23 231.602 132.23C230.196 132.23 229.334 133.197 229.334 134.656V140H227.436ZM241.52 140.176C238.875 140.176 237.135 138.356 237.135 135.377C237.135 132.406 238.884 130.587 241.52 130.587C244.157 130.587 245.906 132.406 245.906 135.377C245.906 138.356 244.166 140.176 241.52 140.176ZM241.52 138.611C243.014 138.611 243.973 137.434 243.973 135.377C243.973 133.329 243.006 132.151 241.52 132.151C240.035 132.151 239.068 133.329 239.068 135.377C239.068 137.434 240.035 138.611 241.52 138.611ZM251.026 140.158C248.688 140.158 247.141 138.295 247.141 135.377C247.141 132.459 248.688 130.604 251.008 130.604C252.335 130.604 253.39 131.272 253.908 132.292H253.944V127.317H255.851V140H254.005V138.427H253.97C253.425 139.481 252.37 140.158 251.026 140.158ZM251.527 132.204C250.024 132.204 249.083 133.435 249.083 135.377C249.083 137.328 250.024 138.55 251.527 138.55C252.986 138.55 253.961 137.311 253.961 135.377C253.961 133.461 252.986 132.204 251.527 132.204Z" fill="#2D1F4C"/>
<rect width="349" height="16" transform="translate(90 104)" fill="white"/>
<path d="M400.997 137.172L410.189 127.979L411.604 129.393L400.997 140L394.633 133.636L396.047 132.222L400.997 137.172Z" fill="#2D3748"/>
</g>
<g clip-path="url(#clip1_297_9600)">
<mask id="path-7-inside-1_297_9600" fill="white">
<path d="M114 164H415V224H114V164Z"/>
</mask>
<path d="M114 164H415V224H114V164Z" fill="white"/>
<path d="M127.957 177H127.457V172.375H127.434L125.473 176.973H125.008L123.051 172.375H123.027V177H122.527V171.363H123.141L125.23 176.297H125.254L127.34 171.363H127.957V177ZM130.983 177H130.452V171.363H130.983V177ZM134.005 177H133.478V171.363H134.005L137.31 176.07H137.337V171.363H137.864V177H137.349L134.032 172.289H134.005V177ZM140.894 177H140.363V171.363H140.894V177ZM148.819 177H148.319V172.375H148.295L146.334 176.973H145.869L143.912 172.375H143.889V177H143.389V171.363H144.002L146.092 176.297H146.115L148.201 171.363H148.819V177ZM151.845 171.363V175C151.845 175.945 152.462 176.594 153.493 176.594C154.528 176.594 155.141 175.945 155.141 175V171.363H155.677V175.031C155.677 176.246 154.848 177.09 153.493 177.09C152.138 177.09 151.313 176.246 151.313 175.031V171.363H151.845ZM163.597 177H163.097V172.375H163.074L161.113 176.973H160.648L158.691 172.375H158.667V177H158.167V171.363H158.781L160.87 176.297H160.894L162.98 171.363H163.597V177Z" fill="#838383"/>
<path d="M125.138 200H123.169V187.317H131.088V189.014H125.138V193.03H130.587V194.691H125.138V200ZM140.681 190.754V200H138.862V198.436H138.818C138.308 199.543 137.368 200.167 135.952 200.167C133.94 200.167 132.709 198.857 132.709 196.739V190.754H134.608V196.37C134.608 197.776 135.276 198.532 136.585 198.532C137.956 198.532 138.783 197.583 138.783 196.142V190.754H140.681ZM142.742 200V190.754H144.552V192.301H144.596C145.097 191.246 146.082 190.596 147.506 190.596C149.545 190.596 150.714 191.896 150.714 194.015V200H148.806V194.384C148.806 192.995 148.156 192.23 146.838 192.23C145.502 192.23 144.64 193.18 144.64 194.612V200H142.742ZM156.202 200.158C153.864 200.158 152.317 198.295 152.317 195.377C152.317 192.459 153.864 190.604 156.185 190.604C157.512 190.604 158.566 191.272 159.085 192.292H159.12V187.317H161.027V200H159.182V198.427H159.146C158.602 199.481 157.547 200.158 156.202 200.158ZM156.703 192.204C155.2 192.204 154.26 193.435 154.26 195.377C154.26 197.328 155.2 198.55 156.703 198.55C158.162 198.55 159.138 197.311 159.138 195.377C159.138 193.461 158.162 192.204 156.703 192.204ZM163.22 200V190.754H165.118V200H163.22ZM164.169 189.4C163.563 189.4 163.071 188.917 163.071 188.319C163.071 187.713 163.563 187.229 164.169 187.229C164.784 187.229 165.277 187.713 165.277 188.319C165.277 188.917 164.784 189.4 164.169 189.4ZM167.241 200V190.754H169.051V192.301H169.095C169.596 191.246 170.581 190.596 172.004 190.596C174.044 190.596 175.213 191.896 175.213 194.015V200H173.305V194.384C173.305 192.995 172.655 192.23 171.337 192.23C170.001 192.23 169.139 193.18 169.139 194.612V200H167.241ZM181.167 198.462C182.652 198.462 183.628 197.258 183.628 195.351C183.628 193.452 182.652 192.204 181.167 192.204C179.708 192.204 178.759 193.426 178.759 195.351C178.759 197.284 179.708 198.462 181.167 198.462ZM181.184 203.48C179.005 203.48 177.388 202.32 177.15 200.721H179.058C179.33 201.494 180.174 202.004 181.255 202.004C182.74 202.004 183.619 201.16 183.619 199.895V198.374H183.584C183.065 199.376 181.976 200.035 180.657 200.035C178.337 200.035 176.816 198.225 176.816 195.342C176.816 192.433 178.328 190.604 180.701 190.604C182.011 190.604 183.083 191.264 183.645 192.336H183.681V190.754H185.526V199.833C185.526 202.039 183.821 203.48 181.184 203.48ZM202.577 194.727C202.577 198.163 200.546 200.211 197.11 200.211C193.48 200.211 191.195 197.671 191.195 193.602C191.195 189.603 193.471 187.106 197.084 187.106C199.905 187.106 202.041 188.776 202.48 191.308H200.459C199.984 189.734 198.745 188.829 197.092 188.829C194.667 188.829 193.208 190.604 193.208 193.584C193.208 196.616 194.711 198.488 197.128 198.488C199.184 198.488 200.608 197.17 200.634 195.245V195.025H197.356V193.435H202.577V194.727ZM208.426 200.176C205.78 200.176 204.04 198.356 204.04 195.377C204.04 192.406 205.789 190.587 208.426 190.587C211.062 190.587 212.811 192.406 212.811 195.377C212.811 198.356 211.071 200.176 208.426 200.176ZM208.426 198.611C209.92 198.611 210.878 197.434 210.878 195.377C210.878 193.329 209.911 192.151 208.426 192.151C206.94 192.151 205.974 193.329 205.974 195.377C205.974 197.434 206.94 198.611 208.426 198.611ZM217.694 198.655C219.021 198.655 220.058 197.741 220.058 196.537V195.808L217.781 195.948C216.648 196.027 216.006 196.528 216.006 197.319C216.006 198.128 216.674 198.655 217.694 198.655ZM217.166 200.158C215.356 200.158 214.09 199.033 214.09 197.372C214.09 195.755 215.329 194.762 217.527 194.639L220.058 194.489V193.777C220.058 192.749 219.363 192.134 218.203 192.134C217.105 192.134 216.419 192.661 216.252 193.487H214.459C214.565 191.817 215.988 190.587 218.274 190.587C220.515 190.587 221.947 191.773 221.947 193.628V200H220.128V198.479H220.084C219.548 199.508 218.379 200.158 217.166 200.158ZM224.043 200V187.317H225.942V200H224.043Z" fill="#2D1F4C"/>
<rect width="301" height="16" transform="translate(114 164)" fill="white"/>
<path d="M400.997 197.172L410.189 187.979L411.604 189.393L400.997 200L394.633 193.636L396.047 192.222L400.997 197.172Z" fill="#2D3748"/>
</g>
<path d="M114 165H415V163H114V165ZM415 223H114V225H415V223Z" fill="#DBDADA" mask="url(#path-7-inside-1_297_9600)"/>
<g clip-path="url(#clip2_297_9600)">
<mask id="path-12-inside-2_297_9600" fill="white">
<path d="M114 223H415V283H114V223Z"/>
</mask>
<path d="M114 223H415V283H114V223Z" fill="white"/>
<path d="M123.055 236H122.527V230.363H123.055L126.359 235.07H126.387V230.363H126.914V236H126.398L123.082 231.289H123.055V236ZM129.944 230.363V234C129.944 234.945 130.561 235.594 131.592 235.594C132.628 235.594 133.241 234.945 133.241 234V230.363H133.776V234.031C133.776 235.246 132.948 236.09 131.592 236.09C130.237 236.09 129.413 235.246 129.413 234.031V230.363H129.944ZM141.696 236H141.196V231.375H141.173L139.212 235.973H138.747L136.79 231.375H136.767V236H136.267V230.363H136.88L138.97 235.297H138.993L141.079 230.363H141.696V236ZM146.23 236H144.191V230.363H146.218C147.187 230.363 147.843 230.922 147.843 231.754C147.843 232.379 147.414 232.914 146.812 233.023V233.051C147.593 233.145 148.136 233.672 148.136 234.453C148.136 235.414 147.422 236 146.23 236ZM144.722 230.836V232.867H145.949C146.804 232.867 147.304 232.477 147.304 231.812C147.304 231.199 146.855 230.836 146.105 230.836H144.722ZM144.722 235.527H146.156C147.078 235.527 147.59 235.125 147.59 234.426C147.59 233.723 147.058 233.328 146.086 233.328H144.722V235.527ZM153.744 235.516V236H150.342V230.363H153.744V230.848H150.873V232.875H153.6V233.352H150.873V235.516H153.744ZM156.626 230.84V233.219H158.04C158.86 233.219 159.337 232.781 159.337 232.027C159.337 231.281 158.841 230.84 158.02 230.84H156.626ZM156.626 233.691V236H156.095V230.363H158.083C159.184 230.363 159.888 231.008 159.888 232.012C159.888 232.809 159.434 233.41 158.68 233.605L160.048 236H159.423L158.126 233.691C158.106 233.691 158.067 233.691 158.04 233.691H156.626ZM167.611 230.273C169.182 230.273 170.174 231.398 170.174 233.184C170.174 234.969 169.185 236.09 167.611 236.09C166.041 236.09 165.053 234.969 165.053 233.184C165.053 231.398 166.041 230.273 167.611 230.273ZM167.611 230.77C166.377 230.77 165.6 231.703 165.6 233.184C165.6 234.66 166.377 235.594 167.611 235.594C168.846 235.594 169.627 234.66 169.627 233.184C169.627 231.703 168.846 230.77 167.611 230.77ZM172.977 236H172.446V230.363H175.79V230.848H172.977V232.965H175.563V233.441H172.977V236Z" fill="#838383"/>
<path d="M123.169 246.317H127.924C130.385 246.317 132.099 248.014 132.099 250.483C132.099 252.962 130.35 254.667 127.862 254.667H125.138V259H123.169V246.317ZM125.138 247.979V253.015H127.396C129.11 253.015 130.086 252.092 130.086 250.492C130.086 248.893 129.11 247.979 127.405 247.979H125.138ZM136.269 257.655C137.596 257.655 138.633 256.741 138.633 255.537V254.808L136.357 254.948C135.223 255.027 134.581 255.528 134.581 256.319C134.581 257.128 135.249 257.655 136.269 257.655ZM135.742 259.158C133.931 259.158 132.665 258.033 132.665 256.372C132.665 254.755 133.905 253.762 136.102 253.639L138.633 253.489V252.777C138.633 251.749 137.939 251.134 136.779 251.134C135.68 251.134 134.994 251.661 134.827 252.487H133.034C133.14 250.817 134.564 249.587 136.849 249.587C139.09 249.587 140.523 250.773 140.523 252.628V259H138.703V257.479H138.659C138.123 258.508 136.954 259.158 135.742 259.158ZM142.548 259V249.754H144.359V251.327H144.403C144.711 250.246 145.537 249.604 146.627 249.604C146.899 249.604 147.136 249.648 147.277 249.675V251.441C147.128 251.38 146.794 251.336 146.424 251.336C145.203 251.336 144.447 252.153 144.447 253.463V259H142.548ZM149.188 247.565H151.096V249.754H152.853V251.257H151.096V256.354C151.096 257.154 151.447 257.515 152.221 257.515C152.414 257.515 152.722 257.497 152.845 257.471V258.974C152.634 259.026 152.212 259.062 151.79 259.062C149.918 259.062 149.188 258.35 149.188 256.565V251.257H147.844V249.754H149.188V247.565ZM154.659 259V249.754H156.558V259H154.659ZM155.609 248.4C155.002 248.4 154.51 247.917 154.51 247.319C154.51 246.713 155.002 246.229 155.609 246.229C156.224 246.229 156.716 246.713 156.716 247.319C156.716 247.917 156.224 248.4 155.609 248.4ZM166.617 252.936H164.806C164.613 251.951 163.875 251.169 162.635 251.169C161.168 251.169 160.201 252.391 160.201 254.377C160.201 256.407 161.176 257.585 162.653 257.585C163.822 257.585 164.587 256.943 164.806 255.871H166.634C166.432 257.84 164.859 259.176 162.635 259.176C159.99 259.176 158.267 257.365 158.267 254.377C158.267 251.441 159.99 249.587 162.618 249.587C165 249.587 166.45 251.116 166.617 252.936ZM168.221 259V249.754H170.119V259H168.221ZM169.17 248.4C168.563 248.4 168.071 247.917 168.071 247.319C168.071 246.713 168.563 246.229 169.17 246.229C169.785 246.229 170.277 246.713 170.277 247.319C170.277 247.917 169.785 248.4 169.17 248.4ZM177.058 249.604C179.405 249.604 180.951 251.45 180.951 254.377C180.951 257.304 179.413 259.158 177.093 259.158C175.766 259.158 174.711 258.508 174.184 257.479H174.14V262.059H172.241V249.754H174.078V251.345H174.114C174.658 250.281 175.722 249.604 177.058 249.604ZM176.557 257.55C178.06 257.55 179 256.319 179 254.377C179 252.443 178.06 251.204 176.557 251.204C175.107 251.204 174.131 252.47 174.131 254.377C174.131 256.302 175.098 257.55 176.557 257.55ZM185.834 257.655C187.161 257.655 188.198 256.741 188.198 255.537V254.808L185.921 254.948C184.788 255.027 184.146 255.528 184.146 256.319C184.146 257.128 184.814 257.655 185.834 257.655ZM185.306 259.158C183.496 259.158 182.23 258.033 182.23 256.372C182.23 254.755 183.469 253.762 185.667 253.639L188.198 253.489V252.777C188.198 251.749 187.503 251.134 186.343 251.134C185.245 251.134 184.559 251.661 184.392 252.487H182.599C182.705 250.817 184.128 249.587 186.414 249.587C188.655 249.587 190.087 250.773 190.087 252.628V259H188.268V257.479H188.224C187.688 258.508 186.519 259.158 185.306 259.158ZM192.113 259V249.754H193.924V251.301H193.968C194.469 250.246 195.453 249.596 196.877 249.596C198.916 249.596 200.085 250.896 200.085 253.015V259H198.178V253.384C198.178 251.995 197.527 251.23 196.209 251.23C194.873 251.23 194.012 252.18 194.012 253.612V259H192.113ZM202.655 247.565H204.563V249.754H206.321V251.257H204.563V256.354C204.563 257.154 204.914 257.515 205.688 257.515C205.881 257.515 206.189 257.497 206.312 257.471V258.974C206.101 259.026 205.679 259.062 205.257 259.062C203.385 259.062 202.655 258.35 202.655 256.565V251.257H201.311V249.754H202.655V247.565ZM207.898 252.373C207.898 250.721 209.357 249.587 211.519 249.587C213.576 249.587 215.017 250.738 215.079 252.382H213.294C213.207 251.547 212.53 251.028 211.466 251.028C210.438 251.028 209.752 251.529 209.752 252.259C209.752 252.83 210.209 253.217 211.168 253.454L212.723 253.814C214.586 254.263 215.29 254.966 215.29 256.328C215.29 258.016 213.716 259.176 211.449 259.176C209.26 259.176 207.81 258.042 207.661 256.346H209.542C209.691 257.233 210.376 257.726 211.537 257.726C212.679 257.726 213.382 257.251 213.382 256.504C213.382 255.915 213.031 255.59 212.064 255.344L210.412 254.939C208.742 254.535 207.898 253.665 207.898 252.373Z" fill="#2D1F4C"/>
<rect width="301" height="16" transform="translate(114 223)" fill="white"/>
<path d="M400.997 256.172L410.189 246.979L411.604 248.393L400.997 259L394.633 252.636L396.047 251.222L400.997 256.172Z" fill="#2D3748"/>
</g>
<path d="M114 224H415V222H114V224ZM415 282H114V284H415V282Z" fill="#DBDADA" mask="url(#path-12-inside-2_297_9600)"/>
<rect x="90" y="283" width="349" height="214" rx="18" fill="white"/>
<path d="M124.812 312.09C123.277 312.09 122.301 310.953 122.301 309.168C122.301 307.402 123.281 306.273 124.812 306.273C126.004 306.273 126.945 307.051 127.098 308.152H126.562C126.406 307.34 125.688 306.77 124.812 306.77C123.617 306.77 122.848 307.703 122.848 309.168C122.848 310.652 123.617 311.594 124.816 311.594C125.715 311.594 126.395 311.113 126.562 310.332H127.098C126.898 311.43 126.035 312.09 124.812 312.09ZM131.659 306.273C133.229 306.273 134.221 307.398 134.221 309.184C134.221 310.969 133.233 312.09 131.659 312.09C130.088 312.09 129.1 310.969 129.1 309.184C129.1 307.398 130.088 306.273 131.659 306.273ZM131.659 306.77C130.424 306.77 129.647 307.703 129.647 309.184C129.647 310.66 130.424 311.594 131.659 311.594C132.893 311.594 133.674 310.66 133.674 309.184C133.674 307.703 132.893 306.77 131.659 306.77ZM137.021 312H136.493V306.363H137.021L140.325 311.07H140.353V306.363H140.88V312H140.364L137.048 307.289H137.021V312ZM145.394 312H144.859V306.848H143V306.363H147.257V306.848H145.394V312ZM149.905 306.84V309.219H151.319C152.139 309.219 152.615 308.781 152.615 308.027C152.615 307.281 152.119 306.84 151.299 306.84H149.905ZM149.905 309.691V312H149.373V306.363H151.362C152.463 306.363 153.166 307.008 153.166 308.012C153.166 308.809 152.713 309.41 151.959 309.605L153.326 312H152.701L151.405 309.691C151.385 309.691 151.346 309.691 151.319 309.691H149.905ZM159.223 312L158.598 310.273H156.231L155.606 312H155.04L157.149 306.363H157.68L159.786 312H159.223ZM157.403 307.023L156.391 309.812H158.438L157.427 307.023H157.403ZM163.952 312.09C162.417 312.09 161.441 310.953 161.441 309.168C161.441 307.402 162.421 306.273 163.952 306.273C165.144 306.273 166.085 307.051 166.238 308.152H165.702C165.546 307.34 164.827 306.77 163.952 306.77C162.757 306.77 161.988 307.703 161.988 309.168C161.988 310.652 162.757 311.594 163.956 311.594C164.855 311.594 165.535 311.113 165.702 310.332H166.238C166.038 311.43 165.175 312.09 163.952 312.09ZM170.232 312H169.697V306.848H167.838V306.363H172.096V306.848H170.232V312ZM173.899 310.469H174.434C174.493 311.145 175.129 311.605 176.012 311.605C176.856 311.605 177.461 311.145 177.461 310.512C177.461 309.984 177.098 309.672 176.262 309.461L175.563 309.281C174.52 309.016 174.055 308.574 174.055 307.832C174.055 306.922 174.875 306.273 175.985 306.273C177.083 306.273 177.887 306.922 177.918 307.816H177.383C177.333 307.18 176.77 306.758 175.969 306.758C175.188 306.758 174.61 307.191 174.61 307.812C174.61 308.297 174.961 308.582 175.79 308.793L176.399 308.949C177.532 309.234 178.008 309.668 178.008 310.453C178.008 311.441 177.211 312.09 175.965 312.09C174.786 312.09 173.958 311.438 173.899 310.469Z" fill="#838383"/>
<path d="M131.431 335L130.271 331.572H125.437L124.276 335H122.229L126.808 322.317H128.935L133.514 335H131.431ZM127.827 324.427L125.938 329.99H129.77L127.88 324.427H127.827ZM138.554 333.462C140.039 333.462 141.015 332.258 141.015 330.351C141.015 328.452 140.039 327.204 138.554 327.204C137.095 327.204 136.146 328.426 136.146 330.351C136.146 332.284 137.095 333.462 138.554 333.462ZM138.572 338.48C136.392 338.48 134.775 337.32 134.537 335.721H136.445C136.717 336.494 137.561 337.004 138.642 337.004C140.127 337.004 141.006 336.16 141.006 334.895V333.374H140.971C140.452 334.376 139.363 335.035 138.044 335.035C135.724 335.035 134.203 333.225 134.203 330.342C134.203 327.433 135.715 325.604 138.088 325.604C139.398 325.604 140.47 326.264 141.033 327.336H141.068V325.754H142.913V334.833C142.913 337.039 141.208 338.48 138.572 338.48ZM144.974 335V325.754H146.785V327.327H146.829C147.136 326.246 147.963 325.604 149.052 325.604C149.325 325.604 149.562 325.648 149.703 325.675V327.441C149.553 327.38 149.219 327.336 148.85 327.336C147.629 327.336 146.873 328.153 146.873 329.463V335H144.974ZM154.523 327.116C153.196 327.116 152.265 328.127 152.168 329.524H156.791C156.747 328.109 155.851 327.116 154.523 327.116ZM156.782 332.284H158.584C158.32 333.972 156.721 335.176 154.603 335.176C151.887 335.176 150.243 333.339 150.243 330.421C150.243 327.521 151.913 325.587 154.523 325.587C157.09 325.587 158.689 327.397 158.689 330.201V330.852H152.159V330.966C152.159 332.574 153.126 333.638 154.646 333.638C155.728 333.638 156.527 333.093 156.782 332.284ZM164.213 327.116C162.886 327.116 161.954 328.127 161.858 329.524H166.481C166.437 328.109 165.54 327.116 164.213 327.116ZM166.472 332.284H168.274C168.01 333.972 166.41 335.176 164.292 335.176C161.576 335.176 159.933 333.339 159.933 330.421C159.933 327.521 161.603 325.587 164.213 325.587C166.78 325.587 168.379 327.397 168.379 330.201V330.852H161.849V330.966C161.849 332.574 162.816 333.638 164.336 333.638C165.417 333.638 166.217 333.093 166.472 332.284ZM170.036 335V325.754H171.846V327.31H171.89C172.303 326.281 173.27 325.596 174.518 325.596C175.801 325.596 176.733 326.255 177.102 327.406H177.146C177.621 326.281 178.711 325.596 180.029 325.596C181.857 325.596 183.052 326.809 183.052 328.646V335H181.145V329.103C181.145 327.907 180.504 327.222 179.379 327.222C178.254 327.222 177.471 328.057 177.471 329.226V335H175.608V328.962C175.608 327.898 174.931 327.222 173.859 327.222C172.734 327.222 171.934 328.101 171.934 329.287V335H170.036ZM188.936 327.116C187.609 327.116 186.678 328.127 186.581 329.524H191.204C191.16 328.109 190.264 327.116 188.936 327.116ZM191.195 332.284H192.997C192.733 333.972 191.134 335.176 189.016 335.176C186.3 335.176 184.656 333.339 184.656 330.421C184.656 327.521 186.326 325.587 188.936 325.587C191.503 325.587 193.102 327.397 193.102 330.201V330.852H186.572V330.966C186.572 332.574 187.539 333.638 189.059 333.638C190.141 333.638 190.94 333.093 191.195 332.284ZM194.759 335V325.754H196.57V327.301H196.614C197.114 326.246 198.099 325.596 199.523 325.596C201.562 325.596 202.731 326.896 202.731 329.015V335H200.823V329.384C200.823 327.995 200.173 327.23 198.855 327.23C197.519 327.23 196.657 328.18 196.657 329.612V335H194.759ZM205.301 323.565H207.209V325.754H208.966V327.257H207.209V332.354C207.209 333.154 207.56 333.515 208.334 333.515C208.527 333.515 208.835 333.497 208.958 333.471V334.974C208.747 335.026 208.325 335.062 207.903 335.062C206.031 335.062 205.301 334.35 205.301 332.565V327.257H203.957V325.754H205.301V323.565Z" fill="black"/>
<path d="M126.014 373H122.82V364.545H126.025C127.473 364.545 128.451 365.389 128.451 366.654C128.451 367.533 127.807 368.354 126.992 368.5V368.547C128.141 368.693 128.879 369.502 128.879 370.627C128.879 372.115 127.812 373 126.014 373ZM123.875 365.477V368.189H125.457C126.705 368.189 127.385 367.691 127.385 366.777C127.385 365.939 126.811 365.477 125.785 365.477H123.875ZM123.875 372.068H125.855C127.127 372.068 127.795 371.553 127.795 370.574C127.795 369.596 127.104 369.098 125.756 369.098H123.875V372.068ZM130.54 375.279C130.417 375.279 130.212 375.268 130.1 375.244V374.389C130.212 374.412 130.37 374.418 130.499 374.418C131.067 374.418 131.384 374.143 131.618 373.434L131.759 373.006L129.509 366.906H130.599L132.286 371.98H132.304L133.991 366.906H135.063L132.667 373.428C132.145 374.852 131.641 375.279 130.54 375.279ZM143.635 368.904H142.639C142.493 368.242 141.977 367.697 141.081 367.697C140.026 367.697 139.311 368.57 139.311 369.953C139.311 371.371 140.038 372.209 141.092 372.209C141.924 372.209 142.469 371.77 142.645 371.037H143.647C143.489 372.25 142.469 373.105 141.087 373.105C139.399 373.105 138.274 371.916 138.274 369.953C138.274 368.031 139.393 366.801 141.075 366.801C142.598 366.801 143.506 367.809 143.635 368.904ZM144.757 373V364.545H145.777V373H144.757ZM147.327 373V366.906H148.346V373H147.327ZM147.836 365.881C147.491 365.881 147.204 365.594 147.204 365.248C147.204 364.896 147.491 364.615 147.836 364.615C148.188 364.615 148.475 364.896 148.475 365.248C148.475 365.594 148.188 365.881 147.836 365.881ZM154.906 368.904H153.909C153.763 368.242 153.247 367.697 152.351 367.697C151.296 367.697 150.581 368.57 150.581 369.953C150.581 371.371 151.308 372.209 152.363 372.209C153.195 372.209 153.74 371.77 153.915 371.037H154.917C154.759 372.25 153.74 373.105 152.357 373.105C150.669 373.105 149.544 371.916 149.544 369.953C149.544 368.031 150.663 366.801 152.345 366.801C153.868 366.801 154.777 367.809 154.906 368.904ZM157.047 369.613L159.742 366.906H160.979L158.336 369.537L161.061 373H159.877L157.615 370.164L157.047 370.703V373H156.028V364.545H157.047V369.613ZM161.972 373V366.906H162.991V373H161.972ZM162.481 365.881C162.136 365.881 161.849 365.594 161.849 365.248C161.849 364.896 162.136 364.615 162.481 364.615C162.833 364.615 163.12 364.896 163.12 365.248C163.12 365.594 162.833 365.881 162.481 365.881ZM164.488 373V366.906H165.449V367.879H165.473C165.812 367.223 166.463 366.801 167.406 366.801C168.742 366.801 169.516 367.662 169.516 369.045V373H168.496V369.227C168.496 368.242 168.033 367.703 167.096 367.703C166.135 367.703 165.508 368.383 165.508 369.414V373H164.488ZM173.415 372.15C174.475 372.15 175.184 371.271 175.184 369.93C175.184 368.588 174.475 367.697 173.415 367.697C172.366 367.697 171.68 368.564 171.68 369.93C171.68 371.295 172.366 372.15 173.415 372.15ZM173.45 375.297C172.108 375.297 171.048 374.541 170.878 373.504H171.927C172.126 374.061 172.729 374.43 173.491 374.43C174.546 374.43 175.184 373.82 175.184 372.912V371.951H175.161C174.786 372.613 174.065 373.047 173.21 373.047C171.657 373.047 170.638 371.822 170.638 369.93C170.638 368.02 171.657 366.801 173.233 366.801C174.095 366.801 174.809 367.223 175.214 367.932H175.231V366.906H176.204V372.877C176.204 374.33 175.132 375.297 173.45 375.297ZM181.301 367.527H180.364V364.545H181.301V367.527ZM187.826 373L186.976 370.58H183.613L182.763 373H181.656L184.773 364.545H185.816L188.933 373H187.826ZM185.277 365.828L183.923 369.684H186.665L185.312 365.828H185.277ZM194.807 368.904H193.811C193.664 368.242 193.149 367.697 192.252 367.697C191.198 367.697 190.483 368.57 190.483 369.953C190.483 371.371 191.209 372.209 192.264 372.209C193.096 372.209 193.641 371.77 193.817 371.037H194.819C194.66 372.25 193.641 373.105 192.258 373.105C190.571 373.105 189.446 371.916 189.446 369.953C189.446 368.031 190.565 366.801 192.246 366.801C193.77 366.801 194.678 367.809 194.807 368.904ZM200.939 368.904H199.943C199.796 368.242 199.28 367.697 198.384 367.697C197.329 367.697 196.614 368.57 196.614 369.953C196.614 371.371 197.341 372.209 198.396 372.209C199.228 372.209 199.773 371.77 199.948 371.037H200.95C200.792 372.25 199.773 373.105 198.39 373.105C196.702 373.105 195.577 371.916 195.577 369.953C195.577 368.031 196.696 366.801 198.378 366.801C199.902 366.801 200.81 367.809 200.939 368.904ZM204.451 367.686C203.496 367.686 202.828 368.418 202.764 369.432H206.074C206.051 368.412 205.412 367.686 204.451 367.686ZM206.051 371.254H207.053C206.877 372.32 205.846 373.105 204.516 373.105C202.77 373.105 201.709 371.893 201.709 369.977C201.709 368.084 202.787 366.801 204.469 366.801C206.115 366.801 207.129 367.996 207.129 369.842V370.229H202.758V370.287C202.758 371.453 203.443 372.221 204.539 372.221C205.313 372.221 205.881 371.828 206.051 371.254ZM211.239 366.801C212.792 366.801 213.847 368.043 213.847 369.953C213.847 371.863 212.798 373.105 211.263 373.105C210.39 373.105 209.686 372.678 209.323 372.01H209.3V375.033H208.28V366.906H209.247V367.938H209.27C209.645 367.252 210.354 366.801 211.239 366.801ZM211.04 372.209C212.124 372.209 212.804 371.336 212.804 369.953C212.804 368.576 212.124 367.697 211.04 367.697C209.997 367.697 209.294 368.6 209.294 369.953C209.294 371.312 209.997 372.209 211.04 372.209ZM215.326 365.436H216.346V366.906H217.529V367.744H216.346V371.365C216.346 371.922 216.58 372.174 217.101 372.174C217.219 372.174 217.453 372.156 217.523 372.145V373C217.4 373.029 217.119 373.047 216.879 373.047C215.76 373.047 215.326 372.59 215.326 371.418V367.744H214.418V366.906H215.326V365.436ZM219.805 367.527H218.868V364.545H219.805V367.527ZM221.49 374.682H220.64L221.209 371.699H222.293L221.49 374.682ZM226.458 375.279C226.335 375.279 226.13 375.268 226.019 375.244V374.389C226.13 374.412 226.288 374.418 226.417 374.418C226.986 374.418 227.302 374.143 227.536 373.434L227.677 373.006L225.427 366.906H226.517L228.204 371.98H228.222L229.91 366.906H230.982L228.585 373.428C228.064 374.852 227.56 375.279 226.458 375.279ZM234.26 373.105C232.573 373.105 231.436 371.893 231.436 369.953C231.436 368.008 232.573 366.801 234.26 366.801C235.942 366.801 237.078 368.008 237.078 369.953C237.078 371.893 235.942 373.105 234.26 373.105ZM234.26 372.209C235.338 372.209 236.041 371.389 236.041 369.953C236.041 368.518 235.338 367.697 234.26 367.697C233.182 367.697 232.473 368.518 232.473 369.953C232.473 371.389 233.182 372.209 234.26 372.209ZM243.234 366.906V373H242.267V372.01H242.243C241.88 372.713 241.247 373.105 240.31 373.105C238.98 373.105 238.2 372.244 238.2 370.861V366.906H239.22V370.68C239.22 371.67 239.683 372.203 240.626 372.203C241.616 372.203 242.214 371.523 242.214 370.486V366.906H243.234ZM249.268 372.238C250.229 372.238 250.968 371.564 250.968 370.686V370.188L249.339 370.287C248.518 370.34 248.05 370.703 248.05 371.277C248.05 371.857 248.536 372.238 249.268 372.238ZM249.04 373.105C247.827 373.105 247.013 372.373 247.013 371.277C247.013 370.234 247.815 369.578 249.222 369.496L250.968 369.396V368.887C250.968 368.143 250.475 367.697 249.632 367.697C248.847 367.697 248.354 368.066 248.225 368.664H247.241C247.311 367.609 248.214 366.801 249.655 366.801C251.085 366.801 251.987 367.574 251.987 368.787V373H251.02V371.951H250.997C250.634 372.648 249.86 373.105 249.04 373.105ZM255.881 372.15C256.941 372.15 257.65 371.271 257.65 369.93C257.65 368.588 256.941 367.697 255.881 367.697C254.832 367.697 254.146 368.564 254.146 369.93C254.146 371.295 254.832 372.15 255.881 372.15ZM255.916 375.297C254.574 375.297 253.513 374.541 253.344 373.504H254.392C254.592 374.061 255.195 374.43 255.957 374.43C257.011 374.43 257.65 373.82 257.65 372.912V371.951H257.627C257.252 372.613 256.531 373.047 255.676 373.047C254.123 373.047 253.103 371.822 253.103 369.93C253.103 368.02 254.123 366.801 255.699 366.801C256.56 366.801 257.275 367.223 257.679 367.932H257.697V366.906H258.67V372.877C258.67 374.33 257.597 375.297 255.916 375.297ZM260.12 373V366.906H261.081V367.902H261.104C261.303 367.229 261.866 366.801 262.581 366.801C262.756 366.801 262.909 366.83 262.991 366.842V367.832C262.909 367.803 262.692 367.773 262.446 367.773C261.655 367.773 261.139 368.342 261.139 369.203V373H260.12ZM266.093 367.686C265.138 367.686 264.47 368.418 264.406 369.432H267.716C267.693 368.412 267.054 367.686 266.093 367.686ZM267.693 371.254H268.695C268.519 372.32 267.488 373.105 266.158 373.105C264.412 373.105 263.351 371.893 263.351 369.977C263.351 368.084 264.429 366.801 266.111 366.801C267.757 366.801 268.771 367.996 268.771 369.842V370.229H264.4V370.287C264.4 371.453 265.085 372.221 266.181 372.221C266.955 372.221 267.523 371.828 267.693 371.254ZM272.366 367.686C271.411 367.686 270.743 368.418 270.678 369.432H273.989C273.965 368.412 273.327 367.686 272.366 367.686ZM273.965 371.254H274.967C274.791 372.32 273.76 373.105 272.43 373.105C270.684 373.105 269.623 371.893 269.623 369.977C269.623 368.084 270.702 366.801 272.383 366.801C274.03 366.801 275.043 367.996 275.043 369.842V370.229H270.672V370.287C270.672 371.453 271.358 372.221 272.454 372.221C273.227 372.221 273.795 371.828 273.965 371.254ZM279.104 365.436H280.123V366.906H281.307V367.744H280.123V371.365C280.123 371.922 280.358 372.174 280.879 372.174C280.996 372.174 281.231 372.156 281.301 372.145V373C281.178 373.029 280.897 373.047 280.656 373.047C279.537 373.047 279.104 372.59 279.104 371.418V367.744H278.195V366.906H279.104V365.436ZM284.866 373.105C283.179 373.105 282.042 371.893 282.042 369.953C282.042 368.008 283.179 366.801 284.866 366.801C286.548 366.801 287.685 368.008 287.685 369.953C287.685 371.893 286.548 373.105 284.866 373.105ZM284.866 372.209C285.944 372.209 286.648 371.389 286.648 369.953C286.648 368.518 285.944 367.697 284.866 367.697C283.788 367.697 283.079 368.518 283.079 369.953C283.079 371.389 283.788 372.209 284.866 372.209ZM291.745 365.436H292.764V366.906H293.948V367.744H292.764V371.365C292.764 371.922 292.999 372.174 293.52 372.174C293.637 372.174 293.872 372.156 293.942 372.145V373C293.819 373.029 293.538 373.047 293.298 373.047C292.179 373.047 291.745 372.59 291.745 371.418V367.744H290.837V366.906H291.745V365.436ZM295.211 373V364.545H296.23V367.879H296.254C296.593 367.199 297.261 366.801 298.187 366.801C299.523 366.801 300.332 367.703 300.332 369.062V373H299.312V369.25C299.312 368.283 298.826 367.703 297.871 367.703C296.857 367.703 296.23 368.395 296.23 369.449V373H295.211ZM304.19 367.686C303.235 367.686 302.567 368.418 302.503 369.432H305.813C305.79 368.412 305.151 367.686 304.19 367.686ZM305.79 371.254H306.792C306.616 372.32 305.585 373.105 304.254 373.105C302.508 373.105 301.448 371.893 301.448 369.977C301.448 368.084 302.526 366.801 304.208 366.801C305.854 366.801 306.868 367.996 306.868 369.842V370.229H302.497V370.287C302.497 371.453 303.182 372.221 304.278 372.221C305.051 372.221 305.62 371.828 305.79 371.254ZM310.928 365.436H311.948V366.906H313.131V367.744H311.948V371.365C311.948 371.922 312.182 372.174 312.703 372.174C312.821 372.174 313.055 372.156 313.125 372.145V373C313.002 373.029 312.721 373.047 312.481 373.047C311.362 373.047 310.928 372.59 310.928 371.418V367.744H310.02V366.906H310.928V365.436ZM316.609 367.686C315.654 367.686 314.986 368.418 314.921 369.432H318.232C318.208 368.412 317.57 367.686 316.609 367.686ZM318.208 371.254H319.21C319.034 372.32 318.003 373.105 316.673 373.105C314.927 373.105 313.866 371.893 313.866 369.977C313.866 368.084 314.945 366.801 316.626 366.801C318.273 366.801 319.286 367.996 319.286 369.842V370.229H314.915V370.287C314.915 371.453 315.601 372.221 316.696 372.221C317.47 372.221 318.038 371.828 318.208 371.254ZM320.438 373V366.906H321.399V367.902H321.422C321.621 367.229 322.184 366.801 322.899 366.801C323.074 366.801 323.227 366.83 323.309 366.842V367.832C323.227 367.803 323.01 367.773 322.764 367.773C321.973 367.773 321.457 368.342 321.457 369.203V373H320.438ZM324.261 373V366.906H325.222V367.879H325.245C325.532 367.234 326.153 366.801 326.974 366.801C327.806 366.801 328.421 367.223 328.685 367.961H328.708C329.048 367.234 329.763 366.801 330.618 366.801C331.825 366.801 332.604 367.586 332.604 368.793V373H331.585V369.027C331.585 368.195 331.122 367.703 330.319 367.703C329.511 367.703 328.942 368.301 328.942 369.127V373H327.923V368.916C327.923 368.184 327.431 367.703 326.675 367.703C325.866 367.703 325.28 368.336 325.28 369.18V373H324.261ZM333.92 368.588C333.92 367.545 334.851 366.801 336.193 366.801C337.453 366.801 338.379 367.551 338.426 368.582H337.453C337.383 367.996 336.908 367.633 336.158 367.633C335.414 367.633 334.922 368.002 334.922 368.535C334.922 368.957 335.244 369.238 335.935 369.414L336.879 369.643C338.109 369.953 338.555 370.398 338.555 371.295C338.555 372.355 337.553 373.105 336.129 373.105C334.793 373.105 333.861 372.379 333.756 371.301H334.775C334.887 371.934 335.367 372.273 336.193 372.273C337.019 372.273 337.529 371.922 337.529 371.371C337.529 370.938 337.277 370.703 336.592 370.521L335.519 370.246C334.447 369.971 333.92 369.42 333.92 368.588ZM344.326 372.238C345.287 372.238 346.025 371.564 346.025 370.686V370.188L344.396 370.287C343.576 370.34 343.107 370.703 343.107 371.277C343.107 371.857 343.593 372.238 344.326 372.238ZM344.097 373.105C342.884 373.105 342.07 372.373 342.07 371.277C342.07 370.234 342.873 369.578 344.279 369.496L346.025 369.396V368.887C346.025 368.143 345.533 367.697 344.689 367.697C343.904 367.697 343.412 368.066 343.283 368.664H342.298C342.369 367.609 343.271 366.801 344.712 366.801C346.142 366.801 347.045 367.574 347.045 368.787V373H346.078V371.951H346.054C345.691 372.648 344.918 373.105 344.097 373.105ZM348.459 373V366.906H349.42V367.879H349.444C349.784 367.223 350.434 366.801 351.377 366.801C352.713 366.801 353.487 367.662 353.487 369.045V373H352.467V369.227C352.467 368.242 352.004 367.703 351.067 367.703C350.106 367.703 349.479 368.383 349.479 369.414V373H348.459ZM357.216 373.105C355.663 373.105 354.609 371.863 354.609 369.953C354.609 368.043 355.658 366.801 357.193 366.801C358.066 366.801 358.769 367.229 359.132 367.896H359.156V364.545H360.175V373H359.202V371.969H359.185C358.792 372.672 358.095 373.105 357.216 373.105ZM357.41 367.697C356.331 367.697 355.652 368.576 355.652 369.953C355.652 371.336 356.331 372.209 357.41 372.209C358.458 372.209 359.161 371.318 359.161 369.953C359.161 368.594 358.458 367.697 357.41 367.697ZM127.725 388.904H126.729C126.582 388.242 126.066 387.697 125.17 387.697C124.115 387.697 123.4 388.57 123.4 389.953C123.4 391.371 124.127 392.209 125.182 392.209C126.014 392.209 126.559 391.77 126.734 391.037H127.736C127.578 392.25 126.559 393.105 125.176 393.105C123.488 393.105 122.363 391.916 122.363 389.953C122.363 388.031 123.482 386.801 125.164 386.801C126.688 386.801 127.596 387.809 127.725 388.904ZM131.319 393.105C129.632 393.105 128.495 391.893 128.495 389.953C128.495 388.008 129.632 386.801 131.319 386.801C133.001 386.801 134.138 388.008 134.138 389.953C134.138 391.893 133.001 393.105 131.319 393.105ZM131.319 392.209C132.397 392.209 133.1 391.389 133.1 389.953C133.1 388.518 132.397 387.697 131.319 387.697C130.241 387.697 129.532 388.518 129.532 389.953C129.532 391.389 130.241 392.209 131.319 392.209ZM135.289 393V386.906H136.25V387.879H136.273C136.613 387.223 137.263 386.801 138.207 386.801C139.543 386.801 140.316 387.662 140.316 389.045V393H139.297V389.227C139.297 388.242 138.834 387.703 137.896 387.703C136.935 387.703 136.308 388.383 136.308 389.414V393H135.289ZM144.046 393.105C142.493 393.105 141.438 391.863 141.438 389.953C141.438 388.043 142.487 386.801 144.022 386.801C144.895 386.801 145.598 387.229 145.962 387.896H145.985V384.545H147.005V393H146.032V391.969H146.014C145.622 392.672 144.924 393.105 144.046 393.105ZM144.239 387.697C143.161 387.697 142.481 388.576 142.481 389.953C142.481 391.336 143.161 392.209 144.239 392.209C145.288 392.209 145.991 391.318 145.991 389.953C145.991 388.594 145.288 387.697 144.239 387.697ZM148.554 393V386.906H149.574V393H148.554ZM149.064 385.881C148.718 385.881 148.431 385.594 148.431 385.248C148.431 384.896 148.718 384.615 149.064 384.615C149.416 384.615 149.703 384.896 149.703 385.248C149.703 385.594 149.416 385.881 149.064 385.881ZM151.399 385.436H152.418V386.906H153.602V387.744H152.418V391.365C152.418 391.922 152.653 392.174 153.174 392.174C153.291 392.174 153.526 392.156 153.596 392.145V393C153.473 393.029 153.192 393.047 152.952 393.047C151.832 393.047 151.399 392.59 151.399 391.418V387.744H150.491V386.906H151.399V385.436ZM154.865 393V386.906H155.884V393H154.865ZM155.374 385.881C155.029 385.881 154.741 385.594 154.741 385.248C154.741 384.896 155.029 384.615 155.374 384.615C155.726 384.615 156.013 384.896 156.013 385.248C156.013 385.594 155.726 385.881 155.374 385.881ZM159.906 393.105C158.219 393.105 157.082 391.893 157.082 389.953C157.082 388.008 158.219 386.801 159.906 386.801C161.588 386.801 162.725 388.008 162.725 389.953C162.725 391.893 161.588 393.105 159.906 393.105ZM159.906 392.209C160.985 392.209 161.688 391.389 161.688 389.953C161.688 388.518 160.985 387.697 159.906 387.697C158.828 387.697 158.119 388.518 158.119 389.953C158.119 391.389 158.828 392.209 159.906 392.209ZM163.876 393V386.906H164.837V387.879H164.86C165.2 387.223 165.851 386.801 166.794 386.801C168.13 386.801 168.903 387.662 168.903 389.045V393H167.884V389.227C167.884 388.242 167.421 387.703 166.483 387.703C165.522 387.703 164.896 388.383 164.896 389.414V393H163.876ZM170.219 388.588C170.219 387.545 171.15 386.801 172.492 386.801C173.752 386.801 174.678 387.551 174.725 388.582H173.752C173.682 387.996 173.207 387.633 172.457 387.633C171.713 387.633 171.221 388.002 171.221 388.535C171.221 388.957 171.543 389.238 172.234 389.414L173.178 389.643C174.408 389.953 174.853 390.398 174.853 391.295C174.853 392.355 173.851 393.105 172.428 393.105C171.092 393.105 170.16 392.379 170.055 391.301H171.074C171.185 391.934 171.666 392.273 172.492 392.273C173.318 392.273 173.828 391.922 173.828 391.371C173.828 390.938 173.576 390.703 172.891 390.521L171.818 390.246C170.746 389.971 170.219 389.42 170.219 388.588ZM181.14 393.105C179.453 393.105 178.316 391.893 178.316 389.953C178.316 388.008 179.453 386.801 181.14 386.801C182.822 386.801 183.959 388.008 183.959 389.953C183.959 391.893 182.822 393.105 181.14 393.105ZM181.14 392.209C182.218 392.209 182.922 391.389 182.922 389.953C182.922 388.518 182.218 387.697 181.14 387.697C180.062 387.697 179.353 388.518 179.353 389.953C179.353 391.389 180.062 392.209 181.14 392.209ZM190.114 386.906V393H189.147V392.01H189.124C188.76 392.713 188.127 393.105 187.19 393.105C185.86 393.105 185.081 392.244 185.081 390.861V386.906H186.1V390.68C186.1 391.67 186.563 392.203 187.506 392.203C188.497 392.203 189.094 391.523 189.094 390.486V386.906H190.114ZM191.886 385.436H192.906V386.906H194.089V387.744H192.906V391.365C192.906 391.922 193.14 392.174 193.662 392.174C193.779 392.174 194.013 392.156 194.083 392.145V393C193.96 393.029 193.679 393.047 193.439 393.047C192.32 393.047 191.886 392.59 191.886 391.418V387.744H190.978V386.906H191.886V385.436ZM195.352 393V384.545H196.371V393H195.352ZM197.921 393V386.906H198.941V393H197.921ZM198.431 385.881C198.085 385.881 197.798 385.594 197.798 385.248C197.798 384.896 198.085 384.615 198.431 384.615C198.782 384.615 199.07 384.896 199.07 385.248C199.07 385.594 198.782 385.881 198.431 385.881ZM200.438 393V386.906H201.399V387.879H201.422C201.762 387.223 202.412 386.801 203.356 386.801C204.691 386.801 205.465 387.662 205.465 389.045V393H204.445V389.227C204.445 388.242 203.982 387.703 203.045 387.703C202.084 387.703 201.457 388.383 201.457 389.414V393H200.438ZM209.329 387.686C208.374 387.686 207.706 388.418 207.642 389.432H210.952C210.929 388.412 210.29 387.686 209.329 387.686ZM210.929 391.254H211.931C211.755 392.32 210.724 393.105 209.394 393.105C207.647 393.105 206.587 391.893 206.587 389.977C206.587 388.084 207.665 386.801 209.347 386.801C210.993 386.801 212.007 387.996 212.007 389.842V390.229H207.636V390.287C207.636 391.453 208.321 392.221 209.417 392.221C210.19 392.221 210.759 391.828 210.929 391.254ZM215.467 393.105C213.914 393.105 212.859 391.863 212.859 389.953C212.859 388.043 213.908 386.801 215.443 386.801C216.316 386.801 217.019 387.229 217.383 387.896H217.406V384.545H218.426V393H217.453V391.969H217.435C217.043 392.672 216.346 393.105 215.467 393.105ZM215.66 387.697C214.582 387.697 213.902 388.576 213.902 389.953C213.902 391.336 214.582 392.209 215.66 392.209C216.709 392.209 217.412 391.318 217.412 389.953C217.412 388.594 216.709 387.697 215.66 387.697ZM222.556 393V386.906H223.576V393H222.556ZM223.066 385.881C222.72 385.881 222.433 385.594 222.433 385.248C222.433 384.896 222.72 384.615 223.066 384.615C223.418 384.615 223.705 384.896 223.705 385.248C223.705 385.594 223.418 385.881 223.066 385.881ZM225.073 393V386.906H226.034V387.879H226.057C226.397 387.223 227.047 386.801 227.991 386.801C229.327 386.801 230.1 387.662 230.1 389.045V393H229.081V389.227C229.081 388.242 228.618 387.703 227.68 387.703C226.719 387.703 226.092 388.383 226.092 389.414V393H225.073ZM234.43 385.436H235.449V386.906H236.633V387.744H235.449V391.365C235.449 391.922 235.684 392.174 236.205 392.174C236.323 392.174 236.557 392.156 236.627 392.145V393C236.504 393.029 236.223 393.047 235.983 393.047C234.864 393.047 234.43 392.59 234.43 391.418V387.744H233.522V386.906H234.43V385.436ZM237.896 393V384.545H238.915V387.879H238.939C239.278 387.199 239.946 386.801 240.872 386.801C242.208 386.801 243.017 387.703 243.017 389.062V393H241.997V389.25C241.997 388.283 241.511 387.703 240.556 387.703C239.542 387.703 238.915 388.395 238.915 389.449V393H237.896ZM246.875 387.686C245.92 387.686 245.252 388.418 245.188 389.432H248.498C248.475 388.412 247.836 387.686 246.875 387.686ZM248.475 391.254H249.477C249.301 392.32 248.27 393.105 246.939 393.105C245.193 393.105 244.133 391.893 244.133 389.977C244.133 388.084 245.211 386.801 246.893 386.801C248.539 386.801 249.553 387.996 249.553 389.842V390.229H245.182V390.287C245.182 391.453 245.867 392.221 246.963 392.221C247.736 392.221 248.305 391.828 248.475 391.254ZM258.347 388.904H257.351C257.205 388.242 256.689 387.697 255.793 387.697C254.738 387.697 254.023 388.57 254.023 389.953C254.023 391.371 254.75 392.209 255.804 392.209C256.636 392.209 257.181 391.77 257.357 391.037H258.359C258.201 392.25 257.181 393.105 255.799 393.105C254.111 393.105 252.986 391.916 252.986 389.953C252.986 388.031 254.105 386.801 255.787 386.801C257.31 386.801 258.219 387.809 258.347 388.904ZM261.942 393.105C260.255 393.105 259.118 391.893 259.118 389.953C259.118 388.008 260.255 386.801 261.942 386.801C263.624 386.801 264.76 388.008 264.76 389.953C264.76 391.893 263.624 393.105 261.942 393.105ZM261.942 392.209C263.02 392.209 263.723 391.389 263.723 389.953C263.723 388.518 263.02 387.697 261.942 387.697C260.864 387.697 260.155 388.518 260.155 389.953C260.155 391.389 260.864 392.209 261.942 392.209ZM265.912 393V386.906H266.873V387.879H266.896C267.236 387.223 267.886 386.801 268.83 386.801C270.166 386.801 270.939 387.662 270.939 389.045V393H269.919V389.227C269.919 388.242 269.457 387.703 268.519 387.703C267.558 387.703 266.931 388.383 266.931 389.414V393H265.912ZM272.688 385.436H273.707V386.906H274.891V387.744H273.707V391.365C273.707 391.922 273.942 392.174 274.463 392.174C274.58 392.174 274.815 392.156 274.885 392.145V393C274.762 393.029 274.481 393.047 274.241 393.047C273.121 393.047 272.688 392.59 272.688 391.418V387.744H271.78V386.906H272.688V385.436ZM276.101 393V386.906H277.062V387.902H277.085C277.284 387.229 277.847 386.801 278.562 386.801C278.738 386.801 278.89 386.83 278.972 386.842V387.832C278.89 387.803 278.673 387.773 278.427 387.773C277.636 387.773 277.12 388.342 277.12 389.203V393H276.101ZM281.817 392.238C282.777 392.238 283.516 391.564 283.516 390.686V390.188L281.887 390.287C281.067 390.34 280.598 390.703 280.598 391.277C280.598 391.857 281.084 392.238 281.817 392.238ZM281.588 393.105C280.375 393.105 279.561 392.373 279.561 391.277C279.561 390.234 280.363 389.578 281.77 389.496L283.516 389.396V388.887C283.516 388.143 283.024 387.697 282.18 387.697C281.395 387.697 280.902 388.066 280.774 388.664H279.789C279.86 387.609 280.762 386.801 282.203 386.801C283.633 386.801 284.535 387.574 284.535 388.787V393H283.569V391.951H283.545C283.182 392.648 282.408 393.105 281.588 393.105ZM291.013 388.904H290.017C289.87 388.242 289.355 387.697 288.458 387.697C287.403 387.697 286.689 388.57 286.689 389.953C286.689 391.371 287.415 392.209 288.47 392.209C289.302 392.209 289.847 391.77 290.023 391.037H291.024C290.866 392.25 289.847 393.105 288.464 393.105C286.776 393.105 285.651 391.916 285.651 389.953C285.651 388.031 286.771 386.801 288.452 386.801C289.976 386.801 290.884 387.809 291.013 388.904ZM292.41 385.436H293.43V386.906H294.613V387.744H293.43V391.365C293.43 391.922 293.664 392.174 294.185 392.174C294.303 392.174 294.537 392.156 294.607 392.145V393C294.484 393.029 294.203 393.047 293.963 393.047C292.844 393.047 292.41 392.59 292.41 391.418V387.744H291.502V386.906H292.41V385.436ZM300.414 392.238C301.375 392.238 302.113 391.564 302.113 390.686V390.188L300.484 390.287C299.664 390.34 299.195 390.703 299.195 391.277C299.195 391.857 299.681 392.238 300.414 392.238ZM300.185 393.105C298.972 393.105 298.158 392.373 298.158 391.277C298.158 390.234 298.961 389.578 300.367 389.496L302.113 389.396V388.887C302.113 388.143 301.621 387.697 300.777 387.697C299.992 387.697 299.5 388.066 299.371 388.664H298.386C298.457 387.609 299.359 386.801 300.8 386.801C302.23 386.801 303.133 387.574 303.133 388.787V393H302.166V391.951H302.142C301.779 392.648 301.006 393.105 300.185 393.105ZM309.545 386.906L307.307 393H306.264L304.02 386.906H305.092L306.774 391.916H306.797L308.485 386.906H309.545ZM312.361 392.238C313.322 392.238 314.06 391.564 314.06 390.686V390.188L312.431 390.287C311.611 390.34 311.142 390.703 311.142 391.277C311.142 391.857 311.628 392.238 312.361 392.238ZM312.132 393.105C310.919 393.105 310.105 392.373 310.105 391.277C310.105 390.234 310.908 389.578 312.314 389.496L314.06 389.396V388.887C314.06 388.143 313.568 387.697 312.724 387.697C311.939 387.697 311.447 388.066 311.318 388.664H310.333C310.404 387.609 311.306 386.801 312.747 386.801C314.177 386.801 315.08 387.574 315.08 388.787V393H314.113V391.951H314.089C313.726 392.648 312.953 393.105 312.132 393.105ZM316.547 393V386.906H317.567V393H316.547ZM317.057 385.881C316.711 385.881 316.424 385.594 316.424 385.248C316.424 384.896 316.711 384.615 317.057 384.615C317.409 384.615 317.696 384.896 317.696 385.248C317.696 385.594 317.409 385.881 317.057 385.881ZM319.116 393V384.545H320.136V393H319.116ZM323.643 392.238C324.604 392.238 325.342 391.564 325.342 390.686V390.188L323.713 390.287C322.893 390.34 322.424 390.703 322.424 391.277C322.424 391.857 322.91 392.238 323.643 392.238ZM323.414 393.105C322.201 393.105 321.387 392.373 321.387 391.277C321.387 390.234 322.19 389.578 323.596 389.496L325.342 389.396V388.887C325.342 388.143 324.85 387.697 324.006 387.697C323.221 387.697 322.729 388.066 322.6 388.664H321.615C321.686 387.609 322.588 386.801 324.029 386.801C325.459 386.801 326.361 387.574 326.361 388.787V393H325.395V391.951H325.371C325.008 392.648 324.234 393.105 323.414 393.105ZM330.806 393.105C329.915 393.105 329.218 392.672 328.825 391.969H328.802V393H327.829V384.545H328.849V387.926H328.872C329.253 387.229 329.962 386.801 330.823 386.801C332.358 386.801 333.395 388.043 333.395 389.953C333.395 391.869 332.364 393.105 330.806 393.105ZM330.606 387.697C329.575 387.697 328.843 388.6 328.843 389.953C328.843 391.312 329.575 392.209 330.606 392.209C331.685 392.209 332.352 391.348 332.352 389.953C332.352 388.57 331.685 387.697 330.606 387.697ZM334.605 393V384.545H335.625V393H334.605ZM339.565 387.686C338.61 387.686 337.942 388.418 337.878 389.432H341.188C341.165 388.412 340.526 387.686 339.565 387.686ZM341.165 391.254H342.167C341.991 392.32 340.96 393.105 339.63 393.105C337.884 393.105 336.823 391.893 336.823 389.977C336.823 388.084 337.901 386.801 339.583 386.801C341.229 386.801 342.243 387.996 342.243 389.842V390.229H337.872V390.287C337.872 391.453 338.557 392.221 339.653 392.221C340.426 392.221 340.995 391.828 341.165 391.254ZM350.979 386.906V393H350.012V392.01H349.989C349.625 392.713 348.993 393.105 348.055 393.105C346.725 393.105 345.946 392.244 345.946 390.861V386.906H346.965V390.68C346.965 391.67 347.428 392.203 348.372 392.203C349.362 392.203 349.959 391.523 349.959 390.486V386.906H350.979ZM352.423 393V386.906H353.384V387.879H353.408C353.747 387.223 354.398 386.801 355.341 386.801C356.677 386.801 357.451 387.662 357.451 389.045V393H356.431V389.227C356.431 388.242 355.968 387.703 355.031 387.703C354.07 387.703 353.443 388.383 353.443 389.414V393H352.423ZM361.18 393.105C359.627 393.105 358.572 391.863 358.572 389.953C358.572 388.043 359.621 386.801 361.156 386.801C362.03 386.801 362.733 387.229 363.096 387.896H363.119V384.545H364.139V393H363.166V391.969H363.149C362.756 392.672 362.059 393.105 361.18 393.105ZM361.373 387.697C360.295 387.697 359.615 388.576 359.615 389.953C359.615 391.336 360.295 392.209 361.373 392.209C362.422 392.209 363.125 391.318 363.125 389.953C363.125 388.594 362.422 387.697 361.373 387.697ZM368.079 387.686C367.124 387.686 366.456 388.418 366.392 389.432H369.702C369.679 388.412 369.04 387.686 368.079 387.686ZM369.679 391.254H370.681C370.505 392.32 369.474 393.105 368.144 393.105C366.398 393.105 365.337 391.893 365.337 389.977C365.337 388.084 366.415 386.801 368.097 386.801C369.743 386.801 370.757 387.996 370.757 389.842V390.229H366.386V390.287C366.386 391.453 367.071 392.221 368.167 392.221C368.941 392.221 369.509 391.828 369.679 391.254ZM371.908 393V386.906H372.869V387.902H372.893C373.092 387.229 373.654 386.801 374.369 386.801C374.545 386.801 374.697 386.83 374.779 386.842V387.832C374.697 387.803 374.48 387.773 374.234 387.773C373.443 387.773 372.928 388.342 372.928 389.203V393H371.908ZM122.416 410.674H123.477C123.576 411.588 124.443 412.191 125.65 412.191C126.793 412.191 127.625 411.588 127.625 410.756C127.625 410.041 127.127 409.602 125.99 409.309L124.906 409.027C123.348 408.629 122.656 407.943 122.656 406.795C122.656 405.389 123.887 404.404 125.645 404.404C127.326 404.404 128.545 405.4 128.592 406.818H127.537C127.443 405.91 126.711 405.354 125.609 405.354C124.514 405.354 123.752 405.922 123.752 406.748C123.752 407.387 124.221 407.768 125.369 408.066L126.254 408.301C128.006 408.74 128.715 409.414 128.715 410.627C128.715 412.174 127.496 413.141 125.551 413.141C123.758 413.141 122.516 412.168 122.416 410.674ZM132.35 407.686C131.395 407.686 130.727 408.418 130.663 409.432H133.974C133.95 408.412 133.311 407.686 132.35 407.686ZM133.95 411.254H134.952C134.776 412.32 133.745 413.105 132.415 413.105C130.669 413.105 129.608 411.893 129.608 409.977C129.608 408.084 130.686 406.801 132.368 406.801C134.015 406.801 135.028 407.996 135.028 409.842V410.229H130.657V410.287C130.657 411.453 131.343 412.221 132.438 412.221C133.212 412.221 133.78 411.828 133.95 411.254ZM136.508 405.436H137.527V406.906H138.711V407.744H137.527V411.365C137.527 411.922 137.761 412.174 138.283 412.174C138.4 412.174 138.635 412.156 138.705 412.145V413C138.582 413.029 138.301 413.047 138.06 413.047C136.941 413.047 136.508 412.59 136.508 411.418V407.744H135.599V406.906H136.508V405.436ZM140.249 405.436H141.268V406.906H142.452V407.744H141.268V411.365C141.268 411.922 141.503 412.174 142.024 412.174C142.141 412.174 142.376 412.156 142.446 412.145V413C142.323 413.029 142.042 413.047 141.801 413.047C140.682 413.047 140.249 412.59 140.249 411.418V407.744H139.34V406.906H140.249V405.436ZM143.714 413V406.906H144.734V413H143.714ZM144.224 405.881C143.878 405.881 143.591 405.594 143.591 405.248C143.591 404.896 143.878 404.615 144.224 404.615C144.576 404.615 144.863 404.896 144.863 405.248C144.863 405.594 144.576 405.881 144.224 405.881ZM146.231 413V406.906H147.192V407.879H147.215C147.555 407.223 148.205 406.801 149.149 406.801C150.485 406.801 151.258 407.662 151.258 409.045V413H150.239V409.227C150.239 408.242 149.776 407.703 148.838 407.703C147.877 407.703 147.25 408.383 147.25 409.414V413H146.231ZM155.157 412.15C156.218 412.15 156.927 411.271 156.927 409.93C156.927 408.588 156.218 407.697 155.157 407.697C154.109 407.697 153.423 408.564 153.423 409.93C153.423 411.295 154.109 412.15 155.157 412.15ZM155.193 415.297C153.851 415.297 152.79 414.541 152.62 413.504H153.669C153.868 414.061 154.472 414.43 155.234 414.43C156.288 414.43 156.927 413.82 156.927 412.912V411.951H156.904C156.529 412.613 155.808 413.047 154.952 413.047C153.4 413.047 152.38 411.822 152.38 409.93C152.38 408.02 153.4 406.801 154.976 406.801C155.837 406.801 156.552 407.223 156.956 407.932H156.974V406.906H157.947V412.877C157.947 414.33 156.874 415.297 155.193 415.297ZM159.291 408.588C159.291 407.545 160.223 406.801 161.565 406.801C162.824 406.801 163.75 407.551 163.797 408.582H162.824C162.754 407.996 162.279 407.633 161.529 407.633C160.785 407.633 160.293 408.002 160.293 408.535C160.293 408.957 160.615 409.238 161.307 409.414L162.25 409.643C163.481 409.953 163.926 410.398 163.926 411.295C163.926 412.355 162.924 413.105 161.5 413.105C160.164 413.105 159.233 412.379 159.127 411.301H160.147C160.258 411.934 160.738 412.273 161.565 412.273C162.391 412.273 162.901 411.922 162.901 411.371C162.901 410.938 162.649 410.703 161.963 410.521L160.891 410.246C159.819 409.971 159.291 409.42 159.291 408.588ZM165.968 413.059C165.593 413.059 165.3 412.766 165.3 412.391C165.3 412.016 165.593 411.723 165.968 411.723C166.343 411.723 166.636 412.016 166.636 412.391C166.636 412.766 166.343 413.059 165.968 413.059Z" fill="black"/>
<rect width="349" height="16" transform="translate(90 283)" fill="white"/>
<rect x="122" y="436" width="285" height="40" rx="6" fill="#252525"/>
<path d="M256.593 460L255.743 457.58H252.38L251.53 460H250.423L253.54 451.545H254.583L257.7 460H256.593ZM254.044 452.828L252.69 456.684H255.432L254.079 452.828H254.044ZM263.574 455.904H262.578C262.431 455.242 261.916 454.697 261.019 454.697C259.965 454.697 259.25 455.57 259.25 456.953C259.25 458.371 259.976 459.209 261.031 459.209C261.863 459.209 262.408 458.77 262.584 458.037H263.586C263.427 459.25 262.408 460.105 261.025 460.105C259.338 460.105 258.213 458.916 258.213 456.953C258.213 455.031 259.332 453.801 261.013 453.801C262.537 453.801 263.445 454.809 263.574 455.904ZM269.706 455.904H268.71C268.563 455.242 268.047 454.697 267.151 454.697C266.096 454.697 265.381 455.57 265.381 456.953C265.381 458.371 266.108 459.209 267.163 459.209C267.995 459.209 268.54 458.77 268.715 458.037H269.717C269.559 459.25 268.54 460.105 267.157 460.105C265.469 460.105 264.344 458.916 264.344 456.953C264.344 455.031 265.463 453.801 267.145 453.801C268.669 453.801 269.577 454.809 269.706 455.904ZM273.218 454.686C272.263 454.686 271.595 455.418 271.531 456.432H274.841C274.818 455.412 274.179 454.686 273.218 454.686ZM274.818 458.254H275.82C275.644 459.32 274.613 460.105 273.283 460.105C271.537 460.105 270.476 458.893 270.476 456.977C270.476 455.084 271.554 453.801 273.236 453.801C274.882 453.801 275.896 454.996 275.896 456.842V457.229H271.525V457.287C271.525 458.453 272.21 459.221 273.306 459.221C274.08 459.221 274.648 458.828 274.818 458.254ZM280.006 453.801C281.559 453.801 282.614 455.043 282.614 456.953C282.614 458.863 281.565 460.105 280.03 460.105C279.157 460.105 278.453 459.678 278.09 459.01H278.067V462.033H277.047V453.906H278.014V454.938H278.037C278.412 454.252 279.121 453.801 280.006 453.801ZM279.807 459.209C280.891 459.209 281.571 458.336 281.571 456.953C281.571 455.576 280.891 454.697 279.807 454.697C278.764 454.697 278.061 455.6 278.061 456.953C278.061 458.312 278.764 459.209 279.807 459.209ZM284.093 452.436H285.112V453.906H286.296V454.744H285.112V458.365C285.112 458.922 285.347 459.174 285.868 459.174C285.986 459.174 286.22 459.156 286.29 459.145V460C286.167 460.029 285.886 460.047 285.646 460.047C284.527 460.047 284.093 459.59 284.093 458.418V454.744H283.185V453.906H284.093V452.436Z" fill="white"/>
</g>
<defs>
<filter id="filter0_dd_297_9600" x="0" y="0" width="539" height="974" filterUnits="userSpaceOnUse" color-interpolation-filters="sRGB">
<feFlood flood-opacity="0" result="BackgroundImageFix"/>
<feColorMatrix in="SourceAlpha" type="matrix" values="0 0 0 0 0 0 0 0 0 0 0 0 0 0 0 0 0 0 127 0" result="hardAlpha"/>
<feOffset dx="28" dy="28"/>
<feGaussianBlur stdDeviation="25"/>
<feComposite in2="hardAlpha" operator="out"/>
<feColorMatrix type="matrix" values="0 0 0 0 0.0509804 0 0 0 0 0.152941 0 0 0 0 0.313726 0 0 0 0.16 0"/>
<feBlend mode="normal" in2="BackgroundImageFix" result="effect1_dropShadow_297_9600"/>
<feColorMatrix in="SourceAlpha" type="matrix" values="0 0 0 0 0 0 0 0 0 0 0 0 0 0 0 0 0 0 127 0" result="hardAlpha"/>
<feOffset dx="-23" dy="-23"/>
<feGaussianBlur stdDeviation="22.5"/>
<feComposite in2="hardAlpha" operator="out"/>
<feColorMatrix type="matrix" values="0 0 0 0 1 0 0 0 0 1 0 0 0 0 1 0 0 0 1 0"/>
<feBlend mode="normal" in2="effect1_dropShadow_297_9600" result="effect2_dropShadow_297_9600"/>
<feBlend mode="normal" in="SourceGraphic" in2="effect2_dropShadow_297_9600" result="shape"/>
</filter>
<clipPath id="clip0_297_9600">
<rect x="90" y="104" width="349" height="60" rx="18" fill="white"/>
</clipPath>
<clipPath id="clip1_297_9600">
<path d="M114 164H415V224H114V164Z" fill="white"/>
</clipPath>
<clipPath id="clip2_297_9600">
<path d="M114 223H415V283H114V223Z" fill="white"/>
</clipPath>
</defs>
</svg>
