<svg width="82" height="82" viewBox="0 0 82 82" fill="none" xmlns="http://www.w3.org/2000/svg">
<circle cx="41" cy="41" r="41" fill="white"/>
<path d="M54.5 29.75H27.5C26.9033 29.75 26.331 29.9871 25.909 30.409C25.4871 30.831 25.25 31.4033 25.25 32V50C25.25 50.5967 25.4871 51.169 25.909 51.591C26.331 52.0129 26.9033 52.25 27.5 52.25H54.5C55.0967 52.25 55.669 52.0129 56.091 51.591C56.5129 51.169 56.75 50.5967 56.75 50V32C56.75 31.4033 56.5129 30.831 56.091 30.409C55.669 29.9871 55.0967 29.75 54.5 29.75ZM34.25 45.5C34.1022 45.5001 33.9559 45.4711 33.8193 45.4147C33.6827 45.3582 33.5586 45.2754 33.4541 45.1709L30.0791 41.7959C29.868 41.5848 29.7494 41.2985 29.7494 41C29.7494 40.7015 29.868 40.4152 30.0791 40.2041C30.2902 39.993 30.5765 39.8744 30.875 39.8744C31.1735 39.8744 31.4598 39.993 31.6709 40.2041L34.25 42.7845L41.3291 35.7041C41.4336 35.5995 41.5577 35.5166 41.6942 35.4601C41.8308 35.4035 41.9772 35.3744 42.125 35.3744C42.2728 35.3744 42.4192 35.4035 42.5558 35.4601C42.6923 35.5166 42.8164 35.5995 42.9209 35.7041C43.0255 35.8086 43.1084 35.9327 43.1649 36.0692C43.2215 36.2058 43.2506 36.3522 43.2506 36.5C43.2506 36.6478 43.2215 36.7942 43.1649 36.9308C43.1084 37.0673 43.0255 37.1914 42.9209 37.2959L35.0459 45.1709C34.9414 45.2754 34.8173 45.3582 34.6807 45.4147C34.5441 45.4711 34.3978 45.5001 34.25 45.5ZM53.0459 37.2959L45.1709 45.1709C45.0665 45.2755 44.9424 45.3585 44.8058 45.4151C44.6692 45.4717 44.5228 45.5009 44.375 45.5009C44.2272 45.5009 44.0808 45.4717 43.9442 45.4151C43.8076 45.3585 43.6835 45.2755 43.5791 45.1709L41.3291 42.9209C41.118 42.7098 40.9994 42.4235 40.9994 42.125C40.9994 41.8265 41.118 41.5402 41.3291 41.3291C41.5402 41.118 41.8265 40.9994 42.125 40.9994C42.4235 40.9994 42.7098 41.118 42.9209 41.3291L44.375 42.7845L51.4541 35.7041C51.5586 35.5995 51.6827 35.5166 51.8192 35.4601C51.9558 35.4035 52.1022 35.3744 52.25 35.3744C52.3978 35.3744 52.5442 35.4035 52.6808 35.4601C52.8173 35.5166 52.9414 35.5995 53.0459 35.7041C53.1505 35.8086 53.2334 35.9327 53.2899 36.0692C53.3465 36.2058 53.3756 36.3522 53.3756 36.5C53.3756 36.6478 53.3465 36.7942 53.2899 36.9308C53.2334 37.0673 53.1505 37.1914 53.0459 37.2959Z" fill="#897AE6"/>
</svg>
