<svg width="36" height="36" viewBox="0 0 36 36" fill="none" xmlns="http://www.w3.org/2000/svg">
<path d="M33.0933 12.5663L23.4352 2.90821C23.2262 2.69923 22.9782 2.53345 22.7051 2.42034C22.4321 2.30724 22.1395 2.24902 21.844 2.24902C21.5485 2.24902 21.2558 2.30724 20.9828 2.42034C20.7098 2.53345 20.4617 2.69923 20.2528 2.90821L16.2534 6.90759L8.09718 9.96759C7.72657 10.1055 7.39884 10.3386 7.14703 10.6435C6.89521 10.9484 6.72819 11.3143 6.66281 11.7043L3.74203 29.2262C3.72245 29.3437 3.74067 29.4643 3.79406 29.5708C3.84745 29.6773 3.93327 29.7641 4.03913 29.8186C4.145 29.8732 4.26546 29.8928 4.38316 29.8745C4.50086 29.8562 4.60972 29.8011 4.69406 29.717L12.7097 21.7013C12.4557 21.173 12.3447 20.5873 12.3877 20.0026C12.4399 19.2833 12.7213 18.5997 13.1904 18.052C13.6595 17.5042 14.2917 17.1211 14.9944 16.9588C15.697 16.7966 16.4332 16.8636 17.095 17.1502C17.7568 17.4368 18.3093 17.9279 18.6717 18.5514C19.0341 19.1749 19.1872 19.8981 19.1087 20.615C19.0301 21.3319 18.724 22.0047 18.2352 22.5349C17.7463 23.0652 17.1005 23.4249 16.3924 23.5613C15.6842 23.6978 14.951 23.6038 14.3002 23.2932L6.28453 31.3088C6.20043 31.3932 6.14527 31.502 6.127 31.6197C6.10872 31.7374 6.12829 31.8579 6.18286 31.9638C6.23744 32.0696 6.32421 32.1554 6.43068 32.2088C6.53715 32.2622 6.65782 32.2805 6.77531 32.2609L24.2986 29.3401C24.688 29.2752 25.0534 29.109 25.3583 28.8583C25.6631 28.6075 25.8966 28.2809 26.0353 27.9113L29.0967 19.7452L33.0933 15.7501C33.3023 15.5412 33.468 15.2931 33.5811 15.0201C33.6943 14.7471 33.7525 14.4544 33.7525 14.1589C33.7525 13.8634 33.6943 13.5708 33.5811 13.2978C33.468 13.0247 33.3023 12.7767 33.0933 12.5677V12.5663ZM28.1278 17.5332L18.4697 7.87509L21.8447 4.50009L31.5028 14.1582L28.1278 17.5332Z" fill="#343330"/>
</svg>
