<svg width="36" height="36" viewBox="0 0 36 36" fill="none" xmlns="http://www.w3.org/2000/svg">
<path d="M31.5 6.75H4.5C3.90326 6.75 3.33097 6.98705 2.90901 7.40901C2.48705 7.83097 2.25 8.40326 2.25 9V27C2.25 27.5967 2.48705 28.169 2.90901 28.591C3.33097 29.0129 3.90326 29.25 4.5 29.25H31.5C32.0967 29.25 32.669 29.0129 33.091 28.591C33.5129 28.169 33.75 27.5967 33.75 27V9C33.75 8.40326 33.5129 7.83097 33.091 7.40901C32.669 6.98705 32.0967 6.75 31.5 6.75ZM11.25 22.5C11.1022 22.5001 10.9559 22.4711 10.8193 22.4147C10.6827 22.3582 10.5586 22.2754 10.4541 22.1709L7.07906 18.7959C6.86797 18.5848 6.74937 18.2985 6.74937 18C6.74937 17.7015 6.86797 17.4152 7.07906 17.2041C7.29016 16.993 7.57647 16.8744 7.875 16.8744C8.17353 16.8744 8.45984 16.993 8.67094 17.2041L11.25 19.7845L18.3291 12.7041C18.4336 12.5995 18.5577 12.5166 18.6942 12.4601C18.8308 12.4035 18.9772 12.3744 19.125 12.3744C19.2728 12.3744 19.4192 12.4035 19.5558 12.4601C19.6923 12.5166 19.8164 12.5995 19.9209 12.7041C20.0255 12.8086 20.1084 12.9327 20.1649 13.0692C20.2215 13.2058 20.2506 13.3522 20.2506 13.5C20.2506 13.6478 20.2215 13.7942 20.1649 13.9308C20.1084 14.0673 20.0255 14.1914 19.9209 14.2959L12.0459 22.1709C11.9414 22.2754 11.8173 22.3582 11.6807 22.4147C11.5441 22.4711 11.3978 22.5001 11.25 22.5ZM30.0459 14.2959L22.1709 22.1709C22.0665 22.2755 21.9424 22.3585 21.8058 22.4151C21.6692 22.4717 21.5228 22.5009 21.375 22.5009C21.2272 22.5009 21.0808 22.4717 20.9442 22.4151C20.8076 22.3585 20.6835 22.2755 20.5791 22.1709L18.3291 19.9209C18.118 19.7098 17.9994 19.4235 17.9994 19.125C17.9994 18.8265 18.118 18.5402 18.3291 18.3291C18.5402 18.118 18.8265 17.9994 19.125 17.9994C19.4235 17.9994 19.7098 18.118 19.9209 18.3291L21.375 19.7845L28.4541 12.7041C28.5586 12.5995 28.6827 12.5166 28.8192 12.4601C28.9558 12.4035 29.1022 12.3744 29.25 12.3744C29.3978 12.3744 29.5442 12.4035 29.6808 12.4601C29.8173 12.5166 29.9414 12.5995 30.0459 12.7041C30.1505 12.8086 30.2334 12.9327 30.2899 13.0692C30.3465 13.2058 30.3756 13.3522 30.3756 13.5C30.3756 13.6478 30.3465 13.7942 30.2899 13.9308C30.2334 14.0673 30.1505 14.1914 30.0459 14.2959Z" fill="#343330"/>
</svg>
