<svg width="36" height="36" viewBox="0 0 36 36" fill="none" xmlns="http://www.w3.org/2000/svg">
<path d="M28.2333 7.57829C25.5104 4.88192 21.8321 3.37108 18 3.37501H17.8495C13.9969 3.41465 10.3155 4.97297 7.60523 7.71141C4.89497 10.4498 3.3748 14.1471 3.375 18C3.375 24.0469 7.11281 29.1178 13.1288 31.2427C13.8073 31.4819 14.5333 31.5549 15.2459 31.4557C15.9585 31.3564 16.6368 31.0877 17.2242 30.6722C17.8115 30.2566 18.2906 29.7063 18.6213 29.0673C18.9521 28.4284 19.1248 27.7195 19.125 27C19.125 26.4033 19.3621 25.831 19.784 25.409C20.206 24.9871 20.7783 24.75 21.375 24.75H27.8733C28.8941 24.7549 29.8858 24.4106 30.6839 23.7742C31.482 23.1378 32.0384 22.2475 32.2608 21.2513C32.5122 20.1441 32.6345 19.0116 32.625 17.8763C32.6107 15.9546 32.2151 14.0548 31.4613 12.2871C30.7074 10.5194 29.6102 8.91888 28.2333 7.57829ZM11.8125 23.625C11.4787 23.625 11.1525 23.526 10.875 23.3406C10.5975 23.1552 10.3812 22.8916 10.2535 22.5833C10.1257 22.2749 10.0923 21.9356 10.1574 21.6083C10.2225 21.281 10.3833 20.9803 10.6193 20.7443C10.8553 20.5083 11.1559 20.3475 11.4833 20.2824C11.8106 20.2173 12.1499 20.2507 12.4583 20.3785C12.7666 20.5062 13.0302 20.7225 13.2156 21C13.401 21.2775 13.5 21.6038 13.5 21.9375C13.5 22.3851 13.3222 22.8143 13.0057 23.1308C12.6893 23.4472 12.2601 23.625 11.8125 23.625ZM11.8125 15.75C11.4787 15.75 11.1525 15.651 10.875 15.4656C10.5975 15.2802 10.3812 15.0166 10.2535 14.7083C10.1257 14.3999 10.0923 14.0606 10.1574 13.7333C10.2225 13.4059 10.3833 13.1053 10.6193 12.8693C10.8553 12.6333 11.1559 12.4725 11.4833 12.4074C11.8106 12.3423 12.1499 12.3757 12.4583 12.5035C12.7666 12.6312 13.0302 12.8475 13.2156 13.125C13.401 13.4025 13.5 13.7288 13.5 14.0625C13.5 14.5101 13.3222 14.9393 13.0057 15.2558C12.6893 15.5722 12.2601 15.75 11.8125 15.75ZM18 12.375C17.6662 12.375 17.34 12.276 17.0625 12.0906C16.785 11.9052 16.5687 11.6416 16.441 11.3333C16.3132 11.0249 16.2798 10.6856 16.3449 10.3583C16.41 10.0309 16.5708 9.73027 16.8068 9.49426C17.0428 9.25826 17.3434 9.09754 17.6708 9.03243C17.9981 8.96732 18.3374 9.00074 18.6458 9.12846C18.9541 9.25618 19.2177 9.47248 19.4031 9.74998C19.5885 10.0275 19.6875 10.3538 19.6875 10.6875C19.6875 11.1351 19.5097 11.5643 19.1932 11.8808C18.8768 12.1972 18.4476 12.375 18 12.375ZM24.1875 15.75C23.8537 15.75 23.5275 15.651 23.25 15.4656C22.9725 15.2802 22.7562 15.0166 22.6285 14.7083C22.5007 14.3999 22.4673 14.0606 22.5324 13.7333C22.5975 13.4059 22.7583 13.1053 22.9943 12.8693C23.2303 12.6333 23.5309 12.4725 23.8583 12.4074C24.1856 12.3423 24.5249 12.3757 24.8333 12.5035C25.1416 12.6312 25.4052 12.8475 25.5906 13.125C25.776 13.4025 25.875 13.7288 25.875 14.0625C25.875 14.5101 25.6972 14.9393 25.3807 15.2558C25.0643 15.5722 24.6351 15.75 24.1875 15.75Z" fill="#343330"/>
</svg>
