<svg width="82" height="82" viewBox="0 0 82 82" fill="none" xmlns="http://www.w3.org/2000/svg">
<circle cx="41" cy="41" r="41" fill="white"/>
<path d="M51.2333 30.5783C48.5104 27.8819 44.8321 26.3711 41 26.375H40.8495C36.9969 26.4146 33.3155 27.973 30.6052 30.7114C27.895 33.4498 26.3748 37.1471 26.375 41C26.375 47.0469 30.1128 52.1178 36.1288 54.2427C36.8073 54.4819 37.5333 54.5549 38.2459 54.4557C38.9585 54.3564 39.6368 54.0877 40.2242 53.6722C40.8115 53.2566 41.2906 52.7063 41.6213 52.0673C41.9521 51.4284 42.1248 50.7195 42.125 50C42.125 49.4033 42.3621 48.831 42.784 48.409C43.206 47.9871 43.7783 47.75 44.375 47.75H50.8733C51.8941 47.7549 52.8858 47.4106 53.6839 46.7742C54.482 46.1378 55.0384 45.2475 55.2608 44.2513C55.5122 43.1441 55.6345 42.0116 55.625 40.8763C55.6107 38.9546 55.2151 37.0548 54.4613 35.2871C53.7074 33.5194 52.6102 31.9189 51.2333 30.5783ZM34.8125 46.625C34.4787 46.625 34.1525 46.526 33.875 46.3406C33.5975 46.1552 33.3812 45.8916 33.2535 45.5833C33.1257 45.2749 33.0923 44.9356 33.1574 44.6083C33.2225 44.281 33.3833 43.9803 33.6193 43.7443C33.8553 43.5083 34.1559 43.3475 34.4833 43.2824C34.8106 43.2173 35.1499 43.2507 35.4583 43.3785C35.7666 43.5062 36.0302 43.7225 36.2156 44C36.401 44.2775 36.5 44.6038 36.5 44.9375C36.5 45.3851 36.3222 45.8143 36.0057 46.1308C35.6893 46.4472 35.2601 46.625 34.8125 46.625ZM34.8125 38.75C34.4787 38.75 34.1525 38.651 33.875 38.4656C33.5975 38.2802 33.3812 38.0166 33.2535 37.7083C33.1257 37.3999 33.0923 37.0606 33.1574 36.7333C33.2225 36.4059 33.3833 36.1053 33.6193 35.8693C33.8553 35.6333 34.1559 35.4725 34.4833 35.4074C34.8106 35.3423 35.1499 35.3757 35.4583 35.5035C35.7666 35.6312 36.0302 35.8475 36.2156 36.125C36.401 36.4025 36.5 36.7288 36.5 37.0625C36.5 37.5101 36.3222 37.9393 36.0057 38.2558C35.6893 38.5722 35.2601 38.75 34.8125 38.75ZM41 35.375C40.6662 35.375 40.34 35.276 40.0625 35.0906C39.785 34.9052 39.5687 34.6416 39.441 34.3333C39.3132 34.0249 39.2798 33.6856 39.3449 33.3583C39.41 33.0309 39.5708 32.7303 39.8068 32.4943C40.0428 32.2583 40.3434 32.0975 40.6708 32.0324C40.9981 31.9673 41.3374 32.0007 41.6458 32.1285C41.9541 32.2562 42.2177 32.4725 42.4031 32.75C42.5885 33.0275 42.6875 33.3538 42.6875 33.6875C42.6875 34.1351 42.5097 34.5643 42.1932 34.8808C41.8768 35.1972 41.4476 35.375 41 35.375ZM47.1875 38.75C46.8537 38.75 46.5275 38.651 46.25 38.4656C45.9725 38.2802 45.7562 38.0166 45.6285 37.7083C45.5007 37.3999 45.4673 37.0606 45.5324 36.7333C45.5975 36.4059 45.7583 36.1053 45.9943 35.8693C46.2303 35.6333 46.5309 35.4725 46.8583 35.4074C47.1856 35.3423 47.5249 35.3757 47.8333 35.5035C48.1416 35.6312 48.4052 35.8475 48.5906 36.125C48.776 36.4025 48.875 36.7288 48.875 37.0625C48.875 37.5101 48.6972 37.9393 48.3807 38.2558C48.0643 38.5722 47.6351 38.75 47.1875 38.75Z" fill="#897AE6"/>
</svg>
