<svg width="82" height="82" viewBox="0 0 82 82" fill="none" xmlns="http://www.w3.org/2000/svg">
<circle cx="41" cy="41" r="41" fill="white"/>
<path d="M56.0933 35.5663L46.4352 25.9082C46.2262 25.6992 45.9782 25.5334 45.7051 25.4203C45.4321 25.3072 45.1395 25.249 44.844 25.249C44.5485 25.249 44.2558 25.3072 43.9828 25.4203C43.7098 25.5334 43.4617 25.6992 43.2528 25.9082L39.2534 29.9076L31.0972 32.9676C30.7266 33.1055 30.3988 33.3386 30.147 33.6435C29.8952 33.9484 29.7282 34.3143 29.6628 34.7043L26.742 52.2262C26.7224 52.3437 26.7407 52.4643 26.7941 52.5708C26.8475 52.6773 26.9333 52.7641 27.0391 52.8186C27.145 52.8732 27.2655 52.8928 27.3832 52.8745C27.5009 52.8562 27.6097 52.8011 27.6941 52.717L35.7097 44.7013C35.4557 44.173 35.3447 43.5873 35.3877 43.0026C35.4399 42.2833 35.7213 41.5997 36.1904 41.052C36.6595 40.5042 37.2917 40.1211 37.9944 39.9588C38.697 39.7966 39.4332 39.8636 40.095 40.1502C40.7568 40.4368 41.3093 40.9279 41.6717 41.5514C42.0341 42.1749 42.1872 42.8981 42.1087 43.615C42.0301 44.3319 41.724 45.0047 41.2352 45.5349C40.7463 46.0652 40.1005 46.4249 39.3924 46.5613C38.6842 46.6978 37.951 46.6038 37.3002 46.2932L29.2845 54.3088C29.2004 54.3932 29.1453 54.502 29.127 54.6197C29.1087 54.7374 29.1283 54.8579 29.1829 54.9638C29.2374 55.0696 29.3242 55.1554 29.4307 55.2088C29.5372 55.2622 29.6578 55.2805 29.7753 55.2609L47.2986 52.3401C47.688 52.2752 48.0534 52.109 48.3583 51.8583C48.6631 51.6075 48.8966 51.2809 49.0353 50.9113L52.0967 42.7452L56.0933 38.7501C56.3023 38.5412 56.468 38.2931 56.5811 38.0201C56.6943 37.7471 56.7525 37.4544 56.7525 37.1589C56.7525 36.8634 56.6943 36.5708 56.5811 36.2978C56.468 36.0247 56.3023 35.7767 56.0933 35.5677V35.5663ZM51.1278 40.5332L41.4697 30.8751L44.8447 27.5001L54.5028 37.1582L51.1278 40.5332Z" fill="#897AE6"/>
</svg>
