<svg width="766" height="602" viewBox="0 0 766 602" fill="none" xmlns="http://www.w3.org/2000/svg">
<path d="M53.8979 6.69531V124H38.5903V6.69531H53.8979ZM91.603 6.69531V19.4248H0.96582V6.69531H91.603ZM118.354 0.25V124H103.45V0.25H118.354ZM114.809 77.1104L108.606 76.8687C108.659 70.9067 109.546 65.4014 111.264 60.3525C112.983 55.25 115.4 50.8188 118.515 47.0591C121.631 43.2993 125.337 40.3989 129.634 38.3579C133.984 36.2632 138.791 35.2158 144.055 35.2158C148.352 35.2158 152.219 35.8066 155.657 36.9883C159.094 38.1162 162.021 39.9424 164.438 42.4668C166.909 44.9912 168.789 48.2676 170.078 52.2959C171.367 56.2705 172.012 61.1313 172.012 66.8784V124H157.026V66.7173C157.026 62.1519 156.355 58.4995 155.012 55.7603C153.669 52.9673 151.709 50.9531 149.131 49.7178C146.553 48.4287 143.384 47.7842 139.624 47.7842C135.918 47.7842 132.534 48.563 129.472 50.1206C126.465 51.6782 123.86 53.8267 121.658 56.5659C119.509 59.3052 117.817 62.4473 116.582 65.9922C115.4 69.4834 114.809 73.1895 114.809 77.1104ZM227.203 125.611C221.133 125.611 215.628 124.591 210.687 122.55C205.799 120.455 201.583 117.528 198.038 113.768C194.546 110.008 191.861 105.55 189.981 100.394C188.101 95.2378 187.161 89.5981 187.161 83.4751V80.0913C187.161 73.0015 188.209 66.6904 190.303 61.1582C192.398 55.5723 195.245 50.8457 198.843 46.9785C202.442 43.1113 206.524 40.1841 211.089 38.1968C215.655 36.2095 220.381 35.2158 225.269 35.2158C231.5 35.2158 236.871 36.29 241.382 38.4385C245.948 40.5869 249.681 43.5947 252.581 47.4619C255.482 51.2754 257.63 55.7871 259.026 60.9971C260.423 66.1533 261.121 71.793 261.121 77.916V84.603H196.024V72.4375H246.216V71.3096C246.002 67.4424 245.196 63.6826 243.799 60.0303C242.457 56.3779 240.308 53.3701 237.354 51.0068C234.4 48.6436 230.372 47.4619 225.269 47.4619C221.885 47.4619 218.77 48.187 215.923 49.6372C213.077 51.0337 210.633 53.1284 208.592 55.9214C206.551 58.7144 204.966 62.125 203.838 66.1533C202.711 70.1816 202.147 74.8276 202.147 80.0913V83.4751C202.147 87.6108 202.711 91.5049 203.838 95.1572C205.02 98.7559 206.712 101.925 208.914 104.664C211.17 107.403 213.882 109.552 217.051 111.109C220.274 112.667 223.926 113.446 228.008 113.446C233.272 113.446 237.73 112.372 241.382 110.223C245.035 108.075 248.231 105.201 250.97 101.603L259.993 108.773C258.113 111.62 255.723 114.332 252.823 116.91C249.922 119.488 246.351 121.583 242.108 123.194C237.918 124.806 232.95 125.611 227.203 125.611ZM330.656 6.69531V124H315.107V6.69531H330.656ZM379.802 59.4663V72.1958H327.273V59.4663H379.802ZM387.778 6.69531V19.4248H327.273V6.69531H387.778ZM452.315 103.858V36.8271H467.3V124H453.04L452.315 103.858ZM455.135 85.4893L461.338 85.3281C461.338 91.1289 460.721 96.5 459.485 101.441C458.304 106.329 456.37 110.572 453.685 114.171C450.999 117.77 447.481 120.589 443.13 122.63C438.78 124.618 433.489 125.611 427.259 125.611C423.016 125.611 419.122 124.994 415.577 123.758C412.085 122.523 409.078 120.616 406.553 118.038C404.029 115.46 402.068 112.103 400.672 107.967C399.329 103.832 398.658 98.8633 398.658 93.0625V36.8271H413.562V93.2236C413.562 97.1445 413.992 100.394 414.852 102.972C415.765 105.497 416.973 107.511 418.477 109.015C420.035 110.465 421.753 111.485 423.633 112.076C425.567 112.667 427.554 112.962 429.595 112.962C435.933 112.962 440.955 111.754 444.661 109.337C448.367 106.866 451.026 103.563 452.637 99.4272C454.302 95.2378 455.135 90.5918 455.135 85.4893ZM523.217 36.8271V48.2676H476.085V36.8271H523.217ZM492.037 15.6382H506.942V102.408C506.942 105.362 507.399 107.591 508.312 109.095C509.225 110.599 510.407 111.593 511.857 112.076C513.307 112.56 514.865 112.801 516.53 112.801C517.765 112.801 519.054 112.694 520.397 112.479C521.793 112.21 522.841 111.996 523.539 111.834L523.619 124C522.438 124.376 520.88 124.725 518.947 125.047C517.067 125.423 514.784 125.611 512.098 125.611C508.446 125.611 505.089 124.886 502.028 123.436C498.966 121.986 496.522 119.569 494.696 116.185C492.924 112.748 492.037 108.128 492.037 102.328V15.6382ZM590.734 103.858V36.8271H605.72V124H591.46L590.734 103.858ZM593.554 85.4893L599.758 85.3281C599.758 91.1289 599.14 96.5 597.905 101.441C596.723 106.329 594.79 110.572 592.104 114.171C589.419 117.77 585.901 120.589 581.55 122.63C577.199 124.618 571.909 125.611 565.678 125.611C561.435 125.611 557.541 124.994 553.996 123.758C550.505 122.523 547.497 120.616 544.973 118.038C542.448 115.46 540.488 112.103 539.091 107.967C537.749 103.832 537.077 98.8633 537.077 93.0625V36.8271H551.982V93.2236C551.982 97.1445 552.412 100.394 553.271 102.972C554.184 105.497 555.393 107.511 556.897 109.015C558.454 110.465 560.173 111.485 562.053 112.076C563.986 112.667 565.974 112.962 568.015 112.962C574.353 112.962 579.375 111.754 583.081 109.337C586.787 106.866 589.445 103.563 591.057 99.4272C592.722 95.2378 593.554 90.5918 593.554 85.4893ZM640.044 50.5234V124H625.14V36.8271H639.641L640.044 50.5234ZM667.276 36.3438L667.195 50.2012C665.96 49.9326 664.778 49.7715 663.65 49.7178C662.576 49.6104 661.341 49.5566 659.944 49.5566C656.507 49.5566 653.472 50.0938 650.84 51.168C648.208 52.2422 645.979 53.7461 644.153 55.6797C642.327 57.6133 640.877 59.9229 639.803 62.6084C638.782 65.2402 638.111 68.1406 637.788 71.3096L633.599 73.7266C633.599 68.4629 634.109 63.5215 635.13 58.9023C636.204 54.2832 637.842 50.2012 640.044 46.6562C642.246 43.0576 645.039 40.2646 648.423 38.2773C651.861 36.2363 655.943 35.2158 660.669 35.2158C661.744 35.2158 662.979 35.3501 664.375 35.6187C665.772 35.8335 666.739 36.0752 667.276 36.3438ZM712.316 125.611C706.246 125.611 700.741 124.591 695.799 122.55C690.912 120.455 686.695 117.528 683.151 113.768C679.659 110.008 676.974 105.55 675.094 100.394C673.214 95.2378 672.274 89.5981 672.274 83.4751V80.0913C672.274 73.0015 673.321 66.6904 675.416 61.1582C677.511 55.5723 680.358 50.8457 683.956 46.9785C687.555 43.1113 691.637 40.1841 696.202 38.1968C700.768 36.2095 705.494 35.2158 710.382 35.2158C716.612 35.2158 721.984 36.29 726.495 38.4385C731.061 40.5869 734.794 43.5947 737.694 47.4619C740.594 51.2754 742.743 55.7871 744.139 60.9971C745.536 66.1533 746.234 71.793 746.234 77.916V84.603H681.136V72.4375H731.329V71.3096C731.114 67.4424 730.309 63.6826 728.912 60.0303C727.57 56.3779 725.421 53.3701 722.467 51.0068C719.513 48.6436 715.485 47.4619 710.382 47.4619C706.998 47.4619 703.883 48.187 701.036 49.6372C698.19 51.0337 695.746 53.1284 693.705 55.9214C691.664 58.7144 690.079 62.125 688.951 66.1533C687.823 70.1816 687.259 74.8276 687.259 80.0913V83.4751C687.259 87.6108 687.823 91.5049 688.951 95.1572C690.133 98.7559 691.825 101.925 694.027 104.664C696.283 107.403 698.995 109.552 702.164 111.109C705.387 112.667 709.039 113.446 713.121 113.446C718.385 113.446 722.843 112.372 726.495 110.223C730.148 108.075 733.343 105.201 736.083 101.603L745.106 108.773C743.226 111.62 740.836 114.332 737.936 116.91C735.035 119.488 731.464 121.583 727.22 123.194C723.031 124.806 718.063 125.611 712.316 125.611ZM27.2305 154.695V272H11.6812V154.695H27.2305ZM100.71 248.877C100.71 246.729 100.227 244.742 99.2601 242.916C98.347 241.036 96.4402 239.344 93.5398 237.84C90.6932 236.282 86.3963 234.939 80.6492 233.812C75.8152 232.791 71.4378 231.583 67.5169 230.186C63.6497 228.79 60.3465 227.098 57.6072 225.11C54.9217 223.123 52.8538 220.787 51.4036 218.101C49.9534 215.416 49.2283 212.273 49.2283 208.675C49.2283 205.237 49.9803 201.988 51.4842 198.926C53.0418 195.865 55.2171 193.152 58.0101 190.789C60.8567 188.426 64.2674 186.573 68.242 185.23C72.2166 183.887 76.6478 183.216 81.5354 183.216C88.5179 183.216 94.4798 184.451 99.4212 186.922C104.363 189.393 108.149 192.696 110.781 196.832C113.413 200.914 114.729 205.452 114.729 210.447H99.824C99.824 208.03 99.0989 205.694 97.6487 203.438C96.2522 201.128 94.1844 199.222 91.4451 197.718C88.7596 196.214 85.4563 195.462 81.5354 195.462C77.3997 195.462 74.0428 196.106 71.4646 197.396C68.9402 198.631 67.0872 200.215 65.9056 202.149C64.7776 204.083 64.2137 206.124 64.2137 208.272C64.2137 209.883 64.4822 211.333 65.0193 212.623C65.6102 213.858 66.6307 215.013 68.0809 216.087C69.5311 217.107 71.5721 218.074 74.2039 218.987C76.8357 219.9 80.1927 220.813 84.2747 221.727C91.4183 223.338 97.2996 225.271 101.919 227.527C106.538 229.783 109.975 232.549 112.231 235.826C114.487 239.102 115.615 243.077 115.615 247.75C115.615 251.563 114.809 255.054 113.198 258.223C111.64 261.392 109.358 264.131 106.35 266.441C103.396 268.697 99.8509 270.469 95.7151 271.758C91.6331 272.994 87.0408 273.611 81.9383 273.611C74.2576 273.611 67.7586 272.242 62.4412 269.502C57.1238 266.763 53.0955 263.218 50.3563 258.868C47.617 254.517 46.2474 249.925 46.2474 245.091H61.2327C61.4476 249.173 62.6292 252.422 64.7776 254.839C66.9261 257.203 69.5579 258.895 72.6731 259.915C75.7884 260.882 78.8768 261.365 81.9383 261.365C86.0203 261.365 89.431 260.828 92.1702 259.754C94.9632 258.68 97.0848 257.203 98.535 255.323C99.9852 253.443 100.71 251.294 100.71 248.877ZM215.202 165.088L176.369 272H160.497L205.211 154.695H215.443L215.202 165.088ZM247.75 272L208.837 165.088L208.595 154.695H218.827L263.703 272H247.75ZM245.736 228.575V241.304H179.833V228.575H245.736ZM273.777 148.25H288.762V255.081L287.473 272H273.777V148.25ZM347.656 227.688V229.38C347.656 235.718 346.904 241.6 345.4 247.024C343.896 252.396 341.694 257.068 338.794 261.043C335.893 265.018 332.348 268.106 328.159 270.308C323.969 272.51 319.162 273.611 313.737 273.611C308.205 273.611 303.344 272.671 299.155 270.792C295.019 268.858 291.528 266.092 288.681 262.493C285.835 258.895 283.552 254.544 281.833 249.441C280.168 244.339 279.013 238.592 278.369 232.2V224.788C279.013 218.343 280.168 212.569 281.833 207.466C283.552 202.364 285.835 198.013 288.681 194.415C291.528 190.762 295.019 187.996 299.155 186.116C303.291 184.183 308.098 183.216 313.576 183.216C319.055 183.216 323.916 184.29 328.159 186.438C332.402 188.533 335.947 191.541 338.794 195.462C341.694 199.383 343.896 204.083 345.4 209.561C346.904 214.986 347.656 221.028 347.656 227.688ZM332.671 229.38V227.688C332.671 223.338 332.268 219.256 331.462 215.442C330.656 211.575 329.367 208.191 327.595 205.291C325.822 202.337 323.486 200.027 320.586 198.362C317.685 196.644 314.113 195.784 309.87 195.784C306.111 195.784 302.834 196.429 300.041 197.718C297.302 199.007 294.966 200.752 293.032 202.955C291.098 205.103 289.514 207.574 288.279 210.367C287.097 213.106 286.211 215.953 285.62 218.907V238.323C286.479 242.083 287.876 245.708 289.809 249.2C291.797 252.637 294.428 255.457 297.705 257.659C301.035 259.861 305.144 260.962 310.031 260.962C314.06 260.962 317.497 260.157 320.344 258.545C323.244 256.88 325.581 254.598 327.353 251.697C329.179 248.797 330.522 245.44 331.382 241.626C332.241 237.813 332.671 233.731 332.671 229.38ZM359.261 229.38V227.527C359.261 221.243 360.174 215.416 362 210.044C363.826 204.62 366.458 199.92 369.896 195.945C373.333 191.917 377.496 188.802 382.383 186.6C387.271 184.344 392.75 183.216 398.819 183.216C404.942 183.216 410.447 184.344 415.335 186.6C420.276 188.802 424.466 191.917 427.903 195.945C431.395 199.92 434.053 204.62 435.879 210.044C437.706 215.416 438.619 221.243 438.619 227.527V229.38C438.619 235.665 437.706 241.492 435.879 246.863C434.053 252.234 431.395 256.934 427.903 260.962C424.466 264.937 420.303 268.052 415.416 270.308C410.582 272.51 405.103 273.611 398.98 273.611C392.857 273.611 387.352 272.51 382.464 270.308C377.576 268.052 373.387 264.937 369.896 260.962C366.458 256.934 363.826 252.234 362 246.863C360.174 241.492 359.261 235.665 359.261 229.38ZM374.166 227.527V229.38C374.166 233.731 374.676 237.84 375.696 241.707C376.717 245.521 378.248 248.904 380.289 251.858C382.383 254.812 384.988 257.149 388.104 258.868C391.219 260.533 394.844 261.365 398.98 261.365C403.062 261.365 406.634 260.533 409.695 258.868C412.811 257.149 415.389 254.812 417.43 251.858C419.471 248.904 421.001 245.521 422.022 241.707C423.096 237.84 423.633 233.731 423.633 229.38V227.527C423.633 223.23 423.096 219.175 422.022 215.362C421.001 211.495 419.444 208.084 417.349 205.13C415.308 202.122 412.73 199.759 409.615 198.04C406.553 196.321 402.955 195.462 398.819 195.462C394.737 195.462 391.138 196.321 388.023 198.04C384.961 199.759 382.383 202.122 380.289 205.13C378.248 208.084 376.717 211.495 375.696 215.362C374.676 219.175 374.166 223.23 374.166 227.527ZM507.345 251.858V184.827H522.33V272H508.07L507.345 251.858ZM510.165 233.489L516.368 233.328C516.368 239.129 515.751 244.5 514.515 249.441C513.334 254.329 511.4 258.572 508.715 262.171C506.029 265.77 502.511 268.589 498.16 270.63C493.81 272.618 488.519 273.611 482.289 273.611C478.046 273.611 474.152 272.994 470.607 271.758C467.116 270.523 464.108 268.616 461.583 266.038C459.059 263.46 457.098 260.103 455.702 255.967C454.359 251.832 453.688 246.863 453.688 241.062V184.827H468.593V241.224C468.593 245.145 469.022 248.394 469.882 250.972C470.795 253.497 472.003 255.511 473.507 257.015C475.065 258.465 476.784 259.485 478.663 260.076C480.597 260.667 482.584 260.962 484.625 260.962C490.963 260.962 495.985 259.754 499.691 257.337C503.397 254.866 506.056 251.563 507.667 247.427C509.332 243.238 510.165 238.592 510.165 233.489ZM578.247 184.827V196.268H531.115V184.827H578.247ZM547.068 163.638H561.972V250.408C561.972 253.362 562.429 255.591 563.342 257.095C564.255 258.599 565.437 259.593 566.887 260.076C568.337 260.56 569.895 260.801 571.56 260.801C572.795 260.801 574.084 260.694 575.427 260.479C576.823 260.21 577.871 259.996 578.569 259.834L578.65 272C577.468 272.376 575.91 272.725 573.977 273.047C572.097 273.423 569.814 273.611 567.129 273.611C563.476 273.611 560.119 272.886 557.058 271.436C553.996 269.986 551.552 267.569 549.726 264.185C547.954 260.748 547.068 256.128 547.068 250.328V163.638ZM77.665 302.695H93.1338V382.053C93.1338 390.862 91.1733 398.193 87.2524 404.048C83.3315 409.902 78.1216 414.307 71.6226 417.261C65.1772 420.161 58.168 421.611 50.5947 421.611C42.6455 421.611 35.4482 420.161 29.0029 417.261C22.6113 414.307 17.5356 409.902 13.7759 404.048C10.0698 398.193 8.2168 390.862 8.2168 382.053V302.695H23.605V382.053C23.605 388.176 24.7329 393.225 26.9888 397.2C29.2446 401.174 32.3867 404.128 36.415 406.062C40.4971 407.996 45.2236 408.962 50.5947 408.962C56.0195 408.962 60.7461 407.996 64.7744 406.062C68.8564 404.128 72.0254 401.174 74.2812 397.2C76.5371 393.225 77.665 388.176 77.665 382.053V302.695ZM162.746 396.877C162.746 394.729 162.263 392.742 161.296 390.916C160.383 389.036 158.476 387.344 155.576 385.84C152.729 384.282 148.432 382.939 142.685 381.812C137.851 380.791 133.474 379.583 129.553 378.186C125.686 376.79 122.383 375.098 119.643 373.11C116.958 371.123 114.89 368.787 113.44 366.101C111.99 363.416 111.264 360.273 111.264 356.675C111.264 353.237 112.016 349.988 113.52 346.926C115.078 343.865 117.253 341.152 120.046 338.789C122.893 336.426 126.304 334.573 130.278 333.23C134.253 331.887 138.684 331.216 143.572 331.216C150.554 331.216 156.516 332.451 161.457 334.922C166.399 337.393 170.185 340.696 172.817 344.832C175.449 348.914 176.765 353.452 176.765 358.447H161.86C161.86 356.03 161.135 353.694 159.685 351.438C158.288 349.128 156.221 347.222 153.481 345.718C150.796 344.214 147.492 343.462 143.572 343.462C139.436 343.462 136.079 344.106 133.501 345.396C130.976 346.631 129.123 348.215 127.942 350.149C126.814 352.083 126.25 354.124 126.25 356.272C126.25 357.883 126.518 359.333 127.055 360.623C127.646 361.858 128.667 363.013 130.117 364.087C131.567 365.107 133.608 366.074 136.24 366.987C138.872 367.9 142.229 368.813 146.311 369.727C153.454 371.338 159.336 373.271 163.955 375.527C168.574 377.783 172.012 380.549 174.267 383.826C176.523 387.102 177.651 391.077 177.651 395.75C177.651 399.563 176.846 403.054 175.234 406.223C173.677 409.392 171.394 412.131 168.386 414.441C165.432 416.697 161.887 418.469 157.751 419.758C153.669 420.994 149.077 421.611 143.974 421.611C136.294 421.611 129.795 420.242 124.477 417.502C119.16 414.763 115.132 411.218 112.392 406.868C109.653 402.517 108.283 397.925 108.283 393.091H123.269C123.484 397.173 124.665 400.422 126.814 402.839C128.962 405.203 131.594 406.895 134.709 407.915C137.825 408.882 140.913 409.365 143.974 409.365C148.056 409.365 151.467 408.828 154.206 407.754C156.999 406.68 159.121 405.203 160.571 403.323C162.021 401.443 162.746 399.294 162.746 396.877ZM230.103 421.611C224.034 421.611 218.528 420.591 213.587 418.55C208.699 416.455 204.483 413.528 200.938 409.768C197.447 406.008 194.761 401.55 192.881 396.394C191.002 391.238 190.062 385.598 190.062 379.475V376.091C190.062 369.001 191.109 362.69 193.204 357.158C195.298 351.572 198.145 346.846 201.744 342.979C205.342 339.111 209.424 336.184 213.99 334.197C218.555 332.209 223.282 331.216 228.17 331.216C234.4 331.216 239.771 332.29 244.283 334.438C248.848 336.587 252.581 339.595 255.482 343.462C258.382 347.275 260.53 351.787 261.927 356.997C263.323 362.153 264.022 367.793 264.022 373.916V380.603H198.924V368.438H249.117V367.31C248.902 363.442 248.096 359.683 246.7 356.03C245.357 352.378 243.209 349.37 240.254 347.007C237.3 344.644 233.272 343.462 228.17 343.462C224.786 343.462 221.671 344.187 218.824 345.637C215.977 347.034 213.533 349.128 211.492 351.921C209.451 354.714 207.867 358.125 206.739 362.153C205.611 366.182 205.047 370.828 205.047 376.091V379.475C205.047 383.611 205.611 387.505 206.739 391.157C207.921 394.756 209.612 397.925 211.815 400.664C214.07 403.403 216.783 405.552 219.952 407.109C223.174 408.667 226.827 409.446 230.909 409.446C236.172 409.446 240.63 408.372 244.283 406.223C247.935 404.075 251.131 401.201 253.87 397.603L262.894 404.773C261.014 407.62 258.624 410.332 255.723 412.91C252.823 415.488 249.251 417.583 245.008 419.194C240.818 420.806 235.85 421.611 230.103 421.611ZM293.029 346.523V420H278.124V332.827H292.626L293.029 346.523ZM320.26 332.344L320.18 346.201C318.944 345.933 317.763 345.771 316.635 345.718C315.56 345.61 314.325 345.557 312.929 345.557C309.491 345.557 306.456 346.094 303.825 347.168C301.193 348.242 298.964 349.746 297.138 351.68C295.311 353.613 293.861 355.923 292.787 358.608C291.767 361.24 291.095 364.141 290.773 367.31L286.583 369.727C286.583 364.463 287.094 359.521 288.114 354.902C289.188 350.283 290.827 346.201 293.029 342.656C295.231 339.058 298.024 336.265 301.408 334.277C304.845 332.236 308.927 331.216 313.654 331.216C314.728 331.216 315.963 331.35 317.36 331.619C318.756 331.833 319.723 332.075 320.26 332.344ZM85.0771 555.351V568H22.9604V555.351H85.0771ZM26.1025 450.695V568H10.5532V450.695H26.1025ZM76.8594 501.13V513.779H22.9604V501.13H76.8594ZM84.2715 450.695V463.425H22.9604V450.695H84.2715ZM108.847 480.827L127.942 512.57L147.278 480.827H164.761L136.24 523.85L165.647 568H148.406L128.264 535.29L108.122 568H90.8006L120.127 523.85L91.6868 480.827H108.847ZM192.237 497.585V601.516H177.252V480.827H190.948L192.237 497.585ZM250.97 523.688V525.38C250.97 531.718 250.218 537.6 248.714 543.024C247.21 548.396 245.008 553.068 242.108 557.043C239.261 561.018 235.743 564.106 231.553 566.308C227.364 568.51 222.557 569.611 217.132 569.611C211.6 569.611 206.712 568.698 202.469 566.872C198.226 565.046 194.627 562.387 191.673 558.896C188.719 555.405 186.356 551.215 184.583 546.328C182.864 541.44 181.683 535.935 181.038 529.812V520.788C181.683 514.343 182.891 508.569 184.664 503.466C186.436 498.364 188.773 494.013 191.673 490.415C194.627 486.762 198.199 483.996 202.388 482.116C206.578 480.183 211.412 479.216 216.89 479.216C222.369 479.216 227.23 480.29 231.473 482.438C235.716 484.533 239.288 487.541 242.188 491.462C245.088 495.383 247.264 500.083 248.714 505.561C250.218 510.986 250.97 517.028 250.97 523.688ZM235.984 525.38V523.688C235.984 519.338 235.528 515.256 234.615 511.442C233.702 507.575 232.278 504.191 230.345 501.291C228.465 498.337 226.048 496.027 223.094 494.362C220.14 492.644 216.622 491.784 212.54 491.784C208.78 491.784 205.504 492.429 202.711 493.718C199.971 495.007 197.635 496.752 195.701 498.955C193.768 501.103 192.183 503.574 190.948 506.367C189.766 509.106 188.88 511.953 188.289 514.907V535.773C189.363 539.533 190.867 543.078 192.801 546.408C194.734 549.685 197.313 552.343 200.535 554.384C203.758 556.372 207.813 557.365 212.701 557.365C216.729 557.365 220.193 556.533 223.094 554.868C226.048 553.149 228.465 550.812 230.345 547.858C232.278 544.904 233.702 541.521 234.615 537.707C235.528 533.84 235.984 529.731 235.984 525.38ZM302.858 569.611C296.788 569.611 291.283 568.591 286.342 566.55C281.454 564.455 277.238 561.528 273.693 557.768C270.202 554.008 267.516 549.55 265.636 544.394C263.756 539.238 262.816 533.598 262.816 527.475V524.091C262.816 517.001 263.864 510.69 265.958 505.158C268.053 499.572 270.9 494.846 274.498 490.979C278.097 487.111 282.179 484.184 286.745 482.197C291.31 480.209 296.037 479.216 300.924 479.216C307.155 479.216 312.526 480.29 317.038 482.438C321.603 484.587 325.336 487.595 328.236 491.462C331.137 495.275 333.285 499.787 334.682 504.997C336.078 510.153 336.776 515.793 336.776 521.916V528.603H271.679V516.438H321.871V515.31C321.657 511.442 320.851 507.683 319.454 504.03C318.112 500.378 315.963 497.37 313.009 495.007C310.055 492.644 306.027 491.462 300.924 491.462C297.54 491.462 294.425 492.187 291.579 493.637C288.732 495.034 286.288 497.128 284.247 499.921C282.206 502.714 280.621 506.125 279.494 510.153C278.366 514.182 277.802 518.828 277.802 524.091V527.475C277.802 531.611 278.366 535.505 279.494 539.157C280.675 542.756 282.367 545.925 284.569 548.664C286.825 551.403 289.538 553.552 292.706 555.109C295.929 556.667 299.581 557.446 303.663 557.446C308.927 557.446 313.385 556.372 317.038 554.223C320.69 552.075 323.886 549.201 326.625 545.603L335.648 552.773C333.768 555.62 331.378 558.332 328.478 560.91C325.578 563.488 322.006 565.583 317.763 567.194C313.573 568.806 308.605 569.611 302.858 569.611ZM365.783 494.523V568H350.879V480.827H365.381L365.783 494.523ZM393.015 480.344L392.934 494.201C391.699 493.933 390.517 493.771 389.389 493.718C388.315 493.61 387.08 493.557 385.683 493.557C382.246 493.557 379.211 494.094 376.579 495.168C373.947 496.242 371.718 497.746 369.892 499.68C368.066 501.613 366.616 503.923 365.542 506.608C364.521 509.24 363.85 512.141 363.528 515.31L359.338 517.727C359.338 512.463 359.848 507.521 360.869 502.902C361.943 498.283 363.581 494.201 365.783 490.656C367.986 487.058 370.779 484.265 374.162 482.277C377.6 480.236 381.682 479.216 386.408 479.216C387.483 479.216 388.718 479.35 390.114 479.619C391.511 479.833 392.478 480.075 393.015 480.344ZM419.686 480.827V568H404.7V480.827H419.686ZM403.572 457.705C403.572 455.288 404.297 453.247 405.748 451.582C407.251 449.917 409.454 449.084 412.354 449.084C415.201 449.084 417.376 449.917 418.88 451.582C420.438 453.247 421.216 455.288 421.216 457.705C421.216 460.014 420.438 462.001 418.88 463.667C417.376 465.278 415.201 466.083 412.354 466.083C409.454 466.083 407.251 465.278 405.748 463.667C404.297 462.001 403.572 460.014 403.572 457.705ZM476.488 569.611C470.419 569.611 464.913 568.591 459.972 566.55C455.084 564.455 450.868 561.528 447.323 557.768C443.832 554.008 441.146 549.55 439.266 544.394C437.387 539.238 436.447 533.598 436.447 527.475V524.091C436.447 517.001 437.494 510.69 439.589 505.158C441.683 499.572 444.53 494.846 448.129 490.979C451.727 487.111 455.809 484.184 460.375 482.197C464.94 480.209 469.667 479.216 474.555 479.216C480.785 479.216 486.156 480.29 490.668 482.438C495.233 484.587 498.966 487.595 501.867 491.462C504.767 495.275 506.915 499.787 508.312 504.997C509.708 510.153 510.407 515.793 510.407 521.916V528.603H445.309V516.438H495.502V515.31C495.287 511.442 494.481 507.683 493.085 504.03C491.742 500.378 489.594 497.37 486.639 495.007C483.685 492.644 479.657 491.462 474.555 491.462C471.171 491.462 468.055 492.187 465.209 493.637C462.362 495.034 459.918 497.128 457.877 499.921C455.836 502.714 454.252 506.125 453.124 510.153C451.996 514.182 451.432 518.828 451.432 524.091V527.475C451.432 531.611 451.996 535.505 453.124 539.157C454.305 542.756 455.997 545.925 458.2 548.664C460.455 551.403 463.168 553.552 466.337 555.109C469.559 556.667 473.212 557.446 477.294 557.446C482.557 557.446 487.015 556.372 490.668 554.223C494.32 552.075 497.516 549.201 500.255 545.603L509.279 552.773C507.399 555.62 505.009 558.332 502.108 560.91C499.208 563.488 495.636 565.583 491.393 567.194C487.203 568.806 482.235 569.611 476.488 569.611ZM539.414 499.438V568H524.509V480.827H538.608L539.414 499.438ZM535.869 521.11L529.665 520.869C529.719 514.907 530.605 509.401 532.324 504.353C534.043 499.25 536.46 494.819 539.575 491.059C542.69 487.299 546.396 484.399 550.693 482.358C555.044 480.263 559.851 479.216 565.114 479.216C569.411 479.216 573.278 479.807 576.716 480.988C580.153 482.116 583.081 483.942 585.498 486.467C587.968 488.991 589.848 492.268 591.137 496.296C592.426 500.271 593.071 505.131 593.071 510.878V568H578.086V510.717C578.086 506.152 577.414 502.5 576.071 499.76C574.729 496.967 572.768 494.953 570.19 493.718C567.612 492.429 564.443 491.784 560.683 491.784C556.977 491.784 553.593 492.563 550.532 494.121C547.524 495.678 544.919 497.827 542.717 500.566C540.568 503.305 538.877 506.447 537.641 509.992C536.46 513.483 535.869 517.189 535.869 521.11ZM647.295 557.365C650.84 557.365 654.117 556.64 657.124 555.19C660.132 553.74 662.603 551.752 664.536 549.228C666.47 546.65 667.571 543.723 667.84 540.446H682.019C681.751 545.603 680.005 550.41 676.783 554.868C673.614 559.272 669.451 562.844 664.295 565.583C659.139 568.269 653.472 569.611 647.295 569.611C640.743 569.611 635.022 568.457 630.135 566.147C625.301 563.837 621.272 560.668 618.05 556.64C614.881 552.612 612.491 547.993 610.879 542.783C609.322 537.519 608.543 531.96 608.543 526.105V522.722C608.543 516.867 609.322 511.335 610.879 506.125C612.491 500.861 614.881 496.215 618.05 492.187C621.272 488.159 625.301 484.99 630.135 482.68C635.022 480.371 640.743 479.216 647.295 479.216C654.117 479.216 660.078 480.612 665.181 483.405C670.284 486.145 674.285 489.904 677.185 494.685C680.14 499.411 681.751 504.782 682.019 510.798H667.84C667.571 507.199 666.551 503.95 664.778 501.049C663.059 498.149 660.696 495.839 657.688 494.121C654.734 492.348 651.27 491.462 647.295 491.462C642.73 491.462 638.89 492.375 635.774 494.201C632.713 495.974 630.269 498.391 628.443 501.452C626.67 504.46 625.381 507.817 624.576 511.523C623.824 515.175 623.448 518.908 623.448 522.722V526.105C623.448 529.919 623.824 533.679 624.576 537.385C625.328 541.091 626.59 544.448 628.362 547.456C630.188 550.463 632.632 552.88 635.694 554.707C638.809 556.479 642.676 557.365 647.295 557.365ZM731.652 569.611C725.582 569.611 720.077 568.591 715.135 566.55C710.248 564.455 706.031 561.528 702.487 557.768C698.995 554.008 696.31 549.55 694.43 544.394C692.55 539.238 691.61 533.598 691.61 527.475V524.091C691.61 517.001 692.657 510.69 694.752 505.158C696.847 499.572 699.694 494.846 703.292 490.979C706.891 487.111 710.973 484.184 715.538 482.197C720.104 480.209 724.83 479.216 729.718 479.216C735.948 479.216 741.32 480.29 745.831 482.438C750.397 484.587 754.13 487.595 757.03 491.462C759.93 495.275 762.079 499.787 763.475 504.997C764.872 510.153 765.57 515.793 765.57 521.916V528.603H700.472V516.438H750.665V515.31C750.45 511.442 749.645 507.683 748.248 504.03C746.905 500.378 744.757 497.37 741.803 495.007C738.849 492.644 734.82 491.462 729.718 491.462C726.334 491.462 723.219 492.187 720.372 493.637C717.526 495.034 715.082 497.128 713.041 499.921C711 502.714 709.415 506.125 708.287 510.153C707.159 514.182 706.595 518.828 706.595 524.091V527.475C706.595 531.611 707.159 535.505 708.287 539.157C709.469 542.756 711.161 545.925 713.363 548.664C715.619 551.403 718.331 553.552 721.5 555.109C724.723 556.667 728.375 557.446 732.457 557.446C737.721 557.446 742.179 556.372 745.831 554.223C749.484 552.075 752.679 549.201 755.419 545.603L764.442 552.773C762.562 555.62 760.172 558.332 757.272 560.91C754.371 563.488 750.799 565.583 746.556 567.194C742.367 568.806 737.399 569.611 731.652 569.611Z" fill="url(#paint0_linear_297_9153)"/>
<defs>
<linearGradient id="paint0_linear_297_9153" x1="-31.0625" y1="212" x2="936.937" y2="586" gradientUnits="userSpaceOnUse">
<stop stop-color="#525252"/>
<stop offset="0.29753" stop-color="white"/>
<stop offset="0.783515" stop-color="white"/>
<stop offset="0.837214" stop-color="#5D5D5D"/>
</linearGradient>
</defs>
</svg>
